<?xml version="1.0" encoding="UTF-8"?>
<svg id="Lager_1" data-name="Lager 1" xmlns="http://www.w3.org/2000/svg" viewBox="0 0 377.16 293.96">
  <defs>
    <style>
      .cls-1 {
        opacity: .6;
        stroke: #000;
      }

      .cls-1, .cls-2 {
        fill: none;
        stroke-miterlimit: 10;
      }

      .cls-3 {
        fill: #833ab4;
      }

      .cls-4 {
        fill: #fff;
      }

      .cls-2 {
        stroke: #833ab4;
      }

      .cls-5 {
        fill: #c1c1c1;
      }
    </style>
  </defs>
  <polyline class="cls-1" points="60.77 0 60.77 271.57 377.16 271.57"/>
  <g>
    <rect class="cls-5" x="79.58" y="53.07" width="45.35" height="218.03"/>
    <g>
      <path d="M78.22,282.45v.89h-3.64v2.82h2.95v.89h-2.95v3.77h-1.09v-8.36h4.73Z"/>
      <path d="M79.54,285.73c.27-.51.65-.9,1.12-1.18s1.01-.42,1.59-.42,1.08.12,1.5.37c.42.25.74.56.95.94v-1.2h1.1v6.58h-1.1v-1.22c-.22.38-.54.7-.97.95-.43.25-.93.38-1.49.38s-1.11-.14-1.58-.43c-.47-.29-.84-.69-1.12-1.21-.27-.52-.41-1.11-.41-1.78s.14-1.26.41-1.77ZM84.4,286.22c-.2-.37-.47-.65-.81-.85-.34-.2-.71-.29-1.12-.29s-.78.1-1.12.29c-.34.19-.6.47-.8.84-.2.37-.3.8-.3,1.3s.1.94.3,1.31c.2.37.47.66.8.85.34.2.71.29,1.12.29s.78-.1,1.12-.29c.34-.2.61-.48.81-.85.2-.37.3-.81.3-1.3s-.1-.93-.3-1.3Z"/>
      <path d="M87.65,285.73c.27-.51.65-.9,1.13-1.18.48-.28,1.04-.42,1.66-.42.81,0,1.47.2,2,.59.52.39.87.94,1.04,1.63h-1.18c-.11-.4-.33-.72-.65-.95-.32-.23-.73-.35-1.21-.35-.62,0-1.13.21-1.51.64-.38.43-.58,1.03-.58,1.82s.19,1.4.58,1.84c.38.43.89.65,1.51.65.48,0,.88-.11,1.2-.34.32-.22.54-.54.66-.96h1.18c-.18.67-.53,1.21-1.06,1.61-.53.4-1.19.61-1.98.61-.62,0-1.18-.14-1.66-.42-.48-.28-.86-.68-1.13-1.19s-.41-1.11-.41-1.8.14-1.27.41-1.78Z"/>
      <path d="M100.9,287.94h-5.26c.04.65.26,1.15.67,1.52.4.36.89.55,1.47.55.47,0,.87-.11,1.18-.33.32-.22.54-.51.67-.88h1.18c-.18.63-.53,1.15-1.06,1.54-.53.4-1.18.59-1.97.59-.62,0-1.18-.14-1.67-.42-.49-.28-.88-.68-1.16-1.19-.28-.52-.42-1.11-.42-1.79s.14-1.28.41-1.79.65-.91,1.15-1.18c.49-.28,1.06-.41,1.7-.41s1.18.14,1.66.41c.48.27.85.65,1.11,1.12.26.48.39,1.01.39,1.61,0,.21-.01.43-.04.66ZM99.53,285.97c-.18-.3-.43-.53-.75-.68-.32-.16-.67-.23-1.05-.23-.55,0-1.02.18-1.41.53-.39.35-.61.84-.67,1.46h4.15c0-.42-.09-.77-.28-1.07Z"/>
      <path d="M104.45,284.5c.43-.25.92-.37,1.48-.37.59,0,1.12.14,1.6.42.47.28.84.67,1.12,1.18s.41,1.1.41,1.77-.14,1.26-.41,1.78c-.27.52-.65.92-1.12,1.21s-1.01.43-1.59.43-1.07-.12-1.49-.37c-.43-.25-.75-.56-.97-.95v1.21h-1.09v-8.88h1.09v3.53c.22-.39.55-.71.98-.96ZM107.63,286.21c-.2-.37-.47-.65-.81-.84-.34-.19-.71-.29-1.12-.29s-.77.1-1.11.29c-.34.2-.61.48-.82.85-.2.37-.31.8-.31,1.29s.1.93.31,1.3c.2.37.48.66.82.85.34.2.71.29,1.11.29s.78-.1,1.12-.29c.34-.2.61-.48.81-.85.2-.37.3-.81.3-1.31s-.1-.93-.3-1.3Z"/>
      <path d="M111.68,290.5c-.5-.28-.89-.68-1.18-1.19-.28-.52-.43-1.11-.43-1.79s.15-1.27.44-1.78.69-.91,1.19-1.19c.5-.28,1.07-.41,1.69-.41s1.19.14,1.69.41c.5.28.9.67,1.19,1.18s.44,1.11.44,1.79-.15,1.28-.45,1.79c-.3.52-.71.91-1.22,1.19-.51.28-1.08.42-1.7.42s-1.17-.14-1.67-.42ZM114.46,289.69c.34-.18.62-.46.83-.83s.32-.82.32-1.34-.1-.98-.31-1.34c-.21-.37-.48-.64-.82-.82-.34-.18-.7-.27-1.09-.27s-.77.09-1.1.27c-.33.18-.6.45-.8.82-.2.37-.3.82-.3,1.34s.1.99.29,1.36c.2.37.46.64.79.82s.69.27,1.08.27.76-.09,1.1-.28Z"/>
      <path d="M119.36,290.5c-.5-.28-.89-.68-1.18-1.19-.28-.52-.43-1.11-.43-1.79s.15-1.27.44-1.78.69-.91,1.19-1.19c.5-.28,1.07-.41,1.69-.41s1.19.14,1.69.41c.5.28.9.67,1.19,1.18s.44,1.11.44,1.79-.15,1.28-.45,1.79c-.3.52-.71.91-1.22,1.19-.51.28-1.08.42-1.7.42s-1.17-.14-1.67-.42ZM122.14,289.69c.34-.18.62-.46.83-.83s.32-.82.32-1.34-.1-.98-.31-1.34c-.21-.37-.48-.64-.82-.82-.34-.18-.7-.27-1.09-.27s-.77.09-1.1.27c-.33.18-.6.45-.8.82-.2.37-.3.82-.3,1.34s.1.99.29,1.36c.2.37.46.64.79.82s.69.27,1.08.27.76-.09,1.1-.28Z"/>
      <path d="M129.52,290.82l-2.58-2.9v2.9h-1.09v-8.88h1.09v5.22l2.53-2.92h1.52l-3.1,3.28,3.11,3.3h-1.49Z"/>
    </g>
  </g>
  <g>
    <rect class="cls-5" x="151.7" y="131.86" width="45.35" height="139.2"/>
    <g>
      <path d="M156.31,282.36l-2.72,5.21v3.16h-1.09v-3.16l-2.74-5.21h1.21l2.06,4.24,2.06-4.24h1.21Z"/>
      <path d="M158.66,290.41c-.5-.28-.89-.68-1.18-1.19-.28-.52-.43-1.11-.43-1.79s.15-1.27.44-1.78.69-.91,1.19-1.19c.5-.28,1.07-.41,1.69-.41s1.19.14,1.69.41c.5.28.9.67,1.19,1.18s.44,1.11.44,1.79-.15,1.28-.45,1.79c-.3.52-.71.91-1.22,1.19-.51.28-1.08.42-1.7.42s-1.17-.14-1.67-.42ZM161.44,289.59c.34-.18.62-.46.83-.83s.32-.82.32-1.34-.1-.98-.31-1.34c-.21-.37-.48-.64-.82-.82-.34-.18-.7-.27-1.09-.27s-.77.09-1.1.27c-.33.18-.6.45-.8.82-.2.37-.3.82-.3,1.34s.1.99.29,1.36c.2.37.46.64.79.82s.69.27,1.08.27.76-.09,1.1-.28Z"/>
      <path d="M170.98,284.14v6.58h-1.09v-.97c-.21.34-.5.6-.87.79-.37.19-.78.28-1.23.28-.51,0-.97-.11-1.38-.32-.41-.21-.73-.53-.97-.95-.24-.42-.35-.94-.35-1.55v-3.85h1.08v3.71c0,.65.16,1.15.49,1.49s.78.52,1.34.52,1.04-.18,1.38-.54c.34-.36.5-.88.5-1.57v-3.61h1.09Z"/>
      <path d="M174.16,285.04v3.88c0,.32.07.55.2.68.14.13.37.2.71.2h.8v.92h-.98c-.61,0-1.06-.14-1.37-.42-.3-.28-.46-.74-.46-1.38v-3.88h-.85v-.9h.85v-1.66h1.09v1.66h1.72v.9h-1.72Z"/>
      <path d="M183.03,284.14v6.58h-1.09v-.97c-.21.34-.5.6-.87.79-.37.19-.78.28-1.23.28-.51,0-.97-.11-1.38-.32-.41-.21-.73-.53-.97-.95-.24-.42-.35-.94-.35-1.55v-3.85h1.08v3.71c0,.65.16,1.15.49,1.49s.78.52,1.34.52,1.04-.18,1.38-.54c.34-.36.5-.88.5-1.57v-3.61h1.09Z"/>
      <path d="M186.95,284.41c.43-.25.92-.37,1.48-.37.59,0,1.12.14,1.6.42.47.28.84.67,1.12,1.18s.41,1.1.41,1.77-.14,1.26-.41,1.78c-.27.52-.65.92-1.12,1.21s-1.01.43-1.59.43-1.07-.12-1.49-.37c-.43-.25-.75-.56-.97-.95v1.21h-1.09v-8.88h1.09v3.53c.22-.39.55-.71.98-.96ZM190.13,286.11c-.2-.37-.47-.65-.81-.84-.34-.19-.71-.29-1.12-.29s-.77.1-1.11.29c-.34.2-.61.48-.82.85-.2.37-.31.8-.31,1.29s.1.93.31,1.3c.2.37.48.66.82.85.34.2.71.29,1.11.29s.78-.1,1.12-.29c.34-.2.61-.48.81-.85.2-.37.3-.81.3-1.31s-.1-.93-.3-1.3Z"/>
      <path d="M198.95,287.84h-5.26c.04.65.26,1.15.67,1.52.4.36.89.55,1.47.55.47,0,.87-.11,1.18-.33.32-.22.54-.51.67-.88h1.18c-.18.63-.53,1.15-1.06,1.54-.53.4-1.18.59-1.97.59-.62,0-1.18-.14-1.67-.42-.49-.28-.88-.68-1.16-1.19-.28-.52-.42-1.11-.42-1.79s.14-1.28.41-1.79.65-.91,1.15-1.18c.49-.28,1.06-.41,1.7-.41s1.18.14,1.66.41c.48.27.85.65,1.11,1.12.26.48.39,1.01.39,1.61,0,.21-.01.43-.04.66ZM197.58,285.88c-.18-.3-.43-.53-.75-.68-.32-.16-.67-.23-1.05-.23-.55,0-1.02.18-1.41.53-.39.35-.61.84-.67,1.46h4.15c0-.42-.09-.77-.28-1.07Z"/>
    </g>
  </g>
  <g>
    <rect class="cls-3" x="219.89" y="244.12" width="45.35" height="26.94"/>
    <g>
      <path d="M213.4,282.36v8.36h-1.09v-8.36h1.09Z"/>
      <path d="M220.41,284.75c.5.48.74,1.18.74,2.09v3.88h-1.08v-3.72c0-.66-.16-1.16-.49-1.51-.33-.35-.78-.52-1.34-.52s-1.03.18-1.37.54-.51.88-.51,1.57v3.64h-1.09v-6.58h1.09v.94c.22-.34.51-.6.88-.78s.78-.28,1.23-.28c.8,0,1.45.24,1.94.73Z"/>
      <path d="M223.91,290.57c-.4-.17-.72-.41-.95-.72-.23-.31-.36-.66-.38-1.06h1.13c.03.33.19.6.46.8s.64.31,1.09.31c.42,0,.74-.09.98-.28.24-.18.36-.42.36-.7s-.13-.5-.38-.64c-.26-.14-.65-.28-1.19-.41-.49-.13-.89-.26-1.19-.39-.31-.13-.57-.33-.79-.59-.22-.26-.33-.6-.33-1.03,0-.34.1-.64.3-.92.2-.28.48-.5.85-.67.37-.16.79-.25,1.26-.25.73,0,1.32.18,1.76.55s.69.87.72,1.51h-1.09c-.02-.34-.16-.62-.41-.83s-.59-.31-1.01-.31c-.39,0-.7.08-.94.25-.23.17-.35.39-.35.66,0,.22.07.39.21.53.14.14.32.25.53.34s.51.18.88.28c.47.13.86.25,1.15.38s.55.31.76.56.32.57.33.97c0,.36-.1.68-.3.97-.2.29-.48.51-.85.68-.36.16-.78.25-1.25.25-.5,0-.96-.09-1.36-.26Z"/>
      <path d="M230.54,285.05v3.88c0,.32.07.55.2.68s.37.2.71.2h.8v.92h-.98c-.61,0-1.06-.14-1.37-.42s-.46-.74-.46-1.38v-3.88h-.85v-.9h.85v-1.66h1.09v1.66h1.72v.9h-1.72Z"/>
      <path d="M233.57,285.64c.27-.51.65-.9,1.12-1.18.48-.28,1.01-.42,1.59-.42s1.08.12,1.5.37c.42.25.74.56.95.94v-1.2h1.1v6.58h-1.1v-1.22c-.22.38-.54.7-.97.95-.43.25-.93.38-1.49.38s-1.11-.14-1.58-.43-.84-.69-1.12-1.21c-.27-.52-.41-1.11-.41-1.78s.14-1.26.41-1.77ZM238.43,286.13c-.2-.37-.47-.65-.81-.85-.34-.2-.71-.29-1.12-.29s-.78.1-1.12.29c-.34.19-.6.47-.8.84-.2.37-.3.8-.3,1.3s.1.94.3,1.31c.2.37.47.66.8.85.34.2.71.29,1.12.29s.78-.1,1.12-.29c.34-.2.61-.48.81-.85s.3-.81.3-1.3-.1-.93-.3-1.3Z"/>
      <path d="M245.89,284.41c.43.25.75.56.95.94v-1.2h1.1v6.72c0,.6-.13,1.13-.38,1.6s-.62.83-1.1,1.1c-.48.26-1.03.4-1.66.4-.86,0-1.58-.2-2.16-.61s-.92-.96-1.02-1.67h1.08c.12.4.37.72.74.97s.83.37,1.36.37c.6,0,1.09-.19,1.47-.56s.57-.9.57-1.58v-1.38c-.22.38-.54.7-.96.96-.42.26-.92.38-1.49.38s-1.11-.14-1.59-.43c-.48-.29-.85-.69-1.12-1.21-.27-.52-.41-1.11-.41-1.78s.14-1.26.41-1.77c.27-.51.65-.9,1.12-1.18.48-.28,1.01-.42,1.59-.42s1.07.12,1.49.37ZM246.55,286.13c-.2-.37-.47-.65-.81-.85-.34-.2-.71-.29-1.12-.29s-.78.1-1.12.29c-.34.19-.6.47-.8.84-.2.37-.3.8-.3,1.3s.1.94.3,1.31.47.66.8.85c.34.2.71.29,1.12.29s.78-.1,1.12-.29c.34-.2.61-.48.81-.85.2-.37.3-.81.3-1.3s-.1-.93-.3-1.3Z"/>
      <path d="M251.71,284.34c.36-.21.79-.31,1.3-.31v1.13h-.29c-1.22,0-1.84.66-1.84,1.99v3.58h-1.09v-6.58h1.09v1.07c.19-.38.47-.67.82-.88Z"/>
      <path d="M254.27,285.64c.27-.51.65-.9,1.12-1.18.48-.28,1.01-.42,1.59-.42s1.08.12,1.5.37.74.56.95.94v-1.2h1.1v6.58h-1.1v-1.22c-.22.38-.54.7-.97.95-.43.25-.93.38-1.49.38s-1.11-.14-1.58-.43c-.47-.29-.84-.69-1.12-1.21-.27-.52-.41-1.11-.41-1.78s.14-1.26.41-1.77ZM259.13,286.13c-.2-.37-.47-.65-.81-.85-.34-.2-.71-.29-1.12-.29s-.78.1-1.12.29c-.34.19-.6.47-.8.84-.2.37-.3.8-.3,1.3s.1.94.3,1.31.47.66.8.85c.34.2.71.29,1.12.29s.78-.1,1.12-.29c.34-.2.61-.48.81-.85.2-.37.3-.81.3-1.3s-.1-.93-.3-1.3Z"/>
      <path d="M271.66,284.35c.4.21.72.53.95.95.23.42.35.94.35,1.55v3.88h-1.08v-3.72c0-.66-.16-1.16-.49-1.51-.32-.35-.76-.52-1.31-.52s-1.02.18-1.36.55c-.34.36-.5.89-.5,1.58v3.62h-1.08v-3.72c0-.66-.16-1.16-.49-1.51-.32-.35-.76-.52-1.31-.52s-1.02.18-1.36.55-.5.89-.5,1.58v3.62h-1.09v-6.58h1.09v.95c.22-.34.51-.61.87-.79.36-.18.77-.28,1.21-.28.55,0,1.04.12,1.46.37.42.25.74.61.95,1.09.18-.46.49-.82.91-1.08.42-.26.9-.38,1.42-.38s.97.11,1.37.32Z"/>
    </g>
  </g>
  <g>
    <rect class="cls-5" x="288.26" y="264.52" width="45.35" height="6.54"/>
    <g>
      <path d="M297.01,282.35v.89h-2.28v7.48h-1.09v-7.48h-2.29v-.89h5.66Z"/>
      <path d="M307.11,284.14l-2.05,6.58h-1.13l-1.58-5.22-1.58,5.22h-1.13l-2.06-6.58h1.12l1.51,5.52,1.63-5.52h1.12l1.6,5.53,1.49-5.53h1.08Z"/>
      <path d="M308.23,282.85c-.14-.14-.22-.32-.22-.53s.07-.38.22-.53c.14-.14.32-.22.53-.22s.37.07.51.22c.14.14.21.32.21.53s-.07.38-.21.53c-.14.14-.31.22-.51.22s-.38-.07-.53-.22ZM309.28,284.14v6.58h-1.09v-6.58h1.09Z"/>
      <path d="M312.48,285.04v3.88c0,.32.07.55.2.68s.37.2.71.2h.8v.92h-.98c-.61,0-1.06-.14-1.37-.42s-.46-.74-.46-1.38v-3.88h-.85v-.9h.85v-1.66h1.09v1.66h1.72v.9h-1.72Z"/>
      <path d="M316.84,285.04v3.88c0,.32.07.55.2.68s.37.2.71.2h.8v.92h-.98c-.61,0-1.06-.14-1.37-.42s-.46-.74-.46-1.38v-3.88h-.85v-.9h.85v-1.66h1.09v1.66h1.72v.9h-1.72Z"/>
      <path d="M325.84,287.83h-5.26c.04.65.26,1.15.67,1.52.4.36.89.55,1.47.55.47,0,.87-.11,1.18-.33.32-.22.54-.51.67-.88h1.18c-.18.63-.53,1.15-1.06,1.54-.53.4-1.18.59-1.97.59-.62,0-1.18-.14-1.67-.42-.49-.28-.88-.68-1.16-1.19-.28-.52-.42-1.11-.42-1.79s.14-1.28.41-1.79c.27-.51.65-.91,1.15-1.18.49-.28,1.06-.41,1.7-.41s1.18.14,1.66.41c.48.27.85.65,1.11,1.12.26.48.39,1.01.39,1.61,0,.21-.01.43-.04.66ZM324.48,285.87c-.18-.3-.43-.53-.75-.68-.32-.16-.67-.23-1.05-.23-.55,0-1.02.18-1.41.53-.39.35-.61.84-.67,1.46h4.15c0-.42-.09-.77-.28-1.07Z"/>
      <path d="M329.23,284.33c.36-.21.79-.31,1.3-.31v1.13h-.29c-1.22,0-1.84.66-1.84,1.99v3.58h-1.09v-6.58h1.09v1.07c.19-.38.47-.67.82-.88Z"/>
    </g>
  </g>
  <g>
    <path d="M40.23,18.17c-.71,0-1.24.27-1.6.82s-.52,1.45-.52,2.71c.18-.42.49-.74.92-.98.43-.24.91-.35,1.43-.35.82,0,1.48.26,1.97.77.49.51.74,1.22.74,2.12,0,.54-.11,1.03-.32,1.46-.21.43-.53.78-.96,1.03-.43.26-.95.38-1.55.38-.82,0-1.47-.18-1.93-.55-.46-.37-.79-.88-.97-1.52-.18-.65-.28-1.45-.28-2.4,0-2.94,1.02-4.4,3.07-4.4.78,0,1.4.21,1.85.64s.71.96.79,1.61h-1.01c-.18-.89-.72-1.33-1.64-1.33ZM39.27,21.5c-.3.14-.55.35-.74.64-.19.28-.28.63-.28,1.04,0,.61.18,1.1.53,1.48s.86.57,1.51.57c.56,0,1.01-.17,1.34-.52.33-.35.5-.82.5-1.41,0-.62-.16-1.11-.48-1.47-.32-.36-.79-.53-1.4-.53-.34,0-.67.07-.97.21Z"/>
    <path d="M45.33,18.47c.45-.77,1.23-1.16,2.35-1.16s1.89.39,2.34,1.16c.45.77.67,1.85.67,3.22s-.22,2.49-.67,3.26c-.45.78-1.23,1.16-2.34,1.16s-1.9-.39-2.35-1.16c-.45-.78-.67-1.86-.67-3.26s.22-2.45.67-3.22ZM49.48,19.92c-.09-.48-.28-.87-.56-1.17-.28-.3-.69-.44-1.23-.44s-.96.15-1.24.44-.47.69-.56,1.17c-.09.48-.14,1.07-.14,1.77s.05,1.32.14,1.81c.09.49.28.88.56,1.18.28.3.7.44,1.24.44s.95-.15,1.23-.44c.28-.3.47-.69.56-1.18.09-.49.14-1.09.14-1.81s-.05-1.29-.14-1.77Z"/>
  </g>
  <g>
    <path d="M42.62,60.27h-4.21v2.74c.18-.26.46-.47.82-.63.36-.16.75-.25,1.16-.25.66,0,1.2.14,1.62.41s.71.63.89,1.07c.18.44.27.9.27,1.39,0,.58-.11,1.09-.32,1.55-.22.46-.55.82-.99,1.08-.44.26-.99.4-1.65.4-.84,0-1.52-.22-2.04-.65-.52-.43-.84-1.01-.95-1.73h1.07c.1.46.32.81.66,1.07s.76.38,1.27.38c.63,0,1.11-.19,1.43-.57.32-.38.48-.88.48-1.51s-.16-1.11-.48-1.45c-.32-.34-.79-.51-1.42-.51-.42,0-.79.1-1.11.31s-.55.48-.69.83h-1.03v-4.9h5.22v.96Z"/>
    <path d="M45.29,60.35c.45-.77,1.23-1.16,2.35-1.16s1.89.39,2.34,1.16c.45.77.67,1.85.67,3.22s-.22,2.49-.67,3.26c-.45.78-1.23,1.16-2.34,1.16s-1.9-.39-2.35-1.16c-.45-.78-.67-1.86-.67-3.26s.22-2.45.67-3.22ZM49.44,61.8c-.09-.48-.28-.87-.56-1.17-.28-.3-.69-.44-1.23-.44s-.96.15-1.24.44-.47.69-.56,1.17c-.09.48-.14,1.07-.14,1.77s.05,1.32.14,1.81c.09.49.28.88.56,1.18.28.3.7.44,1.24.44s.95-.15,1.23-.44c.28-.3.47-.69.56-1.18.09-.49.14-1.09.14-1.81s-.05-1.29-.14-1.77Z"/>
  </g>
  <g>
    <path d="M35.75,105.32v-.83l4.21-5.83h1.31v5.71h1.2v.95h-1.2v1.93h-1.08v-1.93h-4.44ZM40.24,99.8l-3.23,4.57h3.23v-4.57Z"/>
    <path d="M44.23,99.6c.45-.77,1.23-1.16,2.35-1.16s1.89.39,2.34,1.16c.45.77.67,1.85.67,3.22s-.22,2.49-.67,3.26c-.45.78-1.23,1.16-2.34,1.16s-1.9-.39-2.35-1.16c-.45-.78-.67-1.86-.67-3.26s.22-2.45.67-3.22ZM48.38,101.06c-.09-.48-.28-.87-.56-1.17-.28-.3-.69-.44-1.23-.44s-.96.15-1.24.44-.47.69-.56,1.17c-.09.48-.14,1.07-.14,1.77s.05,1.32.14,1.81c.09.49.28.88.56,1.18.28.3.7.44,1.24.44s.95-.15,1.23-.44c.28-.3.47-.69.56-1.18.09-.49.14-1.09.14-1.81s-.05-1.29-.14-1.77Z"/>
  </g>
  <g>
    <path d="M38.29,141.1c.51-.42,1.18-.62,1.99-.62.54,0,1.01.1,1.41.29s.7.46.9.8.31.72.31,1.14c0,.5-.14.92-.43,1.28s-.65.59-1.11.7v.06c.52.13.93.38,1.24.76.3.38.46.87.46,1.48,0,.46-.1.87-.31,1.23-.21.36-.52.65-.94.86s-.92.31-1.5.31c-.85,0-1.54-.22-2.09-.67-.54-.44-.85-1.07-.91-1.89h1.06c.06.48.25.87.59,1.18.34.3.78.46,1.34.46s.99-.15,1.28-.44.44-.67.44-1.13c0-.6-.2-1.03-.6-1.3-.4-.26-1-.4-1.81-.4h-.28v-.91h.29c.74,0,1.29-.13,1.67-.37.38-.24.56-.6.56-1.1,0-.42-.14-.76-.41-1.02-.28-.26-.67-.38-1.18-.38s-.9.13-1.2.38c-.3.26-.48.6-.54,1.03h-1.07c.06-.74.34-1.31.85-1.73Z"/>
    <path d="M45.2,141.67c.45-.77,1.23-1.16,2.35-1.16s1.89.39,2.34,1.16c.45.77.67,1.85.67,3.22s-.22,2.49-.67,3.26c-.45.78-1.23,1.16-2.34,1.16s-1.9-.39-2.35-1.16c-.45-.78-.67-1.86-.67-3.26s.22-2.45.67-3.22ZM49.35,143.12c-.09-.48-.28-.87-.56-1.17-.28-.3-.69-.44-1.23-.44s-.96.15-1.24.44-.47.69-.56,1.17c-.09.48-.14,1.07-.14,1.77s.05,1.32.14,1.81c.09.49.28.88.56,1.18.28.3.7.44,1.24.44s.95-.15,1.23-.44c.28-.3.47-.69.56-1.18.09-.49.14-1.09.14-1.81s-.05-1.29-.14-1.77Z"/>
  </g>
  <g>
    <path d="M39.29,188.54c.58-.52,1.06-1.07,1.46-1.64.4-.57.59-1.13.59-1.69,0-.52-.13-.93-.38-1.23s-.66-.45-1.22-.45-.97.17-1.27.51c-.3.34-.46.79-.49,1.36h-1.06c.03-.9.3-1.59.82-2.08.51-.49,1.17-.73,1.98-.73s1.48.23,1.96.68c.48.46.73,1.08.73,1.88,0,.66-.2,1.31-.59,1.94s-.85,1.18-1.35,1.66-1.15,1.03-1.93,1.66h4.13v.91h-5.77v-.78c1.02-.82,1.81-1.49,2.39-2.01Z"/>
    <path d="M44.61,183.78c.45-.77,1.23-1.16,2.35-1.16s1.89.39,2.34,1.16c.45.77.67,1.85.67,3.22s-.22,2.49-.67,3.26c-.45.78-1.23,1.16-2.34,1.16s-1.9-.39-2.35-1.16c-.45-.78-.67-1.86-.67-3.26s.22-2.45.67-3.22ZM48.75,185.23c-.09-.48-.28-.87-.56-1.17-.28-.3-.69-.44-1.23-.44s-.96.15-1.24.44-.47.69-.56,1.17c-.09.48-.14,1.07-.14,1.77s.05,1.32.14,1.81c.09.49.28.88.56,1.18.28.3.7.44,1.24.44s.95-.15,1.23-.44c.28-.3.47-.69.56-1.18.09-.49.14-1.09.14-1.81s-.05-1.29-.14-1.77Z"/>
  </g>
  <g>
    <path d="M39.31,225.77v-1h2.26v8.68h-1.1v-7.68h-1.15Z"/>
    <path d="M44.11,225.8c.45-.77,1.23-1.16,2.35-1.16s1.89.39,2.34,1.16c.45.77.67,1.85.67,3.22s-.22,2.49-.67,3.26c-.45.78-1.23,1.16-2.34,1.16s-1.9-.39-2.35-1.16c-.45-.78-.67-1.86-.67-3.26s.22-2.45.67-3.22ZM48.25,227.26c-.09-.48-.28-.87-.56-1.17-.28-.3-.69-.44-1.23-.44s-.96.15-1.24.44-.47.69-.56,1.17c-.09.48-.14,1.07-.14,1.77s.05,1.32.14,1.81c.09.49.28.88.56,1.18.28.3.7.44,1.24.44s.95-.15,1.23-.44c.28-.3.47-.69.56-1.18.09-.49.14-1.09.14-1.81s-.05-1.29-.14-1.77Z"/>
  </g>
  <path d="M45.47,267.83c.45-.77,1.23-1.16,2.35-1.16s1.89.39,2.34,1.16c.45.77.67,1.85.67,3.22s-.22,2.49-.67,3.26c-.45.78-1.23,1.16-2.34,1.16s-1.9-.39-2.35-1.16c-.45-.78-.67-1.86-.67-3.26s.22-2.45.67-3.22ZM49.62,269.28c-.09-.48-.28-.87-.56-1.17-.28-.3-.69-.44-1.23-.44s-.96.15-1.24.44-.47.69-.56,1.17c-.09.48-.14,1.07-.14,1.77s.05,1.32.14,1.81c.09.49.28.88.56,1.18.28.3.7.44,1.24.44s.95-.15,1.23-.44c.28-.3.47-.69.56-1.18.09-.49.14-1.09.14-1.81s-.05-1.29-.14-1.77Z"/>
  <g>
    <path d="M7.27,192.1v3.65l1.86.67v1.15l-8.32-3.02v-1.26l8.32-3.01v1.15l-1.86.67ZM6.38,192.41l-4.22,1.51,4.22,1.51v-3.02Z"/>
    <path d="M3.16,183.81c.48-.5,1.18-.74,2.09-.74h3.88v1.08h-3.72c-.66,0-1.16.16-1.51.49s-.52.78-.52,1.34.18,1.03.54,1.37c.36.34.88.51,1.57.51h3.64v1.09H2.56v-1.09h.94c-.34-.22-.6-.51-.78-.88-.18-.37-.28-.78-.28-1.23,0-.8.24-1.45.73-1.94Z"/>
    <path d="M8.12,178.83l-5.57-2.04v-1.16l6.58,2.58v1.27l-6.58,2.58v-1.18l5.57-2.05Z"/>
    <path d="M4.05,174.54c-.51-.27-.9-.65-1.18-1.12-.28-.48-.42-1.01-.42-1.59s.12-1.08.37-1.5.56-.74.94-.95h-1.2v-1.1h6.58v1.1h-1.22c.38.22.7.54.95.97.25.43.38.93.38,1.49s-.14,1.11-.43,1.58c-.29.47-.69.84-1.21,1.12-.52.27-1.11.41-1.78.41s-1.26-.14-1.77-.41ZM4.54,169.68c-.37.2-.65.47-.85.81s-.29.71-.29,1.12.1.78.29,1.12c.19.34.47.6.84.8.37.2.8.3,1.3.3s.94-.1,1.31-.3c.37-.2.66-.47.85-.8.2-.34.29-.71.29-1.12s-.1-.78-.29-1.12c-.2-.34-.48-.61-.85-.81-.37-.2-.81-.3-1.3-.3s-.93.1-1.3.3ZM1.49,172.82c-.12.12-.27.19-.44.19s-.33-.06-.45-.19c-.12-.12-.19-.27-.19-.45s.06-.31.19-.44.27-.19.45-.19.32.06.44.19.18.27.18.44-.06.33-.18.45ZM1.49,170.87c-.12.12-.27.18-.44.18s-.33-.06-.45-.18-.19-.27-.19-.44.06-.33.19-.45.27-.19.45-.19.32.06.44.19.18.27.18.45-.06.32-.18.44Z"/>
    <path d="M3.16,161.28c.48-.5,1.18-.74,2.09-.74h3.88v1.08h-3.72c-.66,0-1.16.16-1.51.49s-.52.78-.52,1.34.18,1.03.54,1.37c.36.34.88.51,1.57.51h3.64v1.09H2.56v-1.09h.94c-.34-.22-.6-.51-.78-.88-.18-.37-.28-.78-.28-1.23,0-.8.24-1.45.73-1.94Z"/>
    <path d="M4.05,158.75c-.51-.27-.9-.65-1.18-1.12-.28-.48-.42-1.01-.42-1.6,0-.51.12-.99.35-1.43.24-.44.55-.78.93-1.01H.25v-1.1h8.88v1.1h-1.24c.39.22.71.54.97.96s.38.92.38,1.49-.14,1.11-.43,1.59c-.29.48-.69.85-1.21,1.12-.52.27-1.11.41-1.78.41s-1.26-.14-1.77-.41ZM4.54,153.89c-.37.2-.65.47-.85.81s-.29.71-.29,1.12.1.78.29,1.12c.19.34.47.6.84.8.37.2.8.3,1.3.3s.94-.1,1.31-.3c.37-.2.66-.47.85-.8.2-.34.29-.71.29-1.12s-.1-.78-.29-1.12c-.2-.34-.48-.61-.85-.81-.37-.2-.81-.3-1.3-.3s-.93.1-1.3.3Z"/>
    <path d="M4.05,150.64c-.51-.27-.9-.65-1.18-1.12-.28-.48-.42-1.01-.42-1.59s.12-1.08.37-1.5.56-.74.94-.95h-1.2v-1.1h6.58v1.1h-1.22c.38.22.7.54.95.97.25.43.38.93.38,1.49s-.14,1.11-.43,1.58c-.29.47-.69.84-1.21,1.12-.52.27-1.11.41-1.78.41s-1.26-.14-1.77-.41ZM4.54,145.78c-.37.2-.65.47-.85.81s-.29.71-.29,1.12.1.78.29,1.12c.19.34.47.6.84.8.37.2.8.3,1.3.3s.94-.1,1.31-.3c.37-.2.66-.47.85-.8.2-.34.29-.71.29-1.12s-.1-.78-.29-1.12c-.2-.34-.48-.61-.85-.81-.37-.2-.81-.3-1.3-.3s-.93.1-1.3.3Z"/>
    <path d="M2.75,140.61c-.21-.36-.31-.79-.31-1.3h1.13v.29c0,1.22.66,1.84,1.99,1.84h3.58v1.09H2.56v-1.09h1.07c-.38-.19-.67-.47-.88-.82Z"/>
    <path d="M6.25,132.09v5.26c.65-.04,1.15-.26,1.52-.67.36-.4.55-.89.55-1.47,0-.47-.11-.87-.33-1.18-.22-.32-.51-.54-.88-.67v-1.18c.63.18,1.15.53,1.54,1.06.4.53.59,1.18.59,1.97,0,.62-.14,1.18-.42,1.67-.28.49-.68.88-1.19,1.16-.52.28-1.11.42-1.79.42s-1.28-.14-1.79-.41c-.51-.27-.91-.65-1.18-1.15-.28-.49-.41-1.06-.41-1.7s.14-1.18.41-1.66c.27-.48.65-.85,1.12-1.11s1.01-.39,1.61-.39c.21,0,.43.01.66.04ZM4.29,133.46c-.3.18-.53.43-.68.75-.16.32-.23.67-.23,1.05,0,.55.18,1.02.53,1.41.35.39.84.61,1.46.67v-4.15c-.42,0-.77.09-1.07.28Z"/>
    <path d="M1.27,127.37c-.14.14-.32.22-.53.22s-.38-.07-.53-.22-.22-.32-.22-.53.07-.37.22-.51.32-.21.53-.21.38.07.53.21.22.31.22.51-.07.38-.22.53ZM2.56,126.32h6.58v1.09H2.56v-1.09Z"/>
    <path d="M2.75,111.97c.21-.4.53-.72.95-.95.42-.23.94-.35,1.55-.35h3.88v1.08h-3.72c-.66,0-1.16.16-1.51.49-.35.32-.52.76-.52,1.31s.18,1.02.55,1.36c.36.34.89.5,1.58.5h3.62v1.08h-3.72c-.66,0-1.16.16-1.51.49-.35.32-.52.76-.52,1.31s.18,1.02.55,1.36c.36.34.89.5,1.58.5h3.62v1.09H2.56v-1.09h.95c-.34-.22-.61-.51-.79-.87s-.28-.77-.28-1.21c0-.55.12-1.04.37-1.46.25-.42.61-.74,1.09-.95-.46-.18-.82-.49-1.08-.91-.26-.42-.38-.9-.38-1.42s.11-.97.32-1.37Z"/>
    <path d="M1.27,108.85c-.14.14-.32.22-.53.22s-.38-.07-.53-.22-.22-.32-.22-.53.07-.37.22-.51.32-.21.53-.21.38.07.53.21.22.31.22.51-.07.38-.22.53ZM2.56,107.8h6.58v1.09H2.56v-1.09Z"/>
    <path d="M.25,104.85h8.88v1.09H.25v-1.09Z"/>
    <path d="M10.56,101.86c.58,0,1.01.15,1.28.44.27.3.41.73.41,1.3v.64h-.92v-.46c0-.3-.06-.52-.18-.64-.12-.12-.32-.19-.61-.19H2.56v-1.09h8ZM1.27,102.92c-.14.14-.32.21-.53.21s-.38-.07-.53-.21c-.14-.14-.22-.31-.22-.52s.07-.38.22-.52c.14-.14.32-.21.53-.21s.38.07.53.21c.14.14.22.31.22.52s-.07.38-.22.52Z"/>
    <path d="M8.82,98.82c-.28.5-.68.89-1.19,1.18-.52.28-1.11.43-1.79.43s-1.27-.15-1.78-.44-.91-.69-1.19-1.19c-.28-.5-.41-1.07-.41-1.69s.14-1.19.41-1.69.67-.9,1.18-1.19c.51-.29,1.11-.44,1.79-.44s1.28.15,1.79.45c.52.3.91.71,1.19,1.22.28.51.42,1.08.42,1.7s-.14,1.17-.42,1.67ZM8,96.04c-.18-.34-.46-.62-.83-.83-.37-.21-.82-.32-1.34-.32s-.98.1-1.34.31c-.37.21-.64.48-.82.82-.18.34-.27.7-.27,1.09s.09.77.27,1.1c.18.33.45.6.82.8.37.2.82.3,1.34.3s.99-.1,1.36-.29c.37-.2.64-.46.82-.79.18-.33.27-.69.27-1.08s-.09-.76-.28-1.1Z"/>
    <path d="M3.16,87.18c.48-.5,1.18-.74,2.09-.74h3.88v1.08h-3.72c-.66,0-1.16.16-1.51.49s-.52.78-.52,1.34.18,1.03.54,1.37c.36.34.88.51,1.57.51h3.64v1.09H2.56v-1.09h.94c-.34-.22-.6-.51-.78-.88-.18-.37-.28-.78-.28-1.23,0-.8.24-1.45.73-1.94Z"/>
    <path d="M6.25,78.69v5.26c.65-.04,1.15-.26,1.52-.67.36-.4.55-.89.55-1.47,0-.47-.11-.87-.33-1.18-.22-.32-.51-.54-.88-.67v-1.18c.63.18,1.15.53,1.54,1.06.4.53.59,1.18.59,1.97,0,.62-.14,1.18-.42,1.67-.28.49-.68.88-1.19,1.16-.52.28-1.11.42-1.79.42s-1.28-.14-1.79-.41c-.51-.27-.91-.65-1.18-1.15-.28-.49-.41-1.06-.41-1.7s.14-1.18.41-1.66c.27-.48.65-.85,1.12-1.11s1.01-.39,1.61-.39c.21,0,.43.01.66.04ZM4.29,80.06c-.3.18-.53.43-.68.75-.16.32-.23.67-.23,1.05,0,.55.18,1.02.53,1.41.35.39.84.61,1.46.67v-4.15c-.42,0-.77.09-1.07.28Z"/>
    <path d="M2.75,75.3c-.21-.36-.31-.79-.31-1.3h1.13v.29c0,1.22.66,1.84,1.99,1.84h3.58v1.09H2.56v-1.09h1.07c-.38-.19-.67-.47-.88-.82Z"/>
  </g>
  <g>
    <path d="M281.23,188.61c-.71,0-1.24.27-1.6.82-.35.55-.52,1.45-.52,2.71.18-.42.49-.74.92-.98.43-.24.91-.35,1.43-.35.82,0,1.48.26,1.97.77.49.51.74,1.22.74,2.12,0,.54-.11,1.03-.32,1.46-.21.43-.53.78-.96,1.03-.43.26-.95.38-1.55.38-.82,0-1.47-.18-1.93-.55-.46-.37-.79-.88-.97-1.52-.18-.65-.28-1.45-.28-2.4,0-2.94,1.02-4.4,3.07-4.4.78,0,1.4.21,1.85.64s.71.96.79,1.61h-1.01c-.18-.89-.72-1.33-1.64-1.33ZM280.27,191.94c-.3.14-.55.35-.74.64-.19.28-.28.63-.28,1.04,0,.61.18,1.1.53,1.48.35.38.86.57,1.51.57.56,0,1.01-.17,1.34-.52.33-.35.5-.82.5-1.41,0-.62-.16-1.11-.48-1.47-.32-.36-.79-.53-1.4-.53-.34,0-.67.07-.97.21Z"/>
    <path d="M286.96,195.05l-1.34,3.23h-.73l.88-3.23h1.2Z"/>
    <path d="M293.57,188.83h-4.21v2.74c.18-.26.46-.47.82-.63s.75-.25,1.16-.25c.66,0,1.2.14,1.62.41s.71.63.89,1.07c.18.44.27.9.27,1.39,0,.58-.11,1.09-.32,1.55s-.55.82-.99,1.08c-.44.26-.99.4-1.65.4-.84,0-1.52-.22-2.04-.65-.52-.43-.84-1.01-.95-1.73h1.07c.1.46.32.81.66,1.07.34.26.76.38,1.27.38.63,0,1.11-.19,1.43-.57.32-.38.48-.88.48-1.51s-.16-1.11-.48-1.45c-.32-.34-.79-.51-1.42-.51-.42,0-.79.1-1.11.31-.32.2-.55.48-.69.83h-1.03v-4.9h5.22v.96Z"/>
    <path d="M308.23,190.18c.4.21.72.53.95.95.23.42.35.94.35,1.55v3.88h-1.08v-3.72c0-.66-.16-1.16-.49-1.51-.32-.35-.76-.52-1.31-.52s-1.02.18-1.36.55-.5.89-.5,1.58v3.62h-1.08v-3.72c0-.66-.16-1.16-.49-1.51-.32-.35-.76-.52-1.31-.52s-1.02.18-1.36.55c-.34.36-.5.89-.5,1.58v3.62h-1.09v-6.58h1.09v.95c.22-.34.51-.61.87-.79s.77-.28,1.21-.28c.55,0,1.04.12,1.46.37s.74.61.95,1.09c.18-.46.49-.82.91-1.08.42-.26.9-.38,1.42-.38s.97.11,1.37.32Z"/>
    <path d="M311.35,188.7c-.14-.14-.22-.32-.22-.53s.07-.38.22-.53.32-.22.53-.22.37.07.51.22.21.32.21.53-.07.38-.21.53c-.14.14-.31.22-.51.22s-.38-.07-.53-.22ZM312.41,189.98v6.58h-1.09v-6.58h1.09Z"/>
    <path d="M315.36,187.68v8.88h-1.09v-8.88h1.09Z"/>
    <path d="M318.35,197.99c0,.58-.15,1.01-.44,1.28-.3.27-.73.41-1.3.41h-.64v-.92h.46c.3,0,.52-.06.64-.18.12-.12.19-.32.19-.61v-7.98h1.09v8ZM317.28,188.7c-.14-.14-.21-.32-.21-.53s.07-.38.21-.53c.14-.14.31-.22.52-.22s.38.07.52.22c.14.14.21.32.21.53s-.07.38-.21.53c-.14.14-.31.22-.52.22s-.38-.07-.52-.22Z"/>
    <path d="M321.39,196.25c-.5-.28-.89-.68-1.18-1.19-.28-.52-.43-1.11-.43-1.79s.15-1.27.44-1.78.69-.91,1.19-1.19c.5-.28,1.07-.41,1.69-.41s1.19.14,1.69.41c.5.28.9.67,1.19,1.18s.44,1.11.44,1.79-.15,1.28-.45,1.79c-.3.52-.71.91-1.22,1.19-.51.28-1.08.42-1.7.42s-1.17-.14-1.67-.42ZM324.17,195.43c.34-.18.62-.46.83-.83.21-.37.32-.82.32-1.34s-.1-.98-.31-1.34c-.21-.37-.48-.64-.82-.82-.34-.18-.7-.27-1.09-.27s-.77.09-1.1.27c-.33.18-.6.45-.8.82-.2.37-.3.82-.3,1.34s.1.99.29,1.36c.2.37.46.64.79.82s.69.27,1.08.27.76-.09,1.1-.28Z"/>
    <path d="M333.02,190.59c.5.48.74,1.18.74,2.09v3.88h-1.08v-3.72c0-.66-.16-1.16-.49-1.51-.33-.35-.78-.52-1.34-.52s-1.03.18-1.37.54c-.34.36-.51.88-.51,1.57v3.64h-1.09v-6.58h1.09v.94c.22-.34.51-.6.88-.78.37-.18.78-.28,1.23-.28.8,0,1.45.24,1.94.73Z"/>
    <path d="M341.52,193.68h-5.26c.04.65.26,1.15.67,1.52.4.36.89.55,1.47.55.47,0,.87-.11,1.18-.33.32-.22.54-.51.67-.88h1.18c-.18.63-.53,1.15-1.06,1.54-.53.4-1.18.59-1.97.59-.62,0-1.18-.14-1.67-.42-.49-.28-.88-.68-1.16-1.19-.28-.52-.42-1.11-.42-1.79s.14-1.28.41-1.79c.27-.51.65-.91,1.15-1.18.49-.28,1.06-.41,1.7-.41s1.18.14,1.66.41c.48.27.85.65,1.11,1.12.26.48.39,1.01.39,1.61,0,.21-.01.43-.04.66ZM340.15,191.72c-.18-.3-.43-.53-.75-.68-.32-.16-.67-.23-1.05-.23-.55,0-1.02.18-1.41.53-.39.35-.61.84-.67,1.46h4.15c0-.42-.09-.77-.28-1.07Z"/>
    <path d="M344.91,190.18c.36-.21.79-.31,1.3-.31v1.13h-.29c-1.22,0-1.84.66-1.84,1.99v3.58h-1.09v-6.58h1.09v1.07c.19-.38.47-.67.82-.88Z"/>
  </g>
  <g>
    <polyline class="cls-2" points="244.54 229.92 260.54 201.43 362.63 201.43"/>
    <g>
      <path class="cls-4" d="M247.93,231.58c-1.02,1.81-3.31,2.45-5.12,1.44s-2.45-3.31-1.44-5.12c1.02-1.81,3.31-2.45,5.12-1.44s2.45,3.31,1.44,5.12Z"/>
      <path class="cls-3" d="M248.36,231.82c1.15-2.05.42-4.65-1.63-5.8-2.05-1.15-4.65-.42-5.8,1.63-1.15,2.05-.42,4.65,1.63,5.8,2.05,1.15,4.65.42,5.8-1.63,1.15-2.05-1.15,2.05,0,0ZM241.81,228.14c.88-1.57,2.87-2.13,4.44-1.25s2.13,2.87,1.25,4.44c-.88,1.57-2.87,2.13-4.44,1.25-1.57-.88-2.13-2.87-1.25-4.44.88-1.57-.88,1.57,0,0Z"/>
    </g>
  </g>
</svg>