<?xml version="1.0" encoding="UTF-8"?>
<svg id="Lager_1" data-name="Lager 1" xmlns="http://www.w3.org/2000/svg" viewBox="0 0 516.26 352.07">
  <defs>
    <style>
      .cls-1 {
        opacity: .6;
        stroke: #000;
      }

      .cls-1, .cls-2 {
        fill: none;
        stroke-miterlimit: 10;
      }

      .cls-3 {
        fill: #833ab4;
      }

      .cls-4 {
        fill: #fff;
      }

      .cls-2 {
        stroke: #833ab4;
      }

      .cls-5 {
        fill: #c1c1c1;
      }
    </style>
  </defs>
  <polyline class="cls-1" points="60.77 58.1 60.77 329.67 377.16 329.67"/>
  <g>
    <rect class="cls-5" x="79.58" y="111.17" width="45.35" height="218.03"/>
    <g>
      <path d="M78.22,340.55v.89h-3.64v2.82h2.95v.89h-2.95v3.77h-1.09v-8.36h4.73Z"/>
      <path d="M79.54,343.84c.27-.51.65-.9,1.12-1.18s1.01-.42,1.59-.42,1.08.12,1.5.37c.42.25.74.56.95.94v-1.2h1.1v6.58h-1.1v-1.22c-.22.38-.54.7-.97.95-.43.25-.93.38-1.49.38s-1.11-.14-1.58-.43c-.47-.29-.84-.69-1.12-1.21-.27-.52-.41-1.11-.41-1.78s.14-1.26.41-1.77ZM84.4,344.32c-.2-.37-.47-.65-.81-.85-.34-.2-.71-.29-1.12-.29s-.78.1-1.12.29c-.34.19-.6.47-.8.84-.2.37-.3.8-.3,1.3s.1.94.3,1.31c.2.37.47.66.8.85.34.2.71.29,1.12.29s.78-.1,1.12-.29c.34-.2.61-.48.81-.85.2-.37.3-.81.3-1.3s-.1-.93-.3-1.3Z"/>
      <path d="M87.65,343.84c.27-.51.65-.9,1.13-1.18.48-.28,1.04-.42,1.66-.42.81,0,1.47.2,2,.59.52.39.87.94,1.04,1.63h-1.18c-.11-.4-.33-.72-.65-.95-.32-.23-.73-.35-1.21-.35-.62,0-1.13.21-1.51.64-.38.43-.58,1.03-.58,1.82s.19,1.4.58,1.84c.38.43.89.65,1.51.65.48,0,.88-.11,1.2-.34.32-.22.54-.54.66-.96h1.18c-.18.67-.53,1.21-1.06,1.61-.53.4-1.19.61-1.98.61-.62,0-1.18-.14-1.66-.42-.48-.28-.86-.68-1.13-1.19s-.41-1.11-.41-1.8.14-1.27.41-1.78Z"/>
      <path d="M100.9,346.04h-5.26c.04.65.26,1.15.67,1.52.4.36.89.55,1.47.55.47,0,.87-.11,1.18-.33.32-.22.54-.51.67-.88h1.18c-.18.63-.53,1.15-1.06,1.54-.53.4-1.18.59-1.97.59-.62,0-1.18-.14-1.67-.42-.49-.28-.88-.68-1.16-1.19-.28-.52-.42-1.11-.42-1.79s.14-1.28.41-1.79.65-.91,1.15-1.18c.49-.28,1.06-.41,1.7-.41s1.18.14,1.66.41c.48.27.85.65,1.11,1.12.26.48.39,1.01.39,1.61,0,.21-.01.43-.04.66ZM99.53,344.08c-.18-.3-.43-.53-.75-.68-.32-.16-.67-.23-1.05-.23-.55,0-1.02.18-1.41.53-.39.35-.61.84-.67,1.46h4.15c0-.42-.09-.77-.28-1.07Z"/>
      <path d="M104.45,342.61c.43-.25.92-.37,1.48-.37.59,0,1.12.14,1.6.42.47.28.84.67,1.12,1.18s.41,1.1.41,1.77-.14,1.26-.41,1.78c-.27.52-.65.92-1.12,1.21s-1.01.43-1.59.43-1.07-.12-1.49-.37c-.43-.25-.75-.56-.97-.95v1.21h-1.09v-8.88h1.09v3.53c.22-.39.55-.71.98-.96ZM107.63,344.31c-.2-.37-.47-.65-.81-.84-.34-.19-.71-.29-1.12-.29s-.77.1-1.11.29c-.34.2-.61.48-.82.85-.2.37-.31.8-.31,1.29s.1.93.31,1.3c.2.37.48.66.82.85.34.2.71.29,1.11.29s.78-.1,1.12-.29c.34-.2.61-.48.81-.85.2-.37.3-.81.3-1.31s-.1-.93-.3-1.3Z"/>
      <path d="M111.68,348.61c-.5-.28-.89-.68-1.18-1.19-.28-.52-.43-1.11-.43-1.79s.15-1.27.44-1.78.69-.91,1.19-1.19c.5-.28,1.07-.41,1.69-.41s1.19.14,1.69.41c.5.28.9.67,1.19,1.18s.44,1.11.44,1.79-.15,1.28-.45,1.79c-.3.52-.71.91-1.22,1.19-.51.28-1.08.42-1.7.42s-1.17-.14-1.67-.42ZM114.46,347.79c.34-.18.62-.46.83-.83s.32-.82.32-1.34-.1-.98-.31-1.34c-.21-.37-.48-.64-.82-.82-.34-.18-.7-.27-1.09-.27s-.77.09-1.1.27c-.33.18-.6.45-.8.82-.2.37-.3.82-.3,1.34s.1.99.29,1.36c.2.37.46.64.79.82s.69.27,1.08.27.76-.09,1.1-.28Z"/>
      <path d="M119.36,348.61c-.5-.28-.89-.68-1.18-1.19-.28-.52-.43-1.11-.43-1.79s.15-1.27.44-1.78.69-.91,1.19-1.19c.5-.28,1.07-.41,1.69-.41s1.19.14,1.69.41c.5.28.9.67,1.19,1.18s.44,1.11.44,1.79-.15,1.28-.45,1.79c-.3.52-.71.91-1.22,1.19-.51.28-1.08.42-1.7.42s-1.17-.14-1.67-.42ZM122.14,347.79c.34-.18.62-.46.83-.83s.32-.82.32-1.34-.1-.98-.31-1.34c-.21-.37-.48-.64-.82-.82-.34-.18-.7-.27-1.09-.27s-.77.09-1.1.27c-.33.18-.6.45-.8.82-.2.37-.3.82-.3,1.34s.1.99.29,1.36c.2.37.46.64.79.82s.69.27,1.08.27.76-.09,1.1-.28Z"/>
      <path d="M129.52,348.92l-2.58-2.9v2.9h-1.09v-8.88h1.09v5.22l2.53-2.92h1.52l-3.1,3.28,3.11,3.3h-1.49Z"/>
    </g>
  </g>
  <g>
    <rect class="cls-5" x="151.7" y="189.96" width="45.35" height="139.14"/>
    <g>
      <path d="M156.31,340.46l-2.72,5.21v3.16h-1.09v-3.16l-2.74-5.21h1.21l2.06,4.24,2.06-4.24h1.21Z"/>
      <path d="M158.66,348.51c-.5-.28-.89-.68-1.18-1.19-.28-.52-.43-1.11-.43-1.79s.15-1.27.44-1.78.69-.91,1.19-1.19c.5-.28,1.07-.41,1.69-.41s1.19.14,1.69.41c.5.28.9.67,1.19,1.18s.44,1.11.44,1.79-.15,1.28-.45,1.79c-.3.52-.71.91-1.22,1.19-.51.28-1.08.42-1.7.42s-1.17-.14-1.67-.42ZM161.44,347.69c.34-.18.62-.46.83-.83s.32-.82.32-1.34-.1-.98-.31-1.34c-.21-.37-.48-.64-.82-.82-.34-.18-.7-.27-1.09-.27s-.77.09-1.1.27c-.33.18-.6.45-.8.82-.2.37-.3.82-.3,1.34s.1.99.29,1.36c.2.37.46.64.79.82s.69.27,1.08.27.76-.09,1.1-.28Z"/>
      <path d="M170.98,342.25v6.58h-1.09v-.97c-.21.34-.5.6-.87.79-.37.19-.78.28-1.23.28-.51,0-.97-.11-1.38-.32-.41-.21-.73-.53-.97-.95-.24-.42-.35-.94-.35-1.55v-3.85h1.08v3.71c0,.65.16,1.15.49,1.49s.78.52,1.34.52,1.04-.18,1.38-.54c.34-.36.5-.88.5-1.57v-3.61h1.09Z"/>
      <path d="M174.16,343.15v3.88c0,.32.07.55.2.68.14.13.37.2.71.2h.8v.92h-.98c-.61,0-1.06-.14-1.37-.42-.3-.28-.46-.74-.46-1.38v-3.88h-.85v-.9h.85v-1.66h1.09v1.66h1.72v.9h-1.72Z"/>
      <path d="M183.03,342.25v6.58h-1.09v-.97c-.21.34-.5.6-.87.79-.37.19-.78.28-1.23.28-.51,0-.97-.11-1.38-.32-.41-.21-.73-.53-.97-.95-.24-.42-.35-.94-.35-1.55v-3.85h1.08v3.71c0,.65.16,1.15.49,1.49s.78.52,1.34.52,1.04-.18,1.38-.54c.34-.36.5-.88.5-1.57v-3.61h1.09Z"/>
      <path d="M186.95,342.51c.43-.25.92-.37,1.48-.37.59,0,1.12.14,1.6.42.47.28.84.67,1.12,1.18s.41,1.1.41,1.77-.14,1.26-.41,1.78c-.27.52-.65.92-1.12,1.21s-1.01.43-1.59.43-1.07-.12-1.49-.37c-.43-.25-.75-.56-.97-.95v1.21h-1.09v-8.88h1.09v3.53c.22-.39.55-.71.98-.96ZM190.13,344.21c-.2-.37-.47-.65-.81-.84-.34-.19-.71-.29-1.12-.29s-.77.1-1.11.29c-.34.2-.61.48-.82.85-.2.37-.31.8-.31,1.29s.1.93.31,1.3c.2.37.48.66.82.85.34.2.71.29,1.11.29s.78-.1,1.12-.29c.34-.2.61-.48.81-.85.2-.37.3-.81.3-1.31s-.1-.93-.3-1.3Z"/>
      <path d="M198.95,345.94h-5.26c.04.65.26,1.15.67,1.52.4.36.89.55,1.47.55.47,0,.87-.11,1.18-.33.32-.22.54-.51.67-.88h1.18c-.18.63-.53,1.15-1.06,1.54-.53.4-1.18.59-1.97.59-.62,0-1.18-.14-1.67-.42-.49-.28-.88-.68-1.16-1.19-.28-.52-.42-1.11-.42-1.79s.14-1.28.41-1.79.65-.91,1.15-1.18c.49-.28,1.06-.41,1.7-.41s1.18.14,1.66.41c.48.27.85.65,1.11,1.12.26.48.39,1.01.39,1.61,0,.21-.01.43-.04.66ZM197.58,343.98c-.18-.3-.43-.53-.75-.68-.32-.16-.67-.23-1.05-.23-.55,0-1.02.18-1.41.53-.39.35-.61.84-.67,1.46h4.15c0-.42-.09-.77-.28-1.07Z"/>
    </g>
  </g>
  <g>
    <rect class="cls-3" x="219.89" y="302.22" width="45.35" height="26.82"/>
    <g>
      <path d="M213.4,340.46v8.36h-1.09v-8.36h1.09Z"/>
      <path d="M220.41,342.86c.5.48.74,1.18.74,2.09v3.88h-1.08v-3.72c0-.66-.16-1.16-.49-1.51-.33-.35-.78-.52-1.34-.52s-1.03.18-1.37.54-.51.88-.51,1.57v3.64h-1.09v-6.58h1.09v.94c.22-.34.51-.6.88-.78s.78-.28,1.23-.28c.8,0,1.45.24,1.94.73Z"/>
      <path d="M223.91,348.68c-.4-.17-.72-.41-.95-.72-.23-.31-.36-.66-.38-1.06h1.13c.03.33.19.6.46.8s.64.31,1.09.31c.42,0,.74-.09.98-.28.24-.18.36-.42.36-.7s-.13-.5-.38-.64c-.26-.14-.65-.28-1.19-.41-.49-.13-.89-.26-1.19-.39-.31-.13-.57-.33-.79-.59-.22-.26-.33-.6-.33-1.03,0-.34.1-.64.3-.92.2-.28.48-.5.85-.67.37-.16.79-.25,1.26-.25.73,0,1.32.18,1.76.55s.69.87.72,1.51h-1.09c-.02-.34-.16-.62-.41-.83s-.59-.31-1.01-.31c-.39,0-.7.08-.94.25-.23.17-.35.39-.35.66,0,.22.07.39.21.53.14.14.32.25.53.34s.51.18.88.28c.47.13.86.25,1.15.38s.55.31.76.56.32.57.33.97c0,.36-.1.68-.3.97-.2.29-.48.51-.85.68-.36.16-.78.25-1.25.25-.5,0-.96-.09-1.36-.26Z"/>
      <path d="M230.54,343.15v3.88c0,.32.07.55.2.68s.37.2.71.2h.8v.92h-.98c-.61,0-1.06-.14-1.37-.42s-.46-.74-.46-1.38v-3.88h-.85v-.9h.85v-1.66h1.09v1.66h1.72v.9h-1.72Z"/>
      <path d="M233.57,343.74c.27-.51.65-.9,1.12-1.18.48-.28,1.01-.42,1.59-.42s1.08.12,1.5.37c.42.25.74.56.95.94v-1.2h1.1v6.58h-1.1v-1.22c-.22.38-.54.7-.97.95-.43.25-.93.38-1.49.38s-1.11-.14-1.58-.43-.84-.69-1.12-1.21c-.27-.52-.41-1.11-.41-1.78s.14-1.26.41-1.77ZM238.43,344.23c-.2-.37-.47-.65-.81-.85-.34-.2-.71-.29-1.12-.29s-.78.1-1.12.29c-.34.19-.6.47-.8.84-.2.37-.3.8-.3,1.3s.1.94.3,1.31c.2.37.47.66.8.85.34.2.71.29,1.12.29s.78-.1,1.12-.29c.34-.2.61-.48.81-.85s.3-.81.3-1.3-.1-.93-.3-1.3Z"/>
      <path d="M245.89,342.51c.43.25.75.56.95.94v-1.2h1.1v6.72c0,.6-.13,1.13-.38,1.6s-.62.83-1.1,1.1c-.48.26-1.03.4-1.66.4-.86,0-1.58-.2-2.16-.61s-.92-.96-1.02-1.67h1.08c.12.4.37.72.74.97s.83.37,1.36.37c.6,0,1.09-.19,1.47-.56s.57-.9.57-1.58v-1.38c-.22.38-.54.7-.96.96-.42.26-.92.38-1.49.38s-1.11-.14-1.59-.43c-.48-.29-.85-.69-1.12-1.21-.27-.52-.41-1.11-.41-1.78s.14-1.26.41-1.77c.27-.51.65-.9,1.12-1.18.48-.28,1.01-.42,1.59-.42s1.07.12,1.49.37ZM246.55,344.23c-.2-.37-.47-.65-.81-.85-.34-.2-.71-.29-1.12-.29s-.78.1-1.12.29c-.34.19-.6.47-.8.84-.2.37-.3.8-.3,1.3s.1.94.3,1.31.47.66.8.85c.34.2.71.29,1.12.29s.78-.1,1.12-.29c.34-.2.61-.48.81-.85.2-.37.3-.81.3-1.3s-.1-.93-.3-1.3Z"/>
      <path d="M251.71,342.44c.36-.21.79-.31,1.3-.31v1.13h-.29c-1.22,0-1.84.66-1.84,1.99v3.58h-1.09v-6.58h1.09v1.07c.19-.38.47-.67.82-.88Z"/>
      <path d="M254.27,343.74c.27-.51.65-.9,1.12-1.18.48-.28,1.01-.42,1.59-.42s1.08.12,1.5.37.74.56.95.94v-1.2h1.1v6.58h-1.1v-1.22c-.22.38-.54.7-.97.95-.43.25-.93.38-1.49.38s-1.11-.14-1.58-.43c-.47-.29-.84-.69-1.12-1.21-.27-.52-.41-1.11-.41-1.78s.14-1.26.41-1.77ZM259.13,344.23c-.2-.37-.47-.65-.81-.85-.34-.2-.71-.29-1.12-.29s-.78.1-1.12.29c-.34.19-.6.47-.8.84-.2.37-.3.8-.3,1.3s.1.94.3,1.31.47.66.8.85c.34.2.71.29,1.12.29s.78-.1,1.12-.29c.34-.2.61-.48.81-.85.2-.37.3-.81.3-1.3s-.1-.93-.3-1.3Z"/>
      <path d="M271.66,342.45c.4.21.72.53.95.95.23.42.35.94.35,1.55v3.88h-1.08v-3.72c0-.66-.16-1.16-.49-1.51-.32-.35-.76-.52-1.31-.52s-1.02.18-1.36.55c-.34.36-.5.89-.5,1.58v3.62h-1.08v-3.72c0-.66-.16-1.16-.49-1.51-.32-.35-.76-.52-1.31-.52s-1.02.18-1.36.55-.5.89-.5,1.58v3.62h-1.09v-6.58h1.09v.95c.22-.34.51-.61.87-.79.36-.18.77-.28,1.21-.28.55,0,1.04.12,1.46.37.42.25.74.61.95,1.09.18-.46.49-.82.91-1.08.42-.26.9-.38,1.42-.38s.97.11,1.37.32Z"/>
    </g>
  </g>
  <g>
    <rect class="cls-5" x="288.26" y="322.63" width="45.35" height="6.49"/>
    <g>
      <path d="M297.01,340.45v.89h-2.28v7.48h-1.09v-7.48h-2.29v-.89h5.66Z"/>
      <path d="M307.11,342.24l-2.05,6.58h-1.13l-1.58-5.22-1.58,5.22h-1.13l-2.06-6.58h1.12l1.51,5.52,1.63-5.52h1.12l1.6,5.53,1.49-5.53h1.08Z"/>
      <path d="M308.23,340.95c-.14-.14-.22-.32-.22-.53s.07-.38.22-.53c.14-.14.32-.22.53-.22s.37.07.51.22c.14.14.21.32.21.53s-.07.38-.21.53c-.14.14-.31.22-.51.22s-.38-.07-.53-.22ZM309.28,342.24v6.58h-1.09v-6.58h1.09Z"/>
      <path d="M312.48,343.14v3.88c0,.32.07.55.2.68s.37.2.71.2h.8v.92h-.98c-.61,0-1.06-.14-1.37-.42s-.46-.74-.46-1.38v-3.88h-.85v-.9h.85v-1.66h1.09v1.66h1.72v.9h-1.72Z"/>
      <path d="M316.84,343.14v3.88c0,.32.07.55.2.68s.37.2.71.2h.8v.92h-.98c-.61,0-1.06-.14-1.37-.42s-.46-.74-.46-1.38v-3.88h-.85v-.9h.85v-1.66h1.09v1.66h1.72v.9h-1.72Z"/>
      <path d="M325.84,345.94h-5.26c.04.65.26,1.15.67,1.52.4.36.89.55,1.47.55.47,0,.87-.11,1.18-.33.32-.22.54-.51.67-.88h1.18c-.18.63-.53,1.15-1.06,1.54-.53.4-1.18.59-1.97.59-.62,0-1.18-.14-1.67-.42-.49-.28-.88-.68-1.16-1.19-.28-.52-.42-1.11-.42-1.79s.14-1.28.41-1.79c.27-.51.65-.91,1.15-1.18.49-.28,1.06-.41,1.7-.41s1.18.14,1.66.41c.48.27.85.65,1.11,1.12.26.48.39,1.01.39,1.61,0,.21-.01.43-.04.66ZM324.48,343.97c-.18-.3-.43-.53-.75-.68-.32-.16-.67-.23-1.05-.23-.55,0-1.02.18-1.41.53-.39.35-.61.84-.67,1.46h4.15c0-.42-.09-.77-.28-1.07Z"/>
      <path d="M329.23,342.43c.36-.21.79-.31,1.3-.31v1.13h-.29c-1.22,0-1.84.66-1.84,1.99v3.58h-1.09v-6.58h1.09v1.07c.19-.38.47-.67.82-.88Z"/>
    </g>
  </g>
  <g>
    <path d="M40.23,76.28c-.71,0-1.24.27-1.6.82s-.52,1.45-.52,2.71c.18-.42.49-.74.92-.98.43-.24.91-.35,1.43-.35.82,0,1.48.26,1.97.77.49.51.74,1.22.74,2.12,0,.54-.11,1.03-.32,1.46-.21.43-.53.78-.96,1.03-.43.26-.95.38-1.55.38-.82,0-1.47-.18-1.93-.55-.46-.37-.79-.88-.97-1.52-.18-.65-.28-1.45-.28-2.4,0-2.94,1.02-4.4,3.07-4.4.78,0,1.4.21,1.85.64s.71.96.79,1.61h-1.01c-.18-.89-.72-1.33-1.64-1.33ZM39.27,79.61c-.3.14-.55.35-.74.64-.19.28-.28.63-.28,1.04,0,.61.18,1.1.53,1.48s.86.57,1.51.57c.56,0,1.01-.17,1.34-.52.33-.35.5-.82.5-1.41,0-.62-.16-1.11-.48-1.47-.32-.36-.79-.53-1.4-.53-.34,0-.67.07-.97.21Z"/>
    <path d="M45.33,76.57c.45-.77,1.23-1.16,2.35-1.16s1.89.39,2.34,1.16c.45.77.67,1.85.67,3.22s-.22,2.49-.67,3.26c-.45.78-1.23,1.16-2.34,1.16s-1.9-.39-2.35-1.16c-.45-.78-.67-1.86-.67-3.26s.22-2.45.67-3.22ZM49.48,78.02c-.09-.48-.28-.87-.56-1.17-.28-.3-.69-.44-1.23-.44s-.96.15-1.24.44-.47.69-.56,1.17c-.09.48-.14,1.07-.14,1.77s.05,1.32.14,1.81c.09.49.28.88.56,1.18.28.3.7.44,1.24.44s.95-.15,1.23-.44c.28-.3.47-.69.56-1.18.09-.49.14-1.09.14-1.81s-.05-1.29-.14-1.77Z"/>
  </g>
  <g>
    <path d="M42.62,118.37h-4.21v2.74c.18-.26.46-.47.82-.63.36-.16.75-.25,1.16-.25.66,0,1.2.14,1.62.41s.71.63.89,1.07c.18.44.27.9.27,1.39,0,.58-.11,1.09-.32,1.55-.22.46-.55.82-.99,1.08-.44.26-.99.4-1.65.4-.84,0-1.52-.22-2.04-.65-.52-.43-.84-1.01-.95-1.73h1.07c.1.46.32.81.66,1.07s.76.38,1.27.38c.63,0,1.11-.19,1.43-.57.32-.38.48-.88.48-1.51s-.16-1.11-.48-1.45c-.32-.34-.79-.51-1.42-.51-.42,0-.79.1-1.11.31s-.55.48-.69.83h-1.03v-4.9h5.22v.96Z"/>
    <path d="M45.29,118.45c.45-.77,1.23-1.16,2.35-1.16s1.89.39,2.34,1.16c.45.77.67,1.85.67,3.22s-.22,2.49-.67,3.26c-.45.78-1.23,1.16-2.34,1.16s-1.9-.39-2.35-1.16c-.45-.78-.67-1.86-.67-3.26s.22-2.45.67-3.22ZM49.44,119.9c-.09-.48-.28-.87-.56-1.17-.28-.3-.69-.44-1.23-.44s-.96.15-1.24.44-.47.69-.56,1.17c-.09.48-.14,1.07-.14,1.77s.05,1.32.14,1.81c.09.49.28.88.56,1.18.28.3.7.44,1.24.44s.95-.15,1.23-.44c.28-.3.47-.69.56-1.18.09-.49.14-1.09.14-1.81s-.05-1.29-.14-1.77Z"/>
  </g>
  <g>
    <path d="M35.75,163.42v-.83l4.21-5.83h1.31v5.71h1.2v.95h-1.2v1.93h-1.08v-1.93h-4.44ZM40.24,157.9l-3.23,4.57h3.23v-4.57Z"/>
    <path d="M44.23,157.71c.45-.77,1.23-1.16,2.35-1.16s1.89.39,2.34,1.16c.45.77.67,1.85.67,3.22s-.22,2.49-.67,3.26c-.45.78-1.23,1.16-2.34,1.16s-1.9-.39-2.35-1.16c-.45-.78-.67-1.86-.67-3.26s.22-2.45.67-3.22ZM48.38,159.16c-.09-.48-.28-.87-.56-1.17-.28-.3-.69-.44-1.23-.44s-.96.15-1.24.44-.47.69-.56,1.17c-.09.48-.14,1.07-.14,1.77s.05,1.32.14,1.81c.09.49.28.88.56,1.18.28.3.7.44,1.24.44s.95-.15,1.23-.44c.28-.3.47-.69.56-1.18.09-.49.14-1.09.14-1.81s-.05-1.29-.14-1.77Z"/>
  </g>
  <g>
    <path d="M38.29,199.2c.51-.42,1.18-.62,1.99-.62.54,0,1.01.1,1.41.29s.7.46.9.8.31.72.31,1.14c0,.5-.14.92-.43,1.28s-.65.59-1.11.7v.06c.52.13.93.38,1.24.76.3.38.46.87.46,1.48,0,.46-.1.87-.31,1.23-.21.36-.52.65-.94.86s-.92.31-1.5.31c-.85,0-1.54-.22-2.09-.67-.54-.44-.85-1.07-.91-1.89h1.06c.06.48.25.87.59,1.18.34.3.78.46,1.34.46s.99-.15,1.28-.44.44-.67.44-1.13c0-.6-.2-1.03-.6-1.3-.4-.26-1-.4-1.81-.4h-.28v-.91h.29c.74,0,1.29-.13,1.67-.37.38-.24.56-.6.56-1.1,0-.42-.14-.76-.41-1.02-.28-.26-.67-.38-1.18-.38s-.9.13-1.2.38c-.3.26-.48.6-.54,1.03h-1.07c.06-.74.34-1.31.85-1.73Z"/>
    <path d="M45.2,199.77c.45-.77,1.23-1.16,2.35-1.16s1.89.39,2.34,1.16c.45.77.67,1.85.67,3.22s-.22,2.49-.67,3.26c-.45.78-1.23,1.16-2.34,1.16s-1.9-.39-2.35-1.16c-.45-.78-.67-1.86-.67-3.26s.22-2.45.67-3.22ZM49.35,201.22c-.09-.48-.28-.87-.56-1.17-.28-.3-.69-.44-1.23-.44s-.96.15-1.24.44-.47.69-.56,1.17c-.09.48-.14,1.07-.14,1.77s.05,1.32.14,1.81c.09.49.28.88.56,1.18.28.3.7.44,1.24.44s.95-.15,1.23-.44c.28-.3.47-.69.56-1.18.09-.49.14-1.09.14-1.81s-.05-1.29-.14-1.77Z"/>
  </g>
  <g>
    <path d="M39.29,246.64c.58-.52,1.06-1.07,1.46-1.64.4-.57.59-1.13.59-1.69,0-.52-.13-.93-.38-1.23s-.66-.45-1.22-.45-.97.17-1.27.51c-.3.34-.46.79-.49,1.36h-1.06c.03-.9.3-1.59.82-2.08.51-.49,1.17-.73,1.98-.73s1.48.23,1.96.68c.48.46.73,1.08.73,1.88,0,.66-.2,1.31-.59,1.94s-.85,1.18-1.35,1.66-1.15,1.03-1.93,1.66h4.13v.91h-5.77v-.78c1.02-.82,1.81-1.49,2.39-2.01Z"/>
    <path d="M44.61,241.88c.45-.77,1.23-1.16,2.35-1.16s1.89.39,2.34,1.16c.45.77.67,1.85.67,3.22s-.22,2.49-.67,3.26c-.45.78-1.23,1.16-2.34,1.16s-1.9-.39-2.35-1.16c-.45-.78-.67-1.86-.67-3.26s.22-2.45.67-3.22ZM48.75,243.33c-.09-.48-.28-.87-.56-1.17-.28-.3-.69-.44-1.23-.44s-.96.15-1.24.44-.47.69-.56,1.17c-.09.48-.14,1.07-.14,1.77s.05,1.32.14,1.81c.09.49.28.88.56,1.18.28.3.7.44,1.24.44s.95-.15,1.23-.44c.28-.3.47-.69.56-1.18.09-.49.14-1.09.14-1.81s-.05-1.29-.14-1.77Z"/>
  </g>
  <g>
    <path d="M39.31,283.88v-1h2.26v8.68h-1.1v-7.68h-1.15Z"/>
    <path d="M44.11,283.9c.45-.77,1.23-1.16,2.35-1.16s1.89.39,2.34,1.16c.45.77.67,1.85.67,3.22s-.22,2.49-.67,3.26c-.45.78-1.23,1.16-2.34,1.16s-1.9-.39-2.35-1.16c-.45-.78-.67-1.86-.67-3.26s.22-2.45.67-3.22ZM48.25,285.36c-.09-.48-.28-.87-.56-1.17-.28-.3-.69-.44-1.23-.44s-.96.15-1.24.44-.47.69-.56,1.17c-.09.48-.14,1.07-.14,1.77s.05,1.32.14,1.81c.09.49.28.88.56,1.18.28.3.7.44,1.24.44s.95-.15,1.23-.44c.28-.3.47-.69.56-1.18.09-.49.14-1.09.14-1.81s-.05-1.29-.14-1.77Z"/>
  </g>
  <path d="M45.47,325.93c.45-.77,1.23-1.16,2.35-1.16s1.89.39,2.34,1.16c.45.77.67,1.85.67,3.22s-.22,2.49-.67,3.26c-.45.78-1.23,1.16-2.34,1.16s-1.9-.39-2.35-1.16c-.45-.78-.67-1.86-.67-3.26s.22-2.45.67-3.22ZM49.62,327.38c-.09-.48-.28-.87-.56-1.17-.28-.3-.69-.44-1.23-.44s-.96.15-1.24.44-.47.69-.56,1.17c-.09.48-.14,1.07-.14,1.77s.05,1.32.14,1.81c.09.49.28.88.56,1.18.28.3.7.44,1.24.44s.95-.15,1.23-.44c.28-.3.47-.69.56-1.18.09-.49.14-1.09.14-1.81s-.05-1.29-.14-1.77Z"/>
  <g>
    <path d="M15.23,13.22h-6.07l-1.12,3.09h-1.92L11.16,2.48h2.1l5.01,13.84h-1.92l-1.12-3.09ZM14.71,11.74l-2.52-7.03-2.52,7.03h5.03Z"/>
    <path d="M29.03,6.38c.83.81,1.24,1.97,1.24,3.48v6.45h-1.8v-6.19c0-1.09-.27-1.93-.82-2.51s-1.29-.87-2.24-.87-1.72.3-2.29.9c-.57.6-.85,1.47-.85,2.62v6.05h-1.82V5.37h1.82v1.56c.36-.56.85-.99,1.47-1.3.62-.31,1.3-.46,2.05-.46,1.33,0,2.41.4,3.23,1.21Z"/>
    <path d="M35.45,6.87v6.45c0,.53.11.91.34,1.13s.62.33,1.18.33h1.34v1.54h-1.64c-1.01,0-1.77-.23-2.28-.7s-.76-1.23-.76-2.3v-6.45h-1.42v-1.5h1.42v-2.76h1.82v2.76h2.85v1.5h-2.85Z"/>
    <path d="M40.5,7.86c.45-.84,1.07-1.5,1.87-1.97.79-.47,1.67-.7,2.65-.7s1.79.21,2.5.62c.7.41,1.23.93,1.58,1.56v-2h1.84v10.94h-1.84v-2.04c-.36.64-.9,1.17-1.61,1.59s-1.54.63-2.49.63-1.85-.24-2.63-.72c-.79-.48-1.4-1.15-1.86-2.02-.45-.86-.68-1.85-.68-2.95s.23-2.1.68-2.94ZM48.59,8.66c-.33-.61-.78-1.08-1.35-1.41-.57-.33-1.19-.49-1.87-.49s-1.3.16-1.86.48-1.01.79-1.34,1.4-.5,1.33-.5,2.16.17,1.57.5,2.19.78,1.09,1.34,1.42,1.18.49,1.86.49,1.3-.16,1.87-.49c.57-.33,1.01-.8,1.35-1.42.33-.62.5-1.34.5-2.17s-.17-1.54-.5-2.16Z"/>
    <path d="M55.82,1.54v14.77h-1.82V1.54h1.82Z"/>
    <path d="M68.83,11.52h-8.74c.07,1.08.44,1.92,1.11,2.53s1.49.91,2.45.91c.79,0,1.44-.18,1.97-.55.53-.37.89-.86,1.11-1.47h1.96c-.29,1.05-.88,1.91-1.76,2.57s-1.97.99-3.27.99c-1.04,0-1.97-.23-2.79-.7-.82-.47-1.46-1.13-1.93-1.99-.47-.86-.7-1.85-.7-2.98s.23-2.12.68-2.97c.45-.85,1.09-1.51,1.91-1.97.82-.46,1.76-.69,2.83-.69s1.96.23,2.76.68,1.41,1.08,1.85,1.87c.43.79.65,1.69.65,2.69,0,.35-.02.71-.06,1.1ZM66.56,8.26c-.31-.5-.72-.88-1.25-1.14-.53-.26-1.11-.39-1.75-.39-.92,0-1.7.29-2.35.88-.65.59-1.02,1.4-1.11,2.44h6.91c0-.69-.15-1.29-.46-1.79Z"/>
    <path d="M73.51,6.87v6.45c0,.53.11.91.34,1.13s.62.33,1.18.33h1.34v1.54h-1.64c-1.01,0-1.77-.23-2.28-.7s-.76-1.23-.76-2.3v-6.45h-1.42v-1.5h1.42v-2.76h1.82v2.76h2.85v1.5h-2.85Z"/>
    <path class="cls-3" d="M85.7,2.48v13.84h-1.82V2.48h1.82Z"/>
    <path class="cls-3" d="M97.36,6.38c.83.81,1.24,1.97,1.24,3.48v6.45h-1.8v-6.19c0-1.09-.27-1.93-.82-2.51s-1.29-.87-2.24-.87-1.72.3-2.29.9c-.57.6-.85,1.47-.85,2.62v6.05h-1.82V5.37h1.82v1.56c.36-.56.85-.99,1.47-1.3.62-.31,1.3-.46,2.05-.46,1.33,0,2.41.4,3.23,1.21Z"/>
    <path class="cls-3" d="M103.19,16.06c-.67-.29-1.19-.69-1.58-1.2-.39-.51-.6-1.1-.64-1.77h1.88c.05.55.31.99.77,1.34.46.35,1.06.52,1.81.52.69,0,1.24-.15,1.64-.46.4-.31.6-.69.6-1.16s-.21-.84-.64-1.07c-.43-.23-1.08-.46-1.98-.69-.81-.21-1.47-.43-1.99-.65s-.95-.55-1.32-.98c-.37-.43-.55-1-.55-1.71,0-.56.17-1.07.5-1.54.33-.47.8-.84,1.42-1.11.61-.27,1.31-.41,2.1-.41,1.21,0,2.19.31,2.93.92.74.61,1.14,1.45,1.2,2.52h-1.82c-.04-.57-.27-1.03-.69-1.38-.42-.35-.98-.52-1.69-.52-.65,0-1.17.14-1.56.42-.39.28-.58.65-.58,1.1,0,.36.12.66.35.89s.53.42.88.56c.35.14.84.3,1.47.47.79.21,1.42.42,1.92.63.49.21.91.52,1.27.93.35.41.54.95.55,1.62,0,.6-.17,1.14-.5,1.62-.33.48-.8.86-1.41,1.13-.61.27-1.3.41-2.09.41-.84,0-1.59-.14-2.26-.43Z"/>
    <path class="cls-3" d="M114.21,6.87v6.45c0,.53.11.91.34,1.13s.62.33,1.18.33h1.34v1.54h-1.64c-1.01,0-1.77-.23-2.28-.7s-.76-1.23-.76-2.3v-6.45h-1.42v-1.5h1.42v-2.76h1.82v2.76h2.85v1.5h-2.85Z"/>
    <path class="cls-3" d="M119.26,7.86c.45-.84,1.07-1.5,1.87-1.97.79-.47,1.67-.7,2.65-.7s1.79.21,2.5.62c.7.41,1.23.93,1.58,1.56v-2h1.84v10.94h-1.84v-2.04c-.36.64-.9,1.17-1.61,1.59s-1.54.63-2.49.63-1.85-.24-2.63-.72c-.79-.48-1.4-1.15-1.86-2.02-.45-.86-.68-1.85-.68-2.95s.23-2.1.68-2.94ZM127.35,8.66c-.33-.61-.78-1.08-1.35-1.41-.57-.33-1.19-.49-1.87-.49s-1.3.16-1.86.48-1.01.79-1.34,1.4-.5,1.33-.5,2.16.17,1.57.5,2.19.78,1.09,1.34,1.42,1.18.49,1.86.49,1.3-.16,1.87-.49c.57-.33,1.01-.8,1.35-1.42.33-.62.5-1.34.5-2.17s-.17-1.54-.5-2.16Z"/>
    <path class="cls-3" d="M139.76,5.81c.71.41,1.24.93,1.59,1.56v-2h1.84v11.18c0,1-.21,1.89-.64,2.67-.43.78-1.04,1.39-1.83,1.83s-1.71.66-2.76.66c-1.44,0-2.64-.34-3.59-1.02-.96-.68-1.52-1.6-1.7-2.78h1.8c.2.67.61,1.2,1.24,1.61.63.41,1.38.61,2.26.61,1,0,1.81-.31,2.45-.94s.95-1.5.95-2.64v-2.3c-.36.64-.89,1.17-1.6,1.6-.71.43-1.53.64-2.48.64s-1.85-.24-2.65-.72-1.41-1.15-1.87-2.02c-.45-.86-.68-1.85-.68-2.95s.23-2.1.68-2.94c.45-.84,1.07-1.5,1.87-1.97.79-.47,1.67-.7,2.65-.7s1.77.21,2.49.62ZM140.85,8.66c-.33-.61-.78-1.08-1.35-1.41-.57-.33-1.19-.49-1.87-.49s-1.3.16-1.86.48-1.01.79-1.34,1.4-.5,1.33-.5,2.16.17,1.57.5,2.19.78,1.09,1.34,1.42,1.18.49,1.86.49,1.3-.16,1.87-.49c.57-.33,1.01-.8,1.35-1.42.33-.62.5-1.34.5-2.17s-.17-1.54-.5-2.16Z"/>
    <path class="cls-3" d="M149.44,5.69c.59-.35,1.31-.52,2.17-.52v1.88h-.48c-2.04,0-3.05,1.11-3.05,3.31v5.95h-1.82V5.37h1.82v1.78c.32-.63.78-1.11,1.37-1.46Z"/>
    <path class="cls-3" d="M153.7,7.86c.45-.84,1.07-1.5,1.87-1.97.79-.47,1.67-.7,2.65-.7s1.79.21,2.5.62c.7.41,1.23.93,1.58,1.56v-2h1.84v10.94h-1.84v-2.04c-.36.64-.9,1.17-1.61,1.59s-1.54.63-2.49.63-1.85-.24-2.63-.72c-.79-.48-1.4-1.15-1.86-2.02-.45-.86-.68-1.85-.68-2.95s.23-2.1.68-2.94ZM161.79,8.66c-.33-.61-.78-1.08-1.35-1.41-.57-.33-1.19-.49-1.87-.49s-1.3.16-1.86.48-1.01.79-1.34,1.4-.5,1.33-.5,2.16.17,1.57.5,2.19.78,1.09,1.34,1.42,1.18.49,1.86.49,1.3-.16,1.87-.49c.57-.33,1.01-.8,1.35-1.42.33-.62.5-1.34.5-2.17s-.17-1.54-.5-2.16Z"/>
    <path class="cls-3" d="M182.63,5.7c.67.35,1.19.88,1.58,1.59.39.71.58,1.56.58,2.58v6.45h-1.8v-6.19c0-1.09-.27-1.93-.81-2.51-.54-.58-1.27-.87-2.19-.87s-1.7.3-2.26.91c-.56.61-.84,1.48-.84,2.63v6.03h-1.8v-6.19c0-1.09-.27-1.93-.81-2.51-.54-.58-1.27-.87-2.19-.87s-1.7.3-2.26.91c-.56.61-.84,1.48-.84,2.63v6.03h-1.82V5.37h1.82v1.58c.36-.57.84-1.01,1.45-1.32.61-.31,1.27-.46,2.01-.46.92,0,1.73.21,2.44.62s1.23,1.02,1.58,1.82c.31-.77.81-1.37,1.52-1.8.71-.43,1.49-.64,2.36-.64s1.61.18,2.28.53Z"/>
    <path d="M193.09,7.86c.45-.84,1.07-1.5,1.87-1.97.79-.47,1.67-.7,2.65-.7s1.79.21,2.5.62c.7.41,1.23.93,1.58,1.56v-2h1.84v10.94h-1.84v-2.04c-.36.64-.9,1.17-1.61,1.59s-1.54.63-2.49.63-1.85-.24-2.63-.72c-.79-.48-1.4-1.15-1.86-2.02-.45-.86-.68-1.85-.68-2.95s.23-2.1.68-2.94ZM201.18,8.66c-.33-.61-.78-1.08-1.35-1.41-.57-.33-1.19-.49-1.87-.49s-1.3.16-1.86.48-1.01.79-1.34,1.4-.5,1.33-.5,2.16.17,1.57.5,2.19.78,1.09,1.34,1.42,1.18.49,1.86.49,1.3-.16,1.87-.49c.57-.33,1.01-.8,1.35-1.42.33-.62.5-1.34.5-2.17s-.17-1.54-.5-2.16Z"/>
    <path d="M215.16,6.38c.83.81,1.24,1.97,1.24,3.48v6.45h-1.8v-6.19c0-1.09-.27-1.93-.82-2.51s-1.29-.87-2.24-.87-1.72.3-2.29.9c-.57.6-.85,1.47-.85,2.62v6.05h-1.82V5.37h1.82v1.56c.36-.56.85-.99,1.47-1.3.62-.31,1.3-.46,2.05-.46,1.33,0,2.41.4,3.23,1.21Z"/>
    <path d="M223.44,14.63l3.39-9.26h1.94l-4.29,10.94h-2.12l-4.29-10.94h1.96l3.41,9.26Z"/>
    <path d="M230.57,7.86c.45-.84,1.07-1.5,1.87-1.97.79-.47,1.67-.7,2.65-.7s1.79.21,2.5.62c.7.41,1.23.93,1.58,1.56v-2h1.84v10.94h-1.84v-2.04c-.36.64-.9,1.17-1.61,1.59s-1.54.63-2.49.63-1.85-.24-2.63-.72c-.79-.48-1.4-1.15-1.86-2.02-.45-.86-.68-1.85-.68-2.95s.23-2.1.68-2.94ZM238.65,8.66c-.33-.61-.78-1.08-1.35-1.41-.57-.33-1.19-.49-1.87-.49s-1.3.16-1.86.48-1.01.79-1.34,1.4-.5,1.33-.5,2.16.17,1.57.5,2.19.78,1.09,1.34,1.42,1.18.49,1.86.49,1.3-.16,1.87-.49c.57-.33,1.01-.8,1.35-1.42.33-.62.5-1.34.5-2.17s-.17-1.54-.5-2.16ZM233.43,3.59c-.21-.2-.31-.45-.31-.74s.1-.54.31-.75c.21-.21.46-.31.75-.31s.52.1.73.31c.21.21.31.46.31.75s-.1.54-.31.74c-.21.2-.45.3-.73.3s-.54-.1-.75-.3ZM236.68,3.59c-.2-.2-.3-.45-.3-.74s.1-.54.3-.75c.2-.21.45-.31.74-.31s.54.1.75.31c.21.21.31.46.31.75s-.1.54-.31.74-.46.3-.75.3-.54-.1-.74-.3Z"/>
    <path d="M252.63,6.38c.83.81,1.24,1.97,1.24,3.48v6.45h-1.8v-6.19c0-1.09-.27-1.93-.82-2.51s-1.29-.87-2.24-.87-1.72.3-2.29.9c-.57.6-.85,1.47-.85,2.62v6.05h-1.82V5.37h1.82v1.56c.36-.56.85-.99,1.47-1.3.62-.31,1.3-.46,2.05-.46,1.33,0,2.41.4,3.23,1.21Z"/>
    <path d="M256.84,7.86c.45-.84,1.07-1.5,1.87-1.97.79-.47,1.68-.7,2.67-.7.85,0,1.64.2,2.38.59.73.39,1.29.91,1.68,1.55V1.54h1.84v14.77h-1.84v-2.06c-.36.65-.89,1.19-1.6,1.61s-1.53.63-2.48.63-1.85-.24-2.65-.72-1.41-1.15-1.87-2.02c-.45-.86-.68-1.85-.68-2.95s.23-2.1.68-2.94ZM264.93,8.66c-.33-.61-.78-1.08-1.35-1.41-.57-.33-1.19-.49-1.87-.49s-1.3.16-1.86.48-1.01.79-1.34,1.4-.5,1.33-.5,2.16.17,1.57.5,2.19.78,1.09,1.34,1.42,1.18.49,1.86.49,1.3-.16,1.87-.49c.57-.33,1.01-.8,1.35-1.42.33-.62.5-1.34.5-2.17s-.17-1.54-.5-2.16Z"/>
    <path d="M270.34,7.86c.45-.84,1.07-1.5,1.87-1.97.79-.47,1.67-.7,2.65-.7s1.79.21,2.5.62c.7.41,1.23.93,1.58,1.56v-2h1.84v10.94h-1.84v-2.04c-.36.64-.9,1.17-1.61,1.59s-1.54.63-2.49.63-1.85-.24-2.63-.72c-.79-.48-1.4-1.15-1.86-2.02-.45-.86-.68-1.85-.68-2.95s.23-2.1.68-2.94ZM278.42,8.66c-.33-.61-.78-1.08-1.35-1.41-.57-.33-1.19-.49-1.87-.49s-1.3.16-1.86.48-1.01.79-1.34,1.4-.5,1.33-.5,2.16.17,1.57.5,2.19.78,1.09,1.34,1.42,1.18.49,1.86.49,1.3-.16,1.87-.49c.57-.33,1.01-.8,1.35-1.42.33-.62.5-1.34.5-2.17s-.17-1.54-.5-2.16Z"/>
    <path d="M287.02,5.69c.59-.35,1.31-.52,2.17-.52v1.88h-.48c-2.04,0-3.05,1.11-3.05,3.31v5.95h-1.82V5.37h1.82v1.78c.32-.63.78-1.11,1.37-1.46Z"/>
    <path d="M301.2,11.52h-8.74c.07,1.08.44,1.92,1.11,2.53s1.49.91,2.45.91c.79,0,1.44-.18,1.97-.55.53-.37.89-.86,1.11-1.47h1.96c-.29,1.05-.88,1.91-1.76,2.57s-1.97.99-3.27.99c-1.04,0-1.97-.23-2.79-.7-.82-.47-1.46-1.13-1.93-1.99-.47-.86-.7-1.85-.7-2.98s.23-2.12.68-2.97c.45-.85,1.09-1.51,1.91-1.97.82-.46,1.76-.69,2.83-.69s1.96.23,2.76.68,1.41,1.08,1.85,1.87c.43.79.65,1.69.65,2.69,0,.35-.02.71-.06,1.1ZM298.93,8.26c-.31-.5-.72-.88-1.25-1.14-.53-.26-1.11-.39-1.75-.39-.92,0-1.7.29-2.35.88-.65.59-1.02,1.4-1.11,2.44h6.91c0-.69-.15-1.29-.46-1.79Z"/>
    <path d="M309.05,3.23c-.24-.24-.36-.53-.36-.88s.12-.64.36-.88.53-.36.88-.36.62.12.85.36.35.53.35.88-.12.64-.35.88-.52.36-.85.36-.64-.12-.88-.36ZM310.81,5.37v10.94h-1.82V5.37h1.82Z"/>
    <path d="M327.59,9.76c.42.33.75.75,1,1.24.25.49.37,1.02.37,1.58,0,.71-.18,1.34-.54,1.91s-.88,1.01-1.57,1.34c-.69.33-1.49.49-2.43.49h-5.19V2.4h4.99c.95,0,1.75.16,2.42.47.66.31,1.16.74,1.5,1.27.33.53.5,1.13.5,1.8,0,.83-.22,1.51-.67,2.05-.45.54-1.04.93-1.77,1.17.51.08.97.29,1.39.62ZM321.05,8.41h3.05c.85,0,1.51-.2,1.98-.6.47-.4.7-.95.7-1.66s-.23-1.26-.7-1.66c-.47-.4-1.14-.6-2.02-.6h-3.01v4.51ZM326.38,14.17c.51-.43.76-1.02.76-1.78s-.27-1.38-.8-1.83c-.53-.45-1.24-.67-2.14-.67h-3.15v4.91h3.21c.91,0,1.61-.21,2.12-.64Z"/>
    <path d="M331.47,7.86c.45-.84,1.07-1.5,1.87-1.97.79-.47,1.67-.7,2.65-.7s1.79.21,2.5.62c.7.41,1.23.93,1.58,1.56v-2h1.84v10.94h-1.84v-2.04c-.36.64-.9,1.17-1.61,1.59s-1.54.63-2.49.63-1.85-.24-2.63-.72c-.79-.48-1.4-1.15-1.86-2.02-.45-.86-.68-1.85-.68-2.95s.23-2.1.68-2.94ZM339.56,8.66c-.33-.61-.78-1.08-1.35-1.41-.57-.33-1.19-.49-1.87-.49s-1.3.16-1.86.48-1.01.79-1.34,1.4-.5,1.33-.5,2.16.17,1.57.5,2.19.78,1.09,1.34,1.42,1.18.49,1.86.49,1.3-.16,1.87-.49c.57-.33,1.01-.8,1.35-1.42.33-.62.5-1.34.5-2.17s-.17-1.54-.5-2.16Z"/>
    <path d="M353.53,6.38c.83.81,1.24,1.97,1.24,3.48v6.45h-1.8v-6.19c0-1.09-.27-1.93-.82-2.51s-1.29-.87-2.24-.87-1.72.3-2.29.9c-.57.6-.85,1.47-.85,2.62v6.05h-1.82V5.37h1.82v1.56c.36-.56.85-.99,1.47-1.3.62-.31,1.3-.46,2.05-.46,1.33,0,2.41.4,3.23,1.21Z"/>
    <path d="M364.74,5.81c.71.41,1.24.93,1.59,1.56v-2h1.84v11.18c0,1-.21,1.89-.64,2.67-.43.78-1.04,1.39-1.83,1.83s-1.71.66-2.76.66c-1.44,0-2.64-.34-3.59-1.02-.96-.68-1.52-1.6-1.7-2.78h1.8c.2.67.61,1.2,1.24,1.61.63.41,1.38.61,2.26.61,1,0,1.81-.31,2.45-.94s.95-1.5.95-2.64v-2.3c-.36.64-.89,1.17-1.6,1.6-.71.43-1.53.64-2.48.64s-1.85-.24-2.65-.72-1.41-1.15-1.87-2.02c-.45-.86-.68-1.85-.68-2.95s.23-2.1.68-2.94c.45-.84,1.07-1.5,1.87-1.97.79-.47,1.67-.7,2.65-.7s1.77.21,2.49.62ZM365.83,8.66c-.33-.61-.78-1.08-1.35-1.41-.57-.33-1.19-.49-1.87-.49s-1.3.16-1.86.48-1.01.79-1.34,1.4-.5,1.33-.5,2.16.17,1.57.5,2.19.78,1.09,1.34,1.42,1.18.49,1.86.49,1.3-.16,1.87-.49c.57-.33,1.01-.8,1.35-1.42.33-.62.5-1.34.5-2.17s-.17-1.54-.5-2.16Z"/>
    <path d="M373.06,1.54v14.77h-1.82V1.54h1.82Z"/>
    <path d="M376.15,7.86c.45-.84,1.07-1.5,1.87-1.97.79-.47,1.67-.7,2.65-.7s1.79.21,2.5.62c.7.41,1.23.93,1.58,1.56v-2h1.84v10.94h-1.84v-2.04c-.36.64-.9,1.17-1.61,1.59s-1.54.63-2.49.63-1.85-.24-2.63-.72c-.79-.48-1.4-1.15-1.86-2.02-.45-.86-.68-1.85-.68-2.95s.23-2.1.68-2.94ZM384.24,8.66c-.33-.61-.78-1.08-1.35-1.41-.57-.33-1.19-.49-1.87-.49s-1.3.16-1.86.48-1.01.79-1.34,1.4-.5,1.33-.5,2.16.17,1.57.5,2.19.78,1.09,1.34,1.42,1.18.49,1.86.49,1.3-.16,1.87-.49c.57-.33,1.01-.8,1.35-1.42.33-.62.5-1.34.5-2.17s-.17-1.54-.5-2.16Z"/>
    <path d="M389.65,7.86c.45-.84,1.07-1.5,1.87-1.97.79-.47,1.68-.7,2.67-.7.85,0,1.64.2,2.38.59.73.39,1.29.91,1.68,1.55V1.54h1.84v14.77h-1.84v-2.06c-.36.65-.89,1.19-1.6,1.61s-1.53.63-2.48.63-1.85-.24-2.65-.72-1.41-1.15-1.87-2.02c-.45-.86-.68-1.85-.68-2.95s.23-2.1.68-2.94ZM397.73,8.66c-.33-.61-.78-1.08-1.35-1.41-.57-.33-1.19-.49-1.87-.49s-1.3.16-1.86.48-1.01.79-1.34,1.4-.5,1.33-.5,2.16.17,1.57.5,2.19.78,1.09,1.34,1.42,1.18.49,1.86.49,1.3-.16,1.87-.49c.57-.33,1.01-.8,1.35-1.42.33-.62.5-1.34.5-2.17s-.17-1.54-.5-2.16Z"/>
    <path d="M413.07,11.52h-8.74c.07,1.08.44,1.92,1.11,2.53s1.49.91,2.45.91c.79,0,1.44-.18,1.97-.55.53-.37.89-.86,1.11-1.47h1.96c-.29,1.05-.88,1.91-1.76,2.57s-1.97.99-3.27.99c-1.04,0-1.97-.23-2.79-.7-.82-.47-1.46-1.13-1.93-1.99-.47-.86-.7-1.85-.7-2.98s.23-2.12.68-2.97c.45-.85,1.09-1.51,1.91-1.97.82-.46,1.76-.69,2.83-.69s1.96.23,2.76.68,1.41,1.08,1.85,1.87c.43.79.65,1.69.65,2.69,0,.35-.02.71-.06,1.1ZM410.79,8.26c-.31-.5-.72-.88-1.25-1.14-.53-.26-1.11-.39-1.75-.39-.92,0-1.7.29-2.35.88-.65.59-1.02,1.4-1.11,2.44h6.91c0-.69-.15-1.29-.46-1.79Z"/>
    <path d="M417.14,16.06c-.67-.29-1.19-.69-1.58-1.2-.39-.51-.6-1.1-.64-1.77h1.88c.05.55.31.99.77,1.34.46.35,1.06.52,1.81.52.69,0,1.24-.15,1.64-.46.4-.31.6-.69.6-1.16s-.21-.84-.64-1.07c-.43-.23-1.08-.46-1.98-.69-.81-.21-1.47-.43-1.99-.65s-.95-.55-1.32-.98c-.37-.43-.55-1-.55-1.71,0-.56.17-1.07.5-1.54.33-.47.8-.84,1.42-1.11.61-.27,1.31-.41,2.1-.41,1.21,0,2.19.31,2.93.92.74.61,1.14,1.45,1.2,2.52h-1.82c-.04-.57-.27-1.03-.69-1.38-.42-.35-.98-.52-1.69-.52-.65,0-1.17.14-1.56.42-.39.28-.58.65-.58,1.1,0,.36.12.66.35.89s.53.42.88.56c.35.14.84.3,1.47.47.79.21,1.42.42,1.92.63.49.21.91.52,1.27.93.35.41.54.95.55,1.62,0,.6-.17,1.14-.5,1.62-.33.48-.8.86-1.41,1.13-.61.27-1.3.41-2.09.41-.84,0-1.59-.14-2.26-.43Z"/>
    <path d="M433.61,5.7c.67.35,1.19.88,1.57,1.59.38.71.57,1.56.57,2.58v6.45h-1.8v-6.19c0-1.09-.27-1.93-.82-2.51s-1.29-.87-2.24-.87-1.72.3-2.29.9c-.57.6-.85,1.47-.85,2.62v6.05h-1.82V1.54h1.82v5.39c.36-.56.86-.99,1.49-1.3.63-.31,1.34-.46,2.13-.46.83,0,1.57.18,2.24.53Z"/>
    <path d="M444.05,7.86c.45-.84,1.07-1.5,1.87-1.97.79-.47,1.67-.7,2.65-.7s1.79.21,2.5.62c.7.41,1.23.93,1.58,1.56v-2h1.84v10.94h-1.84v-2.04c-.36.64-.9,1.17-1.61,1.59s-1.54.63-2.49.63-1.85-.24-2.63-.72c-.79-.48-1.4-1.15-1.86-2.02-.45-.86-.68-1.85-.68-2.95s.23-2.1.68-2.94ZM452.14,8.66c-.33-.61-.78-1.08-1.35-1.41-.57-.33-1.19-.49-1.87-.49s-1.3.16-1.86.48-1.01.79-1.34,1.4-.5,1.33-.5,2.16.17,1.57.5,2.19.78,1.09,1.34,1.42,1.18.49,1.86.49,1.3-.16,1.87-.49c.57-.33,1.01-.8,1.35-1.42.33-.62.5-1.34.5-2.17s-.17-1.54-.5-2.16ZM450.81,3.62c-.41.38-.92.57-1.53.57s-1.1-.19-1.52-.58c-.41-.39-.62-.89-.62-1.52s.21-1.13.62-1.52c.41-.39.92-.58,1.52-.58s1.12.19,1.53.57c.41.38.61.89.61,1.53s-.2,1.15-.61,1.53ZM450.05,1.27c-.21-.21-.46-.31-.77-.31s-.56.1-.77.31c-.21.21-.31.48-.31.81s.1.61.31.82.46.32.77.32.56-.11.77-.32c.21-.21.31-.49.31-.82s-.1-.6-.31-.81Z"/>
    <path d="M460.73,5.69c.59-.35,1.31-.52,2.17-.52v1.88h-.48c-2.04,0-3.05,1.11-3.05,3.31v5.95h-1.82V5.37h1.82v1.78c.32-.63.78-1.11,1.37-1.46Z"/>
    <path d="M473.78,11.51c.96-.87,1.77-1.78,2.43-2.74.66-.95.99-1.89.99-2.8,0-.87-.21-1.55-.63-2.05-.42-.5-1.1-.75-2.03-.75s-1.61.28-2.11.85c-.5.57-.77,1.32-.81,2.27h-1.76c.05-1.49.51-2.64,1.36-3.45.85-.81,1.95-1.22,3.29-1.22s2.46.38,3.26,1.14c.8.76,1.21,1.8,1.21,3.13,0,1.1-.33,2.18-.99,3.22s-1.41,1.96-2.25,2.76-1.91,1.71-3.21,2.76h6.87v1.52h-9.6v-1.3c1.69-1.36,3.01-2.47,3.97-3.34Z"/>
    <path d="M482.62,3.58c.75-1.28,2.05-1.93,3.91-1.93s3.15.64,3.89,1.93c.74,1.28,1.12,3.07,1.12,5.36s-.37,4.14-1.12,5.43c-.75,1.29-2.04,1.94-3.89,1.94s-3.17-.65-3.91-1.94c-.75-1.29-1.12-3.1-1.12-5.43s.37-4.08,1.12-5.36ZM489.52,6c-.15-.8-.47-1.45-.94-1.95-.47-.49-1.15-.74-2.05-.74s-1.59.25-2.07.74c-.47.49-.79,1.14-.94,1.95-.15.81-.23,1.79-.23,2.94s.08,2.2.23,3.01c.15.81.47,1.46.94,1.96.47.49,1.16.74,2.07.74s1.57-.25,2.05-.74c.47-.49.79-1.14.94-1.96.15-.81.23-1.82.23-3.01s-.08-2.14-.23-2.94Z"/>
    <path d="M497.8,11.51c.96-.87,1.77-1.78,2.43-2.74.66-.95.99-1.89.99-2.8,0-.87-.21-1.55-.63-2.05-.42-.5-1.1-.75-2.03-.75s-1.61.28-2.11.85c-.5.57-.77,1.32-.81,2.27h-1.76c.05-1.49.51-2.64,1.36-3.45.85-.81,1.95-1.22,3.29-1.22s2.46.38,3.26,1.14c.8.76,1.21,1.8,1.21,3.13,0,1.1-.33,2.18-.99,3.22s-1.41,1.96-2.25,2.76-1.91,1.71-3.21,2.76h6.87v1.52h-9.6v-1.3c1.69-1.36,3.01-2.47,3.97-3.34Z"/>
    <path d="M505.09,13.1v-1.38l7.01-9.7h2.18v9.5h2v1.58h-2v3.21h-1.8v-3.21h-7.39ZM512.55,3.91l-5.37,7.61h5.37V3.91Z"/>
  </g>
  <g>
    <path d="M7.27,250.2v3.65l1.86.67v1.15l-8.32-3.02v-1.26l8.32-3.01v1.15l-1.86.67ZM6.38,250.51l-4.22,1.51,4.22,1.51v-3.02Z"/>
    <path d="M3.16,241.91c.48-.5,1.18-.74,2.09-.74h3.88v1.08h-3.72c-.66,0-1.16.16-1.51.49s-.52.78-.52,1.34.18,1.03.54,1.37c.36.34.88.51,1.57.51h3.64v1.09H2.56v-1.09h.94c-.34-.22-.6-.51-.78-.88-.18-.37-.28-.78-.28-1.23,0-.8.24-1.45.73-1.94Z"/>
    <path d="M8.12,236.93l-5.57-2.04v-1.16l6.58,2.58v1.27l-6.58,2.58v-1.18l5.57-2.05Z"/>
    <path d="M4.05,232.64c-.51-.27-.9-.65-1.18-1.12-.28-.48-.42-1.01-.42-1.59s.12-1.08.37-1.5.56-.74.94-.95h-1.2v-1.1h6.58v1.1h-1.22c.38.22.7.54.95.97.25.43.38.93.38,1.49s-.14,1.11-.43,1.58c-.29.47-.69.84-1.21,1.12-.52.27-1.11.41-1.78.41s-1.26-.14-1.77-.41ZM4.54,227.78c-.37.2-.65.47-.85.81s-.29.71-.29,1.12.1.78.29,1.12c.19.34.47.6.84.8.37.2.8.3,1.3.3s.94-.1,1.31-.3c.37-.2.66-.47.85-.8.2-.34.29-.71.29-1.12s-.1-.78-.29-1.12c-.2-.34-.48-.61-.85-.81-.37-.2-.81-.3-1.3-.3s-.93.1-1.3.3ZM1.49,230.92c-.12.12-.27.19-.44.19s-.33-.06-.45-.19c-.12-.12-.19-.27-.19-.45s.06-.31.19-.44.27-.19.45-.19.32.06.44.19.18.27.18.44-.06.33-.18.45ZM1.49,228.97c-.12.12-.27.18-.44.18s-.33-.06-.45-.18-.19-.27-.19-.44.06-.33.19-.45.27-.19.45-.19.32.06.44.19.18.27.18.45-.06.32-.18.44Z"/>
    <path d="M3.16,219.38c.48-.5,1.18-.74,2.09-.74h3.88v1.08h-3.72c-.66,0-1.16.16-1.51.49s-.52.78-.52,1.34.18,1.03.54,1.37c.36.34.88.51,1.57.51h3.64v1.09H2.56v-1.09h.94c-.34-.22-.6-.51-.78-.88-.18-.37-.28-.78-.28-1.23,0-.8.24-1.45.73-1.94Z"/>
    <path d="M4.05,216.85c-.51-.27-.9-.65-1.18-1.12-.28-.48-.42-1.01-.42-1.6,0-.51.12-.99.35-1.43.24-.44.55-.78.93-1.01H.25v-1.1h8.88v1.1h-1.24c.39.22.71.54.97.96s.38.92.38,1.49-.14,1.11-.43,1.59c-.29.48-.69.85-1.21,1.12-.52.27-1.11.41-1.78.41s-1.26-.14-1.77-.41ZM4.54,211.99c-.37.2-.65.47-.85.81s-.29.71-.29,1.12.1.78.29,1.12c.19.34.47.6.84.8.37.2.8.3,1.3.3s.94-.1,1.31-.3c.37-.2.66-.47.85-.8.2-.34.29-.71.29-1.12s-.1-.78-.29-1.12c-.2-.34-.48-.61-.85-.81-.37-.2-.81-.3-1.3-.3s-.93.1-1.3.3Z"/>
    <path d="M4.05,208.74c-.51-.27-.9-.65-1.18-1.12-.28-.48-.42-1.01-.42-1.59s.12-1.08.37-1.5.56-.74.94-.95h-1.2v-1.1h6.58v1.1h-1.22c.38.22.7.54.95.97.25.43.38.93.38,1.49s-.14,1.11-.43,1.58c-.29.47-.69.84-1.21,1.12-.52.27-1.11.41-1.78.41s-1.26-.14-1.77-.41ZM4.54,203.88c-.37.2-.65.47-.85.81s-.29.71-.29,1.12.1.78.29,1.12c.19.34.47.6.84.8.37.2.8.3,1.3.3s.94-.1,1.31-.3c.37-.2.66-.47.85-.8.2-.34.29-.71.29-1.12s-.1-.78-.29-1.12c-.2-.34-.48-.61-.85-.81-.37-.2-.81-.3-1.3-.3s-.93.1-1.3.3Z"/>
    <path d="M2.75,198.71c-.21-.36-.31-.79-.31-1.3h1.13v.29c0,1.22.66,1.84,1.99,1.84h3.58v1.09H2.56v-1.09h1.07c-.38-.19-.67-.47-.88-.82Z"/>
    <path d="M6.25,190.19v5.26c.65-.04,1.15-.26,1.52-.67.36-.4.55-.89.55-1.47,0-.47-.11-.87-.33-1.18-.22-.32-.51-.54-.88-.67v-1.18c.63.18,1.15.53,1.54,1.06.4.53.59,1.18.59,1.97,0,.62-.14,1.18-.42,1.67-.28.49-.68.88-1.19,1.16-.52.28-1.11.42-1.79.42s-1.28-.14-1.79-.41c-.51-.27-.91-.65-1.18-1.15-.28-.49-.41-1.06-.41-1.7s.14-1.18.41-1.66c.27-.48.65-.85,1.12-1.11s1.01-.39,1.61-.39c.21,0,.43.01.66.04ZM4.29,191.56c-.3.18-.53.43-.68.75-.16.32-.23.67-.23,1.05,0,.55.18,1.02.53,1.41.35.39.84.61,1.46.67v-4.15c-.42,0-.77.09-1.07.28Z"/>
    <path d="M1.27,185.47c-.14.14-.32.22-.53.22s-.38-.07-.53-.22-.22-.32-.22-.53.07-.37.22-.51.32-.21.53-.21.38.07.53.21.22.31.22.51-.07.38-.22.53ZM2.56,184.42h6.58v1.09H2.56v-1.09Z"/>
    <path d="M2.75,170.08c.21-.4.53-.72.95-.95.42-.23.94-.35,1.55-.35h3.88v1.08h-3.72c-.66,0-1.16.16-1.51.49-.35.32-.52.76-.52,1.31s.18,1.02.55,1.36c.36.34.89.5,1.58.5h3.62v1.08h-3.72c-.66,0-1.16.16-1.51.49-.35.32-.52.76-.52,1.31s.18,1.02.55,1.36c.36.34.89.5,1.58.5h3.62v1.09H2.56v-1.09h.95c-.34-.22-.61-.51-.79-.87s-.28-.77-.28-1.21c0-.55.12-1.04.37-1.46.25-.42.61-.74,1.09-.95-.46-.18-.82-.49-1.08-.91-.26-.42-.38-.9-.38-1.42s.11-.97.32-1.37Z"/>
    <path d="M1.27,166.96c-.14.14-.32.22-.53.22s-.38-.07-.53-.22-.22-.32-.22-.53.07-.37.22-.51.32-.21.53-.21.38.07.53.21.22.31.22.51-.07.38-.22.53ZM2.56,165.9h6.58v1.09H2.56v-1.09Z"/>
    <path d="M.25,162.95h8.88v1.09H.25v-1.09Z"/>
    <path d="M10.56,159.96c.58,0,1.01.15,1.28.44.27.3.41.73.41,1.3v.64h-.92v-.46c0-.3-.06-.52-.18-.64-.12-.12-.32-.19-.61-.19H2.56v-1.09h8ZM1.27,161.02c-.14.14-.32.21-.53.21s-.38-.07-.53-.21c-.14-.14-.22-.31-.22-.52s.07-.38.22-.52c.14-.14.32-.21.53-.21s.38.07.53.21c.14.14.22.31.22.52s-.07.38-.22.52Z"/>
    <path d="M8.82,156.92c-.28.5-.68.89-1.19,1.18-.52.28-1.11.43-1.79.43s-1.27-.15-1.78-.44-.91-.69-1.19-1.19c-.28-.5-.41-1.07-.41-1.69s.14-1.19.41-1.69.67-.9,1.18-1.19c.51-.29,1.11-.44,1.79-.44s1.28.15,1.79.45c.52.3.91.71,1.19,1.22.28.51.42,1.08.42,1.7s-.14,1.17-.42,1.67ZM8,154.14c-.18-.34-.46-.62-.83-.83-.37-.21-.82-.32-1.34-.32s-.98.1-1.34.31c-.37.21-.64.48-.82.82-.18.34-.27.7-.27,1.09s.09.77.27,1.1c.18.33.45.6.82.8.37.2.82.3,1.34.3s.99-.1,1.36-.29c.37-.2.64-.46.82-.79.18-.33.27-.69.27-1.08s-.09-.76-.28-1.1Z"/>
    <path d="M3.16,145.28c.48-.5,1.18-.74,2.09-.74h3.88v1.08h-3.72c-.66,0-1.16.16-1.51.49s-.52.78-.52,1.34.18,1.03.54,1.37c.36.34.88.51,1.57.51h3.64v1.09H2.56v-1.09h.94c-.34-.22-.6-.51-.78-.88-.18-.37-.28-.78-.28-1.23,0-.8.24-1.45.73-1.94Z"/>
    <path d="M6.25,136.79v5.26c.65-.04,1.15-.26,1.52-.67.36-.4.55-.89.55-1.47,0-.47-.11-.87-.33-1.18-.22-.32-.51-.54-.88-.67v-1.18c.63.18,1.15.53,1.54,1.06.4.53.59,1.18.59,1.97,0,.62-.14,1.18-.42,1.67-.28.49-.68.88-1.19,1.16-.52.28-1.11.42-1.79.42s-1.28-.14-1.79-.41c-.51-.27-.91-.65-1.18-1.15-.28-.49-.41-1.06-.41-1.7s.14-1.18.41-1.66c.27-.48.65-.85,1.12-1.11s1.01-.39,1.61-.39c.21,0,.43.01.66.04ZM4.29,138.16c-.3.18-.53.43-.68.75-.16.32-.23.67-.23,1.05,0,.55.18,1.02.53,1.41.35.39.84.61,1.46.67v-4.15c-.42,0-.77.09-1.07.28Z"/>
    <path d="M2.75,133.4c-.21-.36-.31-.79-.31-1.3h1.13v.29c0,1.22.66,1.84,1.99,1.84h3.58v1.09H2.56v-1.09h1.07c-.38-.19-.67-.47-.88-.82Z"/>
  </g>
  <g>
    <path d="M281.23,246.72c-.71,0-1.24.27-1.6.82-.35.55-.52,1.45-.52,2.71.18-.42.49-.74.92-.98.43-.24.91-.35,1.43-.35.82,0,1.48.26,1.97.77.49.51.74,1.22.74,2.12,0,.54-.11,1.03-.32,1.46-.21.43-.53.78-.96,1.03-.43.26-.95.38-1.55.38-.82,0-1.47-.18-1.93-.55-.46-.37-.79-.88-.97-1.52-.18-.65-.28-1.45-.28-2.4,0-2.94,1.02-4.4,3.07-4.4.78,0,1.4.21,1.85.64s.71.96.79,1.61h-1.01c-.18-.89-.72-1.33-1.64-1.33ZM280.27,250.05c-.3.14-.55.35-.74.64-.19.28-.28.63-.28,1.04,0,.61.18,1.1.53,1.48.35.38.86.57,1.51.57.56,0,1.01-.17,1.34-.52.33-.35.5-.82.5-1.41,0-.62-.16-1.11-.48-1.47-.32-.36-.79-.53-1.4-.53-.34,0-.67.07-.97.21Z"/>
    <path d="M286.96,253.15l-1.34,3.23h-.73l.88-3.23h1.2Z"/>
    <path d="M293.57,246.93h-4.21v2.74c.18-.26.46-.47.82-.63s.75-.25,1.16-.25c.66,0,1.2.14,1.62.41s.71.63.89,1.07c.18.44.27.9.27,1.39,0,.58-.11,1.09-.32,1.55s-.55.82-.99,1.08c-.44.26-.99.4-1.65.4-.84,0-1.52-.22-2.04-.65-.52-.43-.84-1.01-.95-1.73h1.07c.1.46.32.81.66,1.07.34.26.76.38,1.27.38.63,0,1.11-.19,1.43-.57.32-.38.48-.88.48-1.51s-.16-1.11-.48-1.45c-.32-.34-.79-.51-1.42-.51-.42,0-.79.1-1.11.31-.32.2-.55.48-.69.83h-1.03v-4.9h5.22v.96Z"/>
    <path d="M308.23,248.28c.4.21.72.53.95.95.23.42.35.94.35,1.55v3.88h-1.08v-3.72c0-.66-.16-1.16-.49-1.51-.32-.35-.76-.52-1.31-.52s-1.02.18-1.36.55-.5.89-.5,1.58v3.62h-1.08v-3.72c0-.66-.16-1.16-.49-1.51-.32-.35-.76-.52-1.31-.52s-1.02.18-1.36.55c-.34.36-.5.89-.5,1.58v3.62h-1.09v-6.58h1.09v.95c.22-.34.51-.61.87-.79s.77-.28,1.21-.28c.55,0,1.04.12,1.46.37s.74.61.95,1.09c.18-.46.49-.82.91-1.08.42-.26.9-.38,1.42-.38s.97.11,1.37.32Z"/>
    <path d="M311.35,246.8c-.14-.14-.22-.32-.22-.53s.07-.38.22-.53.32-.22.53-.22.37.07.51.22.21.32.21.53-.07.38-.21.53c-.14.14-.31.22-.51.22s-.38-.07-.53-.22ZM312.41,248.08v6.58h-1.09v-6.58h1.09Z"/>
    <path d="M315.36,245.78v8.88h-1.09v-8.88h1.09Z"/>
    <path d="M318.35,256.09c0,.58-.15,1.01-.44,1.28-.3.27-.73.41-1.3.41h-.64v-.92h.46c.3,0,.52-.06.64-.18.12-.12.19-.32.19-.61v-7.98h1.09v8ZM317.28,246.8c-.14-.14-.21-.32-.21-.53s.07-.38.21-.53c.14-.14.31-.22.52-.22s.38.07.52.22c.14.14.21.32.21.53s-.07.38-.21.53c-.14.14-.31.22-.52.22s-.38-.07-.52-.22Z"/>
    <path d="M321.39,254.35c-.5-.28-.89-.68-1.18-1.19-.28-.52-.43-1.11-.43-1.79s.15-1.27.44-1.78.69-.91,1.19-1.19c.5-.28,1.07-.41,1.69-.41s1.19.14,1.69.41c.5.28.9.67,1.19,1.18s.44,1.11.44,1.79-.15,1.28-.45,1.79c-.3.52-.71.91-1.22,1.19-.51.28-1.08.42-1.7.42s-1.17-.14-1.67-.42ZM324.17,253.53c.34-.18.62-.46.83-.83.21-.37.32-.82.32-1.34s-.1-.98-.31-1.34c-.21-.37-.48-.64-.82-.82-.34-.18-.7-.27-1.09-.27s-.77.09-1.1.27c-.33.18-.6.45-.8.82-.2.37-.3.82-.3,1.34s.1.99.29,1.36c.2.37.46.64.79.82s.69.27,1.08.27.76-.09,1.1-.28Z"/>
    <path d="M333.02,248.69c.5.48.74,1.18.74,2.09v3.88h-1.08v-3.72c0-.66-.16-1.16-.49-1.51-.33-.35-.78-.52-1.34-.52s-1.03.18-1.37.54c-.34.36-.51.88-.51,1.57v3.64h-1.09v-6.58h1.09v.94c.22-.34.51-.6.88-.78.37-.18.78-.28,1.23-.28.8,0,1.45.24,1.94.73Z"/>
    <path d="M341.52,251.78h-5.26c.04.65.26,1.15.67,1.52.4.36.89.55,1.47.55.47,0,.87-.11,1.18-.33.32-.22.54-.51.67-.88h1.18c-.18.63-.53,1.15-1.06,1.54-.53.4-1.18.59-1.97.59-.62,0-1.18-.14-1.67-.42-.49-.28-.88-.68-1.16-1.19-.28-.52-.42-1.11-.42-1.79s.14-1.28.41-1.79c.27-.51.65-.91,1.15-1.18.49-.28,1.06-.41,1.7-.41s1.18.14,1.66.41c.48.27.85.65,1.11,1.12.26.48.39,1.01.39,1.61,0,.21-.01.43-.04.66ZM340.15,249.82c-.18-.3-.43-.53-.75-.68-.32-.16-.67-.23-1.05-.23-.55,0-1.02.18-1.41.53-.39.35-.61.84-.67,1.46h4.15c0-.42-.09-.77-.28-1.07Z"/>
    <path d="M344.91,248.28c.36-.21.79-.31,1.3-.31v1.13h-.29c-1.22,0-1.84.66-1.84,1.99v3.58h-1.09v-6.58h1.09v1.07c.19-.38.47-.67.82-.88Z"/>
  </g>
  <g>
    <polyline class="cls-2" points="244.54 288.03 260.54 259.53 362.63 259.53"/>
    <g>
      <path class="cls-4" d="M247.93,289.68c-1.02,1.81-3.31,2.45-5.12,1.44s-2.45-3.31-1.44-5.12c1.02-1.81,3.31-2.45,5.12-1.44s2.45,3.31,1.44,5.12Z"/>
      <path class="cls-3" d="M248.36,289.93c1.15-2.05.42-4.65-1.63-5.8-2.05-1.15-4.65-.42-5.8,1.63-1.15,2.05-.42,4.65,1.63,5.8,2.05,1.15,4.65.42,5.8-1.63,1.15-2.05-1.15,2.05,0,0ZM241.81,286.25c.88-1.57,2.87-2.13,4.44-1.25s2.13,2.87,1.25,4.44c-.88,1.57-2.87,2.13-4.44,1.25-1.57-.88-2.13-2.87-1.25-4.44.88-1.57-.88,1.57,0,0Z"/>
    </g>
  </g>
</svg>
