<?xml version="1.0" encoding="UTF-8"?>
<svg id="Lager_1" data-name="Lager 1" xmlns="http://www.w3.org/2000/svg" viewBox="0 0 556.11 261.36">
  <defs>
    <style>
      .cls-1 {
        opacity: .6;
        stroke: #000;
      }

      .cls-1, .cls-2, .cls-3 {
        fill: none;
        stroke-miterlimit: 10;
      }

      .cls-2 {
        stroke: #fff;
      }

      .cls-4 {
        fill: #df2b6d;
        opacity: .4;
      }

      .cls-3 {
        stroke: #833ab4;
        stroke-linecap: round;
        stroke-width: 4px;
      }
    </style>
  </defs>
  <polyline class="cls-1" points="27.91 0 27.91 215.65 556.11 215.65"/>
  <g>
    <path d="M131.68,229.87c.58-.52,1.06-1.07,1.46-1.64.4-.57.59-1.13.59-1.69,0-.52-.13-.93-.38-1.23s-.66-.45-1.22-.45-.97.17-1.27.51c-.3.34-.46.79-.49,1.36h-1.06c.03-.9.3-1.59.82-2.08.51-.49,1.17-.73,1.98-.73s1.48.23,1.96.68c.48.46.73,1.08.73,1.88,0,.66-.2,1.31-.59,1.94s-.85,1.18-1.35,1.66-1.15,1.03-1.93,1.66h4.13v.91h-5.77v-.78c1.02-.82,1.81-1.49,2.39-2.01Z"/>
    <path d="M138.29,231.49c.29.25.69.37,1.18.37.66,0,1.15-.26,1.47-.78.32-.52.47-1.4.45-2.63-.17.36-.45.64-.84.85-.39.2-.83.31-1.31.31-.54,0-1.01-.11-1.43-.33-.42-.22-.75-.54-.99-.97-.24-.42-.36-.94-.36-1.54,0-.86.25-1.55.74-2.07.5-.52,1.2-.79,2.11-.79,1.12,0,1.91.36,2.36,1.09s.68,1.81.68,3.25c0,1.01-.09,1.84-.27,2.5s-.48,1.16-.91,1.5c-.43.34-1.01.52-1.76.52-.82,0-1.45-.22-1.91-.66-.46-.44-.72-1-.78-1.68h1.01c.08.46.27.81.56,1.06ZM140.74,228.18c.34-.33.52-.78.52-1.35,0-.6-.17-1.08-.5-1.45s-.81-.55-1.42-.55c-.56,0-1.01.18-1.34.53-.33.35-.5.82-.5,1.39s.16,1.05.49,1.4c.33.35.8.53,1.43.53.54,0,.98-.17,1.32-.5Z"/>
    <path d="M145.19,231.25l-1.34,3.23h-.73l.88-3.23h1.2Z"/>
    <path d="M151.6,224.93l-3.34,7.82h-1.1l3.38-7.72h-4.63v-.94h5.69v.83Z"/>
  </g>
  <g>
    <path d="M272.66,230.32v-.83l4.21-5.83h1.31v5.71h1.2v.95h-1.2v1.93h-1.08v-1.93h-4.44ZM277.14,224.8l-3.23,4.57h3.23v-4.57Z"/>
    <path d="M283.66,224.3c-.71,0-1.24.27-1.6.82-.35.55-.52,1.45-.52,2.71.18-.42.49-.74.92-.98.43-.24.91-.35,1.43-.35.82,0,1.48.26,1.97.77.49.51.74,1.22.74,2.12,0,.54-.11,1.03-.32,1.46-.21.43-.53.78-.96,1.03-.43.26-.95.38-1.55.38-.82,0-1.47-.18-1.93-.55-.46-.37-.79-.88-.97-1.52-.18-.65-.28-1.45-.28-2.4,0-2.94,1.02-4.4,3.07-4.4.78,0,1.4.21,1.85.64s.71.96.79,1.61h-1.01c-.18-.89-.72-1.33-1.64-1.33ZM282.7,227.63c-.3.14-.55.35-.74.64-.19.28-.28.63-.28,1.04,0,.61.18,1.1.53,1.48.35.38.86.57,1.51.57.56,0,1.01-.17,1.34-.52.33-.35.5-.82.5-1.41,0-.62-.16-1.11-.48-1.47-.32-.36-.79-.53-1.4-.53-.34,0-.67.07-.97.21Z"/>
    <path d="M289.4,230.74l-1.34,3.23h-.73l.88-3.23h1.2Z"/>
    <path d="M290.2,230.32v-.83l4.21-5.83h1.31v5.71h1.2v.95h-1.2v1.93h-1.08v-1.93h-4.44ZM294.69,224.8l-3.23,4.57h3.23v-4.57Z"/>
  </g>
  <g>
    <path d="M422.74,224.06c-.71,0-1.24.27-1.6.82-.35.55-.52,1.45-.52,2.71.18-.42.49-.74.92-.98.43-.24.91-.35,1.43-.35.82,0,1.48.26,1.97.77.49.51.74,1.22.74,2.12,0,.54-.11,1.03-.32,1.46-.21.43-.53.78-.96,1.03-.43.26-.95.38-1.55.38-.82,0-1.47-.18-1.93-.55-.46-.37-.79-.88-.97-1.52-.18-.65-.28-1.45-.28-2.4,0-2.94,1.02-4.4,3.07-4.4.78,0,1.4.21,1.85.64s.71.96.79,1.61h-1.01c-.18-.89-.72-1.33-1.64-1.33ZM421.78,227.39c-.3.14-.55.35-.74.64-.19.28-.28.63-.28,1.04,0,.61.18,1.1.53,1.48.35.38.86.57,1.51.57.56,0,1.01-.17,1.34-.52.33-.35.5-.82.5-1.41,0-.62-.16-1.11-.48-1.47-.32-.36-.79-.53-1.4-.53-.34,0-.67.07-.97.21Z"/>
    <path d="M428,223.78c.51-.42,1.18-.62,1.99-.62.54,0,1.01.1,1.41.29.4.2.7.46.9.8s.31.72.31,1.14c0,.5-.14.92-.43,1.28s-.65.59-1.11.7v.06c.52.13.93.38,1.24.76.3.38.46.87.46,1.48,0,.46-.1.87-.31,1.23-.21.36-.52.65-.94.86s-.92.31-1.5.31c-.85,0-1.54-.22-2.09-.67-.54-.44-.85-1.07-.91-1.89h1.06c.06.48.25.87.59,1.18.34.3.78.46,1.34.46s.99-.15,1.28-.44.44-.67.44-1.13c0-.6-.2-1.03-.6-1.3-.4-.26-1-.4-1.81-.4h-.28v-.91h.29c.74,0,1.29-.13,1.67-.37.38-.24.56-.6.56-1.1,0-.42-.14-.76-.41-1.02-.28-.26-.67-.38-1.18-.38s-.9.13-1.2.38c-.3.26-.48.6-.54,1.03h-1.07c.06-.74.34-1.31.85-1.73Z"/>
    <path d="M435.55,230.49l-1.34,3.23h-.73l.88-3.23h1.2Z"/>
    <path d="M436.33,224.32v-1h2.26v8.68h-1.1v-7.68h-1.15Z"/>
  </g>
  <path class="cls-4" d="M140.45,215.14l.59-98.83,47.65-32.09s47.24-31.96,95.58-31.1l.53,162.02h-144.34Z"/>
  <path class="cls-4" d="M284.29,53.26l.53,161.84h144.34s-.58-97.85-.58-97.85c0,0-34.35-24-57.63-35.93,0,0-52.55-28.73-86.66-28.06Z"/>
  <line class="cls-2" x1="284.53" y1="52.87" x2="285.05" y2="214.71"/>
  <path class="cls-3" d="M45.13,172.1s34.92-18.8,40.01-22.2c0,0,48.52-30.53,70.92-45.78,21.06-14.33,71.02-53.99,130.44-52.82,0,0,48.39-.03,125.71,52.72,0,0,58.14,38.6,74.09,48.52s49.04,26.35,56.09,28.17"/>
  <g>
    <path d="M6.61,173.59v3.65l1.86.67v1.15l-8.32-3.02v-1.26l8.32-3.01v1.15l-1.86.67ZM5.72,173.9l-4.22,1.51,4.22,1.51v-3.02Z"/>
    <path d="M8.47,163.87v1.09l-6.66,4.39h6.66v1.09H.1v-1.09l6.65-4.39H.1v-1.09h8.38Z"/>
    <path d="M.11,156.86h.89v2.28h7.48v1.09H1v2.29H.11v-5.66Z"/>
    <path d="M6.61,150.57v3.65l1.86.67v1.15l-8.32-3.02v-1.26l8.32-3.01v1.15l-1.86.67ZM5.72,150.88l-4.22,1.51,4.22,1.51v-3.02Z"/>
    <path d="M7.58,146.34v-2.93h.89v4.02H.11v-1.09h7.48Z"/>
    <path d="M1,141.15h2.8v-3.05h.9v3.05h2.88v-3.41h.9v4.5H.1v-4.5h.9v3.41Z"/>
    <path d="M.11,130.94h.89v2.28h7.48v1.09H1v2.29H.11v-5.66Z"/>
    <path d="M.11,121.24h.89v2.28h7.48v1.09H1v2.29H.11v-5.66Z"/>
    <path d="M1,118.81h2.8v-3.05h.9v3.05h2.88v-3.41h.9v4.5H.1v-4.5h.9v3.41Z"/>
    <path d="M8.26,112.57c-.2.44-.47.78-.82,1.03-.35.25-.75.38-1.21.38v-1.16c.39-.04.72-.2.99-.49.27-.28.4-.7.4-1.24s-.13-.93-.39-1.23c-.26-.3-.59-.45-1-.45-.32,0-.58.09-.78.26-.2.18-.35.4-.46.66-.1.26-.22.62-.34,1.07-.14.55-.29.99-.43,1.33-.14.33-.37.62-.68.85-.31.24-.72.35-1.24.35-.46,0-.86-.12-1.21-.35-.35-.23-.62-.56-.82-.98-.19-.42-.29-.9-.29-1.45,0-.78.2-1.43.59-1.93s.91-.78,1.56-.85v1.2c-.32.04-.6.21-.85.5s-.37.69-.37,1.18c0,.46.12.83.35,1.12.24.29.57.43.99.43.3,0,.55-.09.74-.26.19-.17.34-.38.44-.64.1-.25.21-.61.34-1.06.15-.55.3-1,.45-1.33.15-.34.38-.62.68-.86.31-.24.73-.36,1.25-.36.41,0,.79.11,1.15.32.36.22.65.54.88.96.22.42.34.92.34,1.5s-.1,1.05-.29,1.48Z"/>
    <path d="M.11,101.55h.89v2.28h7.48v1.09H1v2.29H.11v-5.66Z"/>
    <path d="M.62,95.23c.34-.67.83-1.18,1.46-1.54.63-.36,1.38-.53,2.23-.53s1.6.18,2.23.53c.63.36,1.11.87,1.44,1.54s.5,1.46.5,2.37v2.6H.11v-2.6c0-.91.17-1.7.51-2.37ZM6.71,95.13c-.57-.57-1.37-.85-2.41-.85s-1.85.29-2.44.86-.88,1.39-.88,2.47v1.51h6.58v-1.51c0-1.08-.29-1.9-.86-2.47Z"/>
    <path d="M1,90.63h2.8v-3.05h.9v3.05h2.88v-3.41h.9v4.5H.1v-4.5h.9v3.41Z"/>
    <path d="M7.58,84.48v-2.93h.89v4.02H.11v-1.09h7.48Z"/>
    <path d="M.11,75.24h.89v2.28h7.48v1.09H1v2.29H.11v-5.66Z"/>
    <path d="M6.61,68.95v3.65l1.86.67v1.15L.16,71.4v-1.26l8.32-3.01v1.15l-1.86.67ZM5.72,69.26l-4.22,1.51,4.22,1.51v-3.02Z"/>
    <path d="M2.53,59.47c-.49.23-.87.57-1.13,1.01-.27.44-.4.95-.4,1.54s.13,1.11.4,1.58c.27.47.65.84,1.15,1.1s1.08.4,1.73.4,1.23-.13,1.73-.4.88-.64,1.15-1.1c.27-.47.4-.99.4-1.58,0-.82-.24-1.49-.73-2.02-.49-.53-1.15-.84-1.98-.92v3.34h-.89v-4.5h.84c.69.06,1.32.28,1.89.65.57.37,1.02.85,1.36,1.45s.5,1.27.5,2c0,.78-.18,1.48-.55,2.12-.36.64-.87,1.15-1.52,1.52-.65.37-1.38.56-2.2.56s-1.55-.19-2.2-.56c-.65-.37-1.16-.88-1.52-1.52S.01,62.79.01,62.01c0-.89.22-1.67.66-2.36.44-.68,1.06-1.18,1.86-1.49v1.31Z"/>
    <path d="M6.61,51.53v3.65l1.86.67v1.15L.16,53.97v-1.26l8.32-3.01v1.15l-1.86.67ZM5.72,51.84l-4.22,1.51,4.22,1.51v-3.02Z"/>
    <path d="M8.47,43.98l-3.42,1.99v1.32h3.42v1.09H.11v-2.7c0-.63.11-1.17.32-1.6.22-.44.51-.76.88-.98.37-.22.79-.32,1.26-.32.58,0,1.08.17,1.52.5s.73.83.88,1.49l3.5-2.1v1.31ZM4.18,47.29v-1.61c0-.59-.15-1.04-.44-1.33-.29-.3-.68-.44-1.17-.44s-.88.15-1.15.44c-.27.29-.41.74-.41,1.34v1.61h3.17Z"/>
    <path d="M1,39.99h2.8v-3.05h.9v3.05h2.88v-3.41h.9v4.5H.1v-4.5h.9v3.41Z"/>
  </g>
  <g>
    <path d="M272.29,252c-.24.23-.55.34-.92.34s-.66-.12-.91-.35c-.25-.23-.37-.54-.37-.91s.13-.68.37-.91c.25-.23.55-.35.91-.35s.67.11.92.34c.24.23.37.53.37.92s-.12.69-.37.92ZM271.83,250.58c-.12-.12-.28-.19-.46-.19s-.34.06-.46.19-.19.29-.19.49.06.36.19.49.28.19.46.19.34-.06.46-.19c.13-.13.19-.29.19-.49s-.06-.36-.19-.49ZM273.18,259.5h-3.65s-.67,1.86-.67,1.86h-1.15s3.02-8.32,3.02-8.32h1.26s3.01,8.32,3.01,8.32h-1.15s-.67-1.86-.67-1.86ZM272.87,258.61l-1.51-4.22-1.51,4.22h3.02Z"/>
    <path d="M277.42,260.47h2.93v.89h-4.02v-8.36h1.09v7.48Z"/>
    <path d="M286.49,253.51c.67.34,1.18.83,1.54,1.46.36.63.53,1.38.53,2.23s-.18,1.6-.53,2.23c-.36.63-.87,1.11-1.54,1.44s-1.46.5-2.37.5h-2.6v-8.36h2.6c.91,0,1.7.17,2.37.51ZM286.59,259.6c.57-.57.85-1.37.85-2.41s-.29-1.85-.86-2.44-1.39-.88-2.47-.88h-1.51s0,6.58,0,6.58h1.51c1.08,0,1.9-.29,2.47-.86Z"/>
    <path d="M291.09,253.89v2.8s3.05,0,3.05,0v.9h-3.05s0,2.88,0,2.88h3.41v.9h-4.5v-8.38h4.5v.9h-3.41Z"/>
    <path d="M300.56,261.36l-1.99-3.42h-1.32s0,3.42,0,3.42h-1.09v-8.36h2.7c.63,0,1.17.11,1.6.32s.76.51.98.88c.22.37.32.79.32,1.26,0,.58-.17,1.08-.5,1.52s-.83.73-1.49.88l2.1,3.5h-1.31ZM297.24,257.07h1.61c.59,0,1.04-.15,1.33-.44.3-.29.44-.68.44-1.17s-.15-.88-.44-1.15c-.29-.27-.74-.41-1.34-.41h-1.61s0,3.17,0,3.17Z"/>
  </g>
  <g>
    <path d="M136.01,101.93v1.08h-5.59v-1.08h5.59Z"/>
    <path d="M144.87,101.6c-.34,0-.78-.01-1.78-.06v.06c.8.55,1.26,1.54,1.26,2.56,0,2.49-1.71,3.59-3.25,3.59-1.83,0-3.25-1.33-3.25-3.47,0-2.27,1.44-3.6,3.49-3.61h3.57l-.04.94ZM143.14,104.17c0-1.15-.59-2.58-1.99-2.58s-2.05,1.34-2.05,2.63c0,1.48.85,2.61,2.03,2.61s2-1.12,2-2.66Z"/>
  </g>
  <path d="M432.09,101.6c-.34,0-.78-.01-1.78-.06v.06c.8.55,1.26,1.54,1.26,2.56,0,2.49-1.71,3.59-3.25,3.59-1.83,0-3.25-1.33-3.25-3.47,0-2.27,1.44-3.6,3.49-3.61h3.57l-.04.94ZM430.35,104.17c0-1.15-.59-2.58-1.99-2.58s-2.05,1.34-2.05,2.63c0,1.48.85,2.61,2.03,2.61s2-1.12,2-2.66Z"/>
  <path d="M285.93,41.66c-.28.53-.94,1.18-1.95,1.18-.62,0-1.19-.22-1.48-.74v.84c0,.74.01,1.99.15,2.55h-1.11c-.14-.42-.2-1.41-.2-2.49v-7.06h1.22v4.01c0,1.05.45,1.92,1.53,1.92.81,0,1.4-.59,1.62-1.13.07-.18.11-.41.11-.63v-4.16h1.22v4.92c0,.74.15,1.04.64,1.06l-.1.9c-.14.04-.22.06-.42.06-.6,0-1.09-.34-1.2-1.21h-.04Z"/>
</svg>