<?xml version="1.0" encoding="UTF-8"?>
<svg id="Lager_1" data-name="Lager 1" xmlns="http://www.w3.org/2000/svg" viewBox="0 0 597.26 324.56">
  <defs>
    <style>
      .cls-1 {
        opacity: .6;
        stroke: #000;
      }

      .cls-1, .cls-2, .cls-3 {
        fill: none;
        stroke-miterlimit: 10;
      }

      .cls-4 {
        fill: #833ab4;
      }

      .cls-5 {
        fill: #fff;
      }

      .cls-2, .cls-3 {
        stroke: #833ab4;
      }

      .cls-3 {
        stroke-linecap: round;
        stroke-width: 4px;
      }
    </style>
  </defs>
  <path d="M50.32,269.65c.45-.77,1.23-1.16,2.35-1.16s1.89.39,2.34,1.16c.45.77.67,1.85.67,3.22s-.22,2.49-.67,3.26c-.45.78-1.23,1.16-2.34,1.16s-1.9-.39-2.35-1.16c-.45-.78-.67-1.86-.67-3.26s.22-2.45.67-3.22ZM54.46,271.1c-.09-.48-.28-.87-.56-1.17-.28-.3-.69-.44-1.23-.44s-.96.15-1.24.44-.47.69-.56,1.17c-.09.48-.14,1.07-.14,1.77s.05,1.32.14,1.81c.09.49.28.88.56,1.18.28.3.7.44,1.24.44s.95-.15,1.23-.44c.28-.3.47-.69.56-1.18.09-.49.14-1.09.14-1.81s-.05-1.29-.14-1.77Z"/>
  <g>
    <path d="M29.36,165.84c.45-.77,1.23-1.16,2.35-1.16s1.89.39,2.34,1.16c.45.77.67,1.85.67,3.22s-.22,2.49-.67,3.26c-.45.78-1.23,1.16-2.34,1.16s-1.9-.39-2.35-1.16c-.45-.78-.67-1.86-.67-3.26s.22-2.45.67-3.22ZM33.5,167.29c-.09-.48-.28-.87-.56-1.17-.28-.3-.69-.44-1.23-.44s-.96.15-1.24.44-.47.69-.56,1.17c-.09.48-.14,1.07-.14,1.77s.05,1.32.14,1.81c.09.49.28.88.56,1.18.28.3.7.44,1.24.44s.95-.15,1.23-.44c.28-.3.47-.69.56-1.18.09-.49.14-1.09.14-1.81s-.05-1.29-.14-1.77Z"/>
    <path d="M37.53,171.97l-1.34,3.23h-.73l.88-3.23h1.2Z"/>
    <path d="M39.27,165.84c.45-.77,1.23-1.16,2.35-1.16s1.89.39,2.34,1.16c.45.77.67,1.85.67,3.22s-.22,2.49-.67,3.26c-.45.78-1.23,1.16-2.34,1.16s-1.9-.39-2.35-1.16c-.45-.78-.67-1.86-.67-3.26s.22-2.45.67-3.22ZM43.41,167.29c-.09-.48-.28-.87-.56-1.17-.28-.3-.69-.44-1.23-.44s-.96.15-1.24.44-.47.69-.56,1.17c-.09.48-.14,1.07-.14,1.77s.05,1.32.14,1.81c.09.49.28.88.56,1.18.28.3.7.44,1.24.44s.95-.15,1.23-.44c.28-.3.47-.69.56-1.18.09-.49.14-1.09.14-1.81s-.05-1.29-.14-1.77Z"/>
    <path d="M45.84,165.81v-1h2.26v8.68h-1.1v-7.68h-1.15Z"/>
    <path d="M55.5,165.76h-4.21v2.74c.18-.26.46-.47.82-.63.36-.16.75-.25,1.16-.25.66,0,1.2.14,1.62.41s.71.63.89,1.07c.18.44.27.9.27,1.39,0,.58-.11,1.09-.32,1.55-.22.46-.55.82-.99,1.08-.44.26-.99.4-1.65.4-.84,0-1.52-.22-2.04-.65-.52-.43-.84-1.01-.95-1.73h1.07c.1.46.32.81.66,1.07s.76.38,1.27.38c.63,0,1.11-.19,1.43-.57.32-.38.48-.88.48-1.51s-.16-1.11-.48-1.45c-.32-.34-.79-.51-1.42-.51-.42,0-.79.1-1.11.31s-.55.48-.69.83h-1.03v-4.9h5.22v.96Z"/>
  </g>
  <g>
    <path d="M26.17,96.5c.45-.77,1.23-1.16,2.35-1.16s1.89.39,2.34,1.16c.45.77.67,1.85.67,3.22s-.22,2.49-.67,3.26c-.45.78-1.23,1.16-2.34,1.16s-1.9-.39-2.35-1.16c-.45-.78-.67-1.86-.67-3.26s.22-2.45.67-3.22ZM30.32,97.96c-.09-.48-.28-.87-.56-1.17-.28-.3-.69-.44-1.23-.44s-.96.15-1.24.44-.47.69-.56,1.17c-.09.48-.14,1.07-.14,1.77s.05,1.32.14,1.81c.09.49.28.88.56,1.18.28.3.7.44,1.24.44s.95-.15,1.23-.44c.28-.3.47-.69.56-1.18.09-.49.14-1.09.14-1.81s-.05-1.29-.14-1.77Z"/>
    <path d="M34.34,102.64l-1.34,3.23h-.73l.88-3.23h1.2Z"/>
    <path d="M36.08,96.5c.45-.77,1.23-1.16,2.35-1.16s1.89.39,2.34,1.16c.45.77.67,1.85.67,3.22s-.22,2.49-.67,3.26c-.45.78-1.23,1.16-2.34,1.16s-1.9-.39-2.35-1.16c-.45-.78-.67-1.86-.67-3.26s.22-2.45.67-3.22ZM40.23,97.96c-.09-.48-.28-.87-.56-1.17-.28-.3-.69-.44-1.23-.44s-.96.15-1.24.44-.47.69-.56,1.17c-.09.48-.14,1.07-.14,1.77s.05,1.32.14,1.81c.09.49.28.88.56,1.18.28.3.7.44,1.24.44s.95-.15,1.23-.44c.28-.3.47-.69.56-1.18.09-.49.14-1.09.14-1.81s-.05-1.29-.14-1.77Z"/>
    <path d="M45.2,101.27c.58-.52,1.06-1.07,1.46-1.64.4-.57.59-1.13.59-1.69,0-.52-.13-.93-.38-1.23s-.66-.45-1.22-.45-.97.17-1.27.51c-.3.34-.46.79-.49,1.36h-1.06c.03-.9.3-1.59.82-2.08.51-.49,1.17-.73,1.98-.73s1.48.23,1.96.68c.48.46.73,1.08.73,1.88,0,.66-.2,1.31-.59,1.94s-.85,1.18-1.35,1.66-1.15,1.03-1.93,1.66h4.13v.91h-5.77v-.78c1.02-.82,1.81-1.49,2.39-2.01Z"/>
    <path d="M55.38,96.43h-4.21v2.74c.18-.26.46-.47.82-.63.36-.16.75-.25,1.16-.25.66,0,1.2.14,1.62.41s.71.63.89,1.07c.18.44.27.9.27,1.39,0,.58-.11,1.09-.32,1.55-.22.46-.55.82-.99,1.08-.44.26-.99.4-1.65.4-.84,0-1.52-.22-2.04-.65-.52-.43-.84-1.01-.95-1.73h1.07c.1.46.32.81.66,1.07s.76.38,1.27.38c.63,0,1.11-.19,1.43-.57.32-.38.48-.88.48-1.51s-.16-1.11-.48-1.45c-.32-.34-.79-.51-1.42-.51-.42,0-.79.1-1.11.31-.32.2-.55.48-.69.83h-1.03v-4.9h5.22v.96Z"/>
  </g>
  <g>
    <path d="M25.23,235.07c.45-.77,1.23-1.16,2.35-1.16s1.89.39,2.34,1.16c.45.77.67,1.85.67,3.22s-.22,2.49-.67,3.26c-.45.78-1.23,1.16-2.34,1.16s-1.9-.39-2.35-1.16c-.45-.78-.67-1.86-.67-3.26s.22-2.45.67-3.22ZM29.38,236.52c-.09-.48-.28-.87-.56-1.17-.28-.3-.69-.44-1.23-.44s-.96.15-1.24.44-.47.69-.56,1.17c-.09.48-.14,1.07-.14,1.77s.05,1.32.14,1.81c.09.49.28.88.56,1.18.28.3.7.44,1.24.44s.95-.15,1.23-.44c.28-.3.47-.69.56-1.18.09-.49.14-1.09.14-1.81s-.05-1.29-.14-1.77Z"/>
    <path d="M33.4,241.21l-1.34,3.23h-.73l.88-3.23h1.2Z"/>
    <path d="M35.14,235.07c.45-.77,1.23-1.16,2.35-1.16s1.89.39,2.34,1.16c.45.77.67,1.85.67,3.22s-.22,2.49-.67,3.26c-.45.78-1.23,1.16-2.34,1.16s-1.9-.39-2.35-1.16c-.45-.78-.67-1.86-.67-3.26s.22-2.45.67-3.22ZM39.29,236.52c-.09-.48-.28-.87-.56-1.17-.28-.3-.69-.44-1.23-.44s-.96.15-1.24.44-.47.69-.56,1.17c-.09.48-.14,1.07-.14,1.77s.05,1.32.14,1.81c.09.49.28.88.56,1.18.28.3.7.44,1.24.44s.95-.15,1.23-.44c.28-.3.47-.69.56-1.18.09-.49.14-1.09.14-1.81s-.05-1.29-.14-1.77Z"/>
    <path d="M42.68,235.07c.45-.77,1.23-1.16,2.35-1.16s1.89.39,2.34,1.16c.45.77.67,1.85.67,3.22s-.22,2.49-.67,3.26c-.45.78-1.23,1.16-2.34,1.16s-1.9-.39-2.35-1.16c-.45-.78-.67-1.86-.67-3.26s.22-2.45.67-3.22ZM46.82,236.52c-.09-.48-.28-.87-.56-1.17-.28-.3-.69-.44-1.23-.44s-.96.15-1.24.44-.47.69-.56,1.17c-.09.48-.14,1.07-.14,1.77s.05,1.32.14,1.81c.09.49.28.88.56,1.18.28.3.7.44,1.24.44s.95-.15,1.23-.44c.28-.3.47-.69.56-1.18.09-.49.14-1.09.14-1.81s-.05-1.29-.14-1.77Z"/>
    <path d="M55.07,234.99h-4.21v2.74c.18-.26.46-.47.82-.63.36-.16.75-.25,1.16-.25.66,0,1.2.14,1.62.41s.71.63.89,1.07c.18.44.27.9.27,1.39,0,.58-.11,1.09-.32,1.55-.22.46-.55.82-.99,1.08-.44.26-.99.4-1.65.4-.84,0-1.52-.22-2.04-.65-.52-.43-.84-1.01-.95-1.73h1.07c.1.46.32.81.66,1.07s.76.38,1.27.38c.63,0,1.11-.19,1.43-.57.32-.38.48-.88.48-1.51s-.16-1.11-.48-1.45c-.32-.34-.79-.51-1.42-.51-.42,0-.79.1-1.11.31s-.55.48-.69.83h-1.03v-4.9h5.22v.96Z"/>
  </g>
  <g>
    <path d="M36.97,200.49c.45-.77,1.23-1.16,2.35-1.16s1.89.39,2.34,1.16c.45.77.67,1.85.67,3.22s-.22,2.49-.67,3.26c-.45.78-1.23,1.16-2.34,1.16s-1.9-.39-2.35-1.16c-.45-.78-.67-1.86-.67-3.26s.22-2.45.67-3.22ZM41.11,201.94c-.09-.48-.28-.87-.56-1.17-.28-.3-.69-.44-1.23-.44s-.96.15-1.24.44-.47.69-.56,1.17c-.09.48-.14,1.07-.14,1.77s.05,1.32.14,1.81c.09.49.28.88.56,1.18.28.3.7.44,1.24.44s.95-.15,1.23-.44c.28-.3.47-.69.56-1.18.09-.49.14-1.09.14-1.81s-.05-1.29-.14-1.77Z"/>
    <path d="M45.14,206.63l-1.34,3.23h-.73l.88-3.23h1.2Z"/>
    <path d="M46.88,200.49c.45-.77,1.23-1.16,2.35-1.16s1.89.39,2.34,1.16c.45.77.67,1.85.67,3.22s-.22,2.49-.67,3.26c-.45.78-1.23,1.16-2.34,1.16s-1.9-.39-2.35-1.16c-.45-.78-.67-1.86-.67-3.26s.22-2.45.67-3.22ZM51.02,201.94c-.09-.48-.28-.87-.56-1.17-.28-.3-.69-.44-1.23-.44s-.96.15-1.24.44-.47.69-.56,1.17c-.09.48-.14,1.07-.14,1.77s.05,1.32.14,1.81c.09.49.28.88.56,1.18.28.3.7.44,1.24.44s.95-.15,1.23-.44c.28-.3.47-.69.56-1.18.09-.49.14-1.09.14-1.81s-.05-1.29-.14-1.77Z"/>
    <path d="M53.46,200.46v-1h2.26v8.68h-1.1v-7.68h-1.15Z"/>
  </g>
  <g>
    <path d="M33.53,131.21c.45-.77,1.23-1.16,2.35-1.16s1.89.39,2.34,1.16c.45.77.67,1.85.67,3.22s-.22,2.49-.67,3.26c-.45.78-1.23,1.16-2.34,1.16s-1.9-.39-2.35-1.16c-.45-.78-.67-1.86-.67-3.26s.22-2.45.67-3.22ZM37.67,132.66c-.09-.48-.28-.87-.56-1.17-.28-.3-.69-.44-1.23-.44s-.96.15-1.24.44-.47.69-.56,1.17c-.09.48-.14,1.07-.14,1.77s.05,1.32.14,1.81c.09.49.28.88.56,1.18.28.3.7.44,1.24.44s.95-.15,1.23-.44c.28-.3.47-.69.56-1.18.09-.49.14-1.09.14-1.81s-.05-1.29-.14-1.77Z"/>
    <path d="M41.7,137.34l-1.34,3.23h-.73l.88-3.23h1.2Z"/>
    <path d="M43.44,131.21c.45-.77,1.23-1.16,2.35-1.16s1.89.39,2.34,1.16c.45.77.67,1.85.67,3.22s-.22,2.49-.67,3.26c-.45.78-1.23,1.16-2.34,1.16s-1.9-.39-2.35-1.16c-.45-.78-.67-1.86-.67-3.26s.22-2.45.67-3.22ZM47.58,132.66c-.09-.48-.28-.87-.56-1.17-.28-.3-.69-.44-1.23-.44s-.96.15-1.24.44-.47.69-.56,1.17c-.09.48-.14,1.07-.14,1.77s.05,1.32.14,1.81c.09.49.28.88.56,1.18.28.3.7.44,1.24.44s.95-.15,1.23-.44c.28-.3.47-.69.56-1.18.09-.49.14-1.09.14-1.81s-.05-1.29-.14-1.77Z"/>
    <path d="M52.56,135.97c.58-.52,1.06-1.07,1.46-1.64.4-.57.59-1.13.59-1.69,0-.52-.13-.93-.38-1.23s-.66-.45-1.22-.45-.97.17-1.27.51c-.3.34-.46.79-.49,1.36h-1.06c.03-.9.3-1.59.82-2.08.51-.49,1.17-.73,1.98-.73s1.48.23,1.96.68c.48.46.73,1.08.73,1.88,0,.66-.2,1.31-.59,1.94s-.85,1.18-1.35,1.66-1.15,1.03-1.93,1.66h4.13v.91h-5.77v-.78c1.02-.82,1.81-1.49,2.39-2.01Z"/>
  </g>
  <g>
    <path d="M33.66,61.83c.45-.77,1.23-1.16,2.35-1.16s1.89.39,2.34,1.16c.45.77.67,1.85.67,3.22s-.22,2.49-.67,3.26c-.45.78-1.23,1.16-2.34,1.16s-1.9-.39-2.35-1.16c-.45-.78-.67-1.86-.67-3.26s.22-2.45.67-3.22ZM37.81,63.28c-.09-.48-.28-.87-.56-1.17-.28-.3-.69-.44-1.23-.44s-.96.15-1.24.44-.47.69-.56,1.17c-.09.48-.14,1.07-.14,1.77s.05,1.32.14,1.81c.09.49.28.88.56,1.18.28.3.7.44,1.24.44s.95-.15,1.23-.44c.28-.3.47-.69.56-1.18.09-.49.14-1.09.14-1.81s-.05-1.29-.14-1.77Z"/>
    <path d="M41.84,67.96l-1.34,3.23h-.73l.88-3.23h1.2Z"/>
    <path d="M43.58,61.83c.45-.77,1.23-1.16,2.35-1.16s1.89.39,2.34,1.16c.45.77.67,1.85.67,3.22s-.22,2.49-.67,3.26c-.45.78-1.23,1.16-2.34,1.16s-1.9-.39-2.35-1.16c-.45-.78-.67-1.86-.67-3.26s.22-2.45.67-3.22ZM47.72,63.28c-.09-.48-.28-.87-.56-1.17s-.69-.44-1.23-.44-.96.15-1.24.44-.47.69-.56,1.17c-.09.48-.14,1.07-.14,1.77s.05,1.32.14,1.81c.09.49.28.88.56,1.18.28.3.7.44,1.24.44s.95-.15,1.23-.44c.28-.3.47-.69.56-1.18.09-.49.14-1.09.14-1.81s-.05-1.29-.14-1.77Z"/>
    <path d="M51.27,61.26c.51-.42,1.18-.62,1.99-.62.54,0,1.01.1,1.41.29.4.2.7.46.9.8s.31.72.31,1.14c0,.5-.14.92-.43,1.28s-.65.59-1.11.7v.06c.52.13.93.38,1.24.76.3.38.46.87.46,1.48,0,.46-.1.87-.31,1.23-.21.36-.52.65-.94.86s-.92.31-1.5.31c-.85,0-1.54-.22-2.09-.67-.54-.44-.85-1.07-.91-1.89h1.06c.06.48.25.87.59,1.18.34.3.78.46,1.34.46s.99-.15,1.28-.44.44-.67.44-1.13c0-.6-.2-1.03-.6-1.3-.4-.26-1-.4-1.81-.4h-.28v-.91h.29c.74,0,1.29-.13,1.67-.37.38-.24.56-.6.56-1.1,0-.42-.14-.76-.41-1.02-.28-.26-.67-.38-1.18-.38s-.9.13-1.2.38c-.3.26-.48.6-.54,1.03h-1.07c.06-.74.34-1.31.85-1.73Z"/>
  </g>
  <polyline class="cls-1" points="69.06 57.25 69.06 272.89 597.26 272.89"/>
  <g>
    <path d="M81.21,288.81v-1h2.26v8.68h-1.1v-7.68h-1.15Z"/>
    <path d="M87.3,295.21c.29.25.69.37,1.18.37.66,0,1.15-.26,1.47-.78.32-.52.47-1.4.45-2.63-.17.36-.45.64-.84.85-.39.2-.83.31-1.31.31-.54,0-1.01-.11-1.43-.33-.42-.22-.75-.54-.99-.97-.24-.42-.36-.94-.36-1.54,0-.86.25-1.55.74-2.07.5-.52,1.2-.79,2.11-.79,1.12,0,1.91.36,2.36,1.09s.68,1.81.68,3.25c0,1.01-.09,1.84-.27,2.5s-.48,1.16-.91,1.5c-.43.34-1.01.52-1.76.52-.82,0-1.45-.22-1.91-.66-.46-.44-.72-1-.78-1.68h1.01c.08.46.27.81.56,1.06ZM89.75,291.91c.34-.33.52-.78.52-1.35,0-.6-.17-1.08-.5-1.45s-.81-.55-1.42-.55c-.56,0-1.01.18-1.34.53-.33.35-.5.82-.5,1.39s.16,1.05.49,1.4c.33.35.8.53,1.43.53.54,0,.98-.17,1.32-.5Z"/>
  </g>
  <path class="cls-3" d="M86.28,229.35s34.92-18.8,40.01-22.2c0,0,48.52-30.53,70.92-45.78,21.06-14.33,71.02-53.99,130.44-52.82,0,0,48.39-.03,125.71,52.72,0,0,58.14,38.6,74.09,48.52s49.04,26.35,56.09,28.17"/>
  <g>
    <path d="M287.62,294.49v-.83l4.21-5.83h1.31v5.71h1.2v.95h-1.2v1.93h-1.08v-1.93h-4.44ZM292.11,288.97l-3.23,4.57h3.23v-4.57Z"/>
    <path d="M296.26,288.21c.51-.42,1.18-.62,1.99-.62.54,0,1.01.1,1.41.29.4.2.7.46.9.8s.31.72.31,1.14c0,.5-.14.92-.43,1.28s-.65.59-1.11.7v.06c.52.13.93.38,1.24.76.3.38.46.87.46,1.48,0,.46-.1.87-.31,1.23-.21.36-.52.65-.94.86s-.92.31-1.5.31c-.85,0-1.54-.22-2.09-.67-.54-.44-.85-1.07-.91-1.89h1.06c.06.48.25.87.59,1.18.34.3.78.46,1.34.46s.99-.15,1.28-.44.44-.67.44-1.13c0-.6-.2-1.03-.6-1.3-.4-.26-1-.4-1.81-.4h-.28v-.91h.29c.74,0,1.29-.13,1.67-.37.38-.24.56-.6.56-1.1,0-.42-.14-.76-.41-1.02-.28-.26-.67-.38-1.18-.38s-.9.13-1.2.38c-.3.26-.48.6-.54,1.03h-1.07c.06-.74.34-1.31.85-1.73Z"/>
  </g>
  <g>
    <path d="M399.27,288.67h-4.21v2.74c.18-.26.46-.47.82-.63s.75-.25,1.16-.25c.66,0,1.2.14,1.62.41s.71.63.89,1.07c.18.44.27.9.27,1.39,0,.58-.11,1.09-.32,1.55s-.55.82-.99,1.08-.99.4-1.65.4c-.84,0-1.52-.22-2.04-.65-.52-.43-.84-1.01-.95-1.73h1.07c.1.46.32.81.66,1.07s.76.38,1.27.38c.63,0,1.11-.19,1.43-.57s.48-.88.48-1.51-.16-1.11-.48-1.45-.79-.51-1.42-.51c-.42,0-.79.1-1.11.31-.32.2-.55.48-.69.83h-1.03v-4.9h5.22v.96Z"/>
    <path d="M406.81,288.67h-4.21v2.74c.18-.26.46-.47.82-.63s.75-.25,1.16-.25c.66,0,1.2.14,1.62.41s.71.63.89,1.07c.18.44.27.9.27,1.39,0,.58-.11,1.09-.32,1.55s-.55.82-.99,1.08-.99.4-1.65.4c-.84,0-1.52-.22-2.04-.65-.52-.43-.84-1.01-.95-1.73h1.07c.1.46.32.81.66,1.07s.76.38,1.27.38c.63,0,1.11-.19,1.43-.57s.48-.88.48-1.51-.16-1.11-.48-1.45-.79-.51-1.42-.51c-.42,0-.79.1-1.11.31-.32.2-.55.48-.69.83h-1.03v-4.9h5.22v.96Z"/>
  </g>
  <g>
    <path d="M186.68,288.23c.51-.42,1.18-.62,1.99-.62.54,0,1.01.1,1.41.29s.7.46.9.8.31.72.31,1.14c0,.5-.14.92-.43,1.28s-.65.59-1.11.7v.06c.52.13.93.38,1.24.76.3.38.46.87.46,1.48,0,.46-.1.87-.31,1.23-.21.36-.52.65-.94.86s-.92.31-1.5.31c-.85,0-1.54-.22-2.09-.67-.54-.44-.85-1.07-.91-1.89h1.06c.06.48.25.87.59,1.18.34.3.78.46,1.34.46s.99-.15,1.28-.44.44-.67.44-1.13c0-.6-.2-1.03-.6-1.3-.4-.26-1-.4-1.81-.4h-.28v-.91h.29c.74,0,1.29-.13,1.67-.37.38-.24.56-.6.56-1.1,0-.42-.14-.76-.41-1.02-.28-.26-.67-.38-1.18-.38s-.9.13-1.2.38c-.3.26-.48.6-.54,1.03h-1.07c.06-.74.34-1.31.85-1.73Z"/>
    <path d="M192.63,288.77v-1h2.26v8.68h-1.1v-7.68h-1.15Z"/>
  </g>
  <g>
    <path d="M322.57,322.7h-3.65l-.67,1.86h-1.15l3.02-8.32h1.26l3.01,8.32h-1.15l-.67-1.86ZM322.26,321.81l-1.51-4.22-1.51,4.22h3.02ZM321.68,315.19c-.24.23-.55.34-.92.34s-.66-.12-.91-.35c-.25-.23-.37-.54-.37-.91s.12-.68.37-.91c.25-.23.55-.35.91-.35s.67.11.92.34c.24.23.37.53.37.92s-.12.69-.37.92ZM321.22,313.77c-.12-.12-.28-.19-.46-.19s-.34.06-.46.19c-.12.12-.19.29-.19.49s.06.36.19.49c.12.13.28.19.46.19s.34-.06.46-.19.19-.29.19-.49-.06-.36-.19-.49Z"/>
    <path d="M326.81,323.67h2.93v.89h-4.02v-8.36h1.09v7.48Z"/>
    <path d="M335.88,316.7c.67.34,1.18.83,1.54,1.46.36.63.53,1.38.53,2.23s-.18,1.6-.53,2.23c-.36.63-.87,1.11-1.54,1.44s-1.46.5-2.37.5h-2.6v-8.36h2.6c.91,0,1.7.17,2.37.51ZM335.98,322.8c.57-.57.85-1.37.85-2.41s-.29-1.85-.86-2.44c-.57-.58-1.39-.88-2.47-.88h-1.51v6.58h1.51c1.08,0,1.9-.29,2.47-.86Z"/>
    <path d="M340.48,317.08v2.8h3.05v.9h-3.05v2.88h3.41v.9h-4.5v-8.38h4.5v.9h-3.41Z"/>
    <path d="M349.95,324.56l-1.99-3.42h-1.32v3.42h-1.09v-8.36h2.7c.63,0,1.17.11,1.6.32s.76.51.98.88c.22.37.32.79.32,1.26,0,.58-.17,1.08-.5,1.52s-.83.73-1.49.88l2.1,3.5h-1.31ZM346.63,320.26h1.61c.59,0,1.04-.15,1.33-.44.3-.29.44-.68.44-1.17s-.15-.88-.44-1.15c-.29-.27-.74-.41-1.34-.41h-1.61v3.17Z"/>
  </g>
  <g>
    <path d="M9.03,241.09c-.2.44-.47.78-.82,1.03-.35.25-.75.38-1.21.38v-1.16c.39-.04.72-.2.99-.49.27-.28.4-.7.4-1.24s-.13-.93-.39-1.23c-.26-.3-.59-.45-1-.45-.32,0-.58.09-.78.26-.2.18-.35.4-.46.66-.1.26-.22.62-.34,1.07-.14.55-.29.99-.43,1.33-.14.33-.37.62-.68.85-.31.24-.72.35-1.24.35-.46,0-.86-.12-1.21-.35-.35-.23-.62-.56-.82-.98-.19-.42-.29-.9-.29-1.45,0-.78.2-1.43.59-1.93.39-.5.91-.78,1.56-.85v1.2c-.32.04-.6.21-.85.5s-.37.69-.37,1.18c0,.46.12.83.35,1.12.24.29.57.43.99.43.3,0,.55-.09.74-.26.19-.17.34-.38.44-.64.1-.25.21-.61.34-1.06.15-.55.3-1,.45-1.33.15-.34.38-.62.68-.86.31-.24.73-.36,1.25-.36.41,0,.79.11,1.15.32.36.22.65.54.88.96.22.42.34.92.34,1.5s-.1,1.05-.29,1.48Z"/>
    <path d="M7.38,230.27v3.65l1.86.67v1.15l-8.32-3.02v-1.26l8.32-3.01v1.15l-1.86.67ZM6.5,230.58l-4.22,1.51,4.22,1.51v-3.02Z"/>
    <path d="M9.24,220.55v1.09l-6.66,4.39h6.66v1.09H.87v-1.09l6.65-4.39H.87v-1.09h8.38Z"/>
    <path d="M9.24,212.12v1.09l-6.66,4.39h6.66v1.09H.87v-1.09l6.65-4.39H.87v-1.09h8.38Z"/>
    <path d="M8.78,208.59c-.36.64-.87,1.15-1.52,1.52-.65.37-1.39.56-2.2.56s-1.55-.19-2.2-.56c-.65-.37-1.16-.88-1.52-1.52s-.55-1.35-.55-2.12.18-1.5.55-2.14c.36-.64.87-1.14,1.52-1.51.65-.37,1.38-.55,2.21-.55s1.56.18,2.21.55c.65.37,1.15.87,1.52,1.51.36.64.55,1.35.55,2.14s-.18,1.48-.55,2.12ZM7.97,204.89c-.27-.47-.66-.84-1.16-1.1-.5-.27-1.09-.4-1.75-.4s-1.26.13-1.76.4-.89.63-1.16,1.1c-.27.46-.41.99-.41,1.58s.14,1.12.41,1.58c.27.46.66.83,1.16,1.1.5.27,1.09.4,1.76.4s1.25-.13,1.75-.4c.5-.27.89-.64,1.16-1.1.27-.47.41-.99.41-1.58s-.14-1.11-.41-1.58Z"/>
    <path d="M8.36,199.73v-2.93h.89v4.02H.88v-1.09h7.48Z"/>
    <path d="M.88,194.55h8.36v1.09H.88v-1.09Z"/>
    <path d="M9.24,188.15l-3.82,3.44h3.82v1.09H.88v-1.09h3.88l-3.88-3.46v-1.38l4.19,3.79,4.18-3.83v1.43Z"/>
    <path d="M.88,179.06h8.36v1.09h-3.79v4.26h3.79v1.09H.88v-1.09h3.67v-4.26H.88v-1.09Z"/>
    <path d="M1.77,176.11h2.8v-3.05h.9v3.05h2.88v-3.41h.9v4.5H.87v-4.5h.9v3.41Z"/>
    <path d="M.88,165.89h.89v2.28h7.48v1.09H1.77v2.29h-.89v-5.66Z"/>
    <path d="M9.03,163.38c-.2.44-.47.78-.82,1.03-.35.25-.75.38-1.21.38v-1.16c.39-.04.72-.2.99-.49.27-.28.4-.7.4-1.24s-.13-.93-.39-1.23c-.26-.3-.59-.45-1-.45-.32,0-.58.09-.78.26-.2.18-.35.4-.46.66-.1.26-.22.62-.34,1.07-.14.55-.29.99-.43,1.33-.14.33-.37.62-.68.85-.31.24-.72.35-1.24.35-.46,0-.86-.12-1.21-.35-.35-.23-.62-.56-.82-.98-.19-.42-.29-.9-.29-1.45,0-.78.2-1.43.59-1.93.39-.5.91-.78,1.56-.85v1.2c-.32.04-.6.21-.85.5s-.37.69-.37,1.18c0,.46.12.83.35,1.12.24.29.57.43.99.43.3,0,.55-.09.74-.26.19-.17.34-.38.44-.64.1-.25.21-.61.34-1.06.15-.55.3-1,.45-1.33.15-.34.38-.62.68-.86.31-.24.73-.36,1.25-.36.41,0,.79.11,1.15.32.36.22.65.54.88.96.22.42.34.92.34,1.5s-.1,1.05-.29,1.48Z"/>
    <path d="M.88,152.78h.89v3.64h2.82v-2.95h.89v2.95h3.77v1.09H.88v-4.73Z"/>
    <path d="M.88,150.39h5.29c.74,0,1.3-.18,1.66-.55.36-.36.54-.87.54-1.52s-.18-1.14-.54-1.51c-.36-.36-.91-.55-1.66-.55H.88v-1.09h5.28c.7,0,1.28.14,1.76.42.48.28.83.66,1.06,1.13.23.48.35,1.01.35,1.6s-.12,1.13-.35,1.6c-.23.48-.59.85-1.06,1.13-.48.28-1.06.41-1.76.41H.88v-1.09Z"/>
    <path d="M9.24,136.78v1.09l-6.66,4.39h6.66v1.09H.87v-1.09l6.65-4.39H.87v-1.09h8.38Z"/>
    <path d="M9.24,130.39l-3.82,3.44h3.82v1.09H.88v-1.09h3.88l-3.88-3.46v-1.38l4.19,3.79,4.18-3.83v1.43Z"/>
    <path d="M.88,122.59h.89v2.28h7.48v1.09H1.77v2.29h-.89v-5.66Z"/>
    <path d="M.88,120.15h8.36v1.09H.88v-1.09Z"/>
    <path d="M8.78,116.62c-.36.64-.87,1.15-1.52,1.52-.65.37-1.39.56-2.2.56s-1.55-.19-2.2-.56c-.65-.37-1.16-.88-1.52-1.52-.36-.64-.55-1.35-.55-2.12s.18-1.5.55-2.14c.36-.64.87-1.14,1.52-1.51.65-.37,1.38-.55,2.21-.55s1.56.18,2.21.55c.65.37,1.15.87,1.52,1.51.36.64.55,1.35.55,2.14s-.18,1.48-.55,2.12ZM7.97,112.92c-.27-.47-.66-.84-1.16-1.1-.5-.27-1.09-.4-1.75-.4s-1.26.13-1.76.4c-.5.27-.89.63-1.16,1.1-.27.46-.41.99-.41,1.58s.14,1.12.41,1.58c.27.46.66.83,1.16,1.1.5.27,1.09.4,1.76.4s1.25-.13,1.75-.4c.5-.27.89-.64,1.16-1.1.27-.47.41-.99.41-1.58s-.14-1.11-.41-1.58Z"/>
    <path d="M9.24,102.28v1.09l-6.66,4.39h6.66v1.09H.87v-1.09l6.65-4.39H.87v-1.09h8.38Z"/>
  </g>
  <g>
    <path d="M10.46,15.59h-1.74L1.74,5v10.59H0V2.27h1.74l6.98,10.57V2.27h1.74v13.32Z"/>
    <path d="M15.31,15.09c-.8-.45-1.42-1.08-1.87-1.9-.45-.82-.68-1.77-.68-2.85s.23-2.01.7-2.83c.46-.82,1.1-1.45,1.9-1.89.8-.44,1.7-.66,2.69-.66s1.89.22,2.69.66c.8.44,1.43,1.07,1.9,1.88s.7,1.76.7,2.84-.24,2.03-.72,2.85c-.48.82-1.12,1.45-1.94,1.9-.81.45-1.72.67-2.71.67s-1.87-.22-2.66-.67ZM19.73,13.8c.55-.29.99-.73,1.33-1.32s.51-1.3.51-2.14-.17-1.55-.5-2.14-.76-1.02-1.3-1.31-1.11-.43-1.74-.43-1.22.14-1.75.43-.95.72-1.27,1.31c-.32.59-.48,1.3-.48,2.14s.16,1.57.47,2.16c.31.59.73,1.02,1.25,1.31s1.09.43,1.72.43,1.21-.15,1.76-.44Z"/>
    <path d="M28.67,5.44c.57-.33,1.26-.5,2.07-.5v1.79h-.46c-1.95,0-2.92,1.06-2.92,3.17v5.69h-1.74V5.13h1.74v1.7c.31-.6.74-1.06,1.31-1.39Z"/>
    <path d="M47.5,5.45c.64.34,1.14.84,1.51,1.52.37.67.55,1.5.55,2.46v6.16h-1.72v-5.92c0-1.04-.26-1.84-.77-2.4-.52-.55-1.21-.83-2.09-.83s-1.62.29-2.16.87c-.53.58-.8,1.42-.8,2.51v5.76h-1.72v-5.92c0-1.04-.26-1.84-.77-2.4-.52-.55-1.21-.83-2.09-.83s-1.62.29-2.16.87c-.53.58-.8,1.42-.8,2.51v5.76h-1.74V5.13h1.74v1.51c.34-.55.8-.97,1.38-1.26.58-.29,1.22-.44,1.92-.44.88,0,1.65.2,2.33.59.67.39,1.18.97,1.51,1.74.29-.74.78-1.31,1.45-1.72.67-.41,1.42-.61,2.25-.61s1.54.17,2.18.51Z"/>
    <path d="M52.4,7.51c.43-.81,1.03-1.43,1.78-1.88.76-.45,1.6-.67,2.53-.67s1.71.2,2.39.59,1.18.89,1.51,1.49v-1.91h1.76v10.46h-1.76v-1.95c-.34.61-.86,1.12-1.54,1.52-.68.4-1.47.6-2.38.6s-1.77-.23-2.52-.69-1.34-1.1-1.77-1.93c-.43-.83-.65-1.77-.65-2.82s.22-2.01.65-2.81ZM60.13,8.28c-.32-.59-.75-1.03-1.29-1.35-.54-.31-1.14-.47-1.78-.47s-1.24.15-1.77.46-.96.75-1.28,1.34c-.32.59-.48,1.27-.48,2.06s.16,1.5.48,2.09c.32.59.74,1.04,1.28,1.36s1.13.47,1.77.47,1.24-.16,1.78-.47c.54-.31.97-.76,1.29-1.36s.48-1.28.48-2.07-.16-1.48-.48-2.06Z"/>
    <path d="M67.04,1.47v14.12h-1.74V1.47h1.74Z"/>
    <path d="M74.25,6.56h-2.19v9.03h-1.74V6.56h-1.36v-1.43h1.36v-.74c0-1.17.3-2.03.91-2.57s1.57-.81,2.91-.81v1.45c-.76,0-1.3.15-1.61.45-.31.3-.47.79-.47,1.48v.74h2.19v1.43Z"/>
    <path d="M78.17,15.09c-.8-.45-1.42-1.08-1.87-1.9-.45-.82-.68-1.77-.68-2.85s.23-2.01.7-2.83,1.1-1.45,1.9-1.89c.8-.44,1.7-.66,2.69-.66s1.89.22,2.69.66c.8.44,1.43,1.07,1.9,1.88.46.81.7,1.76.7,2.84s-.24,2.03-.72,2.85c-.48.82-1.12,1.45-1.94,1.9-.81.45-1.72.67-2.71.67s-1.87-.22-2.66-.67ZM82.59,13.8c.55-.29.99-.73,1.33-1.32s.51-1.3.51-2.14-.17-1.55-.5-2.14c-.33-.59-.76-1.02-1.3-1.31-.53-.29-1.11-.43-1.74-.43s-1.22.14-1.75.43-.95.72-1.27,1.31c-.32.59-.48,1.3-.48,2.14s.16,1.57.47,2.16.73,1.02,1.25,1.31c.52.29,1.09.43,1.72.43s1.21-.15,1.76-.44ZM78.67,3.3c-.2-.19-.3-.43-.3-.71s.1-.52.3-.72c.2-.2.44-.3.72-.3s.5.1.7.3c.2.2.3.44.3.72s-.1.52-.3.71c-.2.19-.43.29-.7.29-.28,0-.52-.1-.72-.29ZM81.77,3.3c-.19-.19-.29-.43-.29-.71s.1-.52.29-.72c.19-.2.43-.3.71-.3s.52.1.72.3c.2.2.3.44.3.72s-.1.52-.3.71c-.2.19-.44.29-.72.29s-.51-.1-.71-.29Z"/>
    <path d="M91.53,5.44c.57-.33,1.26-.5,2.07-.5v1.79h-.46c-1.95,0-2.92,1.06-2.92,3.17v5.69h-1.74V5.13h1.74v1.7c.31-.6.74-1.06,1.31-1.39Z"/>
    <path d="M95.6,7.51c.43-.81,1.03-1.43,1.78-1.88.76-.45,1.61-.67,2.55-.67.81,0,1.57.19,2.27.56.7.38,1.23.87,1.6,1.48V1.47h1.76v14.12h-1.76v-1.97c-.34.62-.85,1.14-1.53,1.54s-1.46.6-2.37.6-1.77-.23-2.53-.69-1.35-1.1-1.78-1.93c-.43-.83-.65-1.77-.65-2.82s.22-2.01.65-2.81ZM103.33,8.28c-.32-.59-.75-1.03-1.29-1.35-.54-.31-1.13-.47-1.78-.47s-1.24.15-1.77.46-.96.75-1.28,1.34c-.32.59-.48,1.27-.48,2.06s.16,1.5.48,2.09c.32.59.74,1.04,1.28,1.36s1.13.47,1.77.47,1.24-.16,1.78-.47.97-.76,1.29-1.36c.32-.59.48-1.28.48-2.07s-.16-1.48-.48-2.06Z"/>
    <path d="M117.99,11.01h-8.36c.06,1.03.42,1.84,1.06,2.41s1.42.87,2.34.87c.75,0,1.38-.17,1.88-.52.5-.35.86-.82,1.06-1.4h1.87c-.28,1-.84,1.82-1.68,2.45s-1.88.94-3.13.94c-.99,0-1.88-.22-2.66-.67-.78-.45-1.4-1.08-1.84-1.9-.45-.82-.67-1.77-.67-2.85s.22-2.03.65-2.84,1.04-1.44,1.82-1.88c.78-.44,1.68-.66,2.7-.66s1.87.22,2.63.65,1.35,1.03,1.77,1.78c.41.76.62,1.61.62,2.57,0,.33-.02.68-.06,1.05ZM115.81,7.89c-.29-.48-.69-.84-1.19-1.09s-1.06-.37-1.67-.37c-.88,0-1.62.28-2.24.84-.62.56-.97,1.34-1.06,2.33h6.6c0-.66-.15-1.23-.44-1.71Z"/>
    <path d="M122.07,1.47v14.12h-1.74V1.47h1.74Z"/>
    <path d="M133.21,6.1c.79.77,1.18,1.88,1.18,3.33v6.16h-1.72v-5.92c0-1.04-.26-1.84-.78-2.4s-1.23-.83-2.14-.83-1.64.29-2.18.86c-.54.57-.81,1.41-.81,2.5v5.78h-1.74V5.13h1.74v1.49c.34-.53.81-.95,1.4-1.24.59-.29,1.24-.44,1.96-.44,1.27,0,2.3.38,3.09,1.15Z"/>
    <path d="M137.3,3.09c-.23-.23-.34-.51-.34-.84s.11-.61.34-.84.51-.34.84-.34.59.11.81.34.33.51.33.84-.11.61-.33.84-.49.34-.81.34-.61-.11-.84-.34ZM138.98,5.13v10.46h-1.74V5.13h1.74Z"/>
    <path d="M150.12,6.1c.79.77,1.18,1.88,1.18,3.33v6.16h-1.72v-5.92c0-1.04-.26-1.84-.78-2.4s-1.23-.83-2.14-.83-1.64.29-2.18.86c-.54.57-.81,1.41-.81,2.5v5.78h-1.74V5.13h1.74v1.49c.34-.53.81-.95,1.4-1.24.59-.29,1.24-.44,1.96-.44,1.27,0,2.3.38,3.09,1.15Z"/>
    <path d="M160.84,5.55c.68.39,1.19.89,1.52,1.49v-1.91h1.76v10.69c0,.95-.2,1.8-.61,2.55-.41.74-.99,1.33-1.75,1.75s-1.64.63-2.64.63c-1.37,0-2.52-.32-3.44-.97-.92-.65-1.46-1.53-1.62-2.65h1.72c.19.64.59,1.15,1.18,1.54.6.39,1.32.58,2.16.58.95,0,1.73-.3,2.34-.9s.91-1.44.91-2.52v-2.19c-.34.61-.85,1.12-1.53,1.53-.67.41-1.46.61-2.37.61s-1.77-.23-2.53-.69-1.35-1.1-1.78-1.93c-.43-.83-.65-1.77-.65-2.82s.22-2.01.65-2.81c.43-.81,1.03-1.43,1.78-1.88.76-.45,1.6-.67,2.53-.67s1.7.2,2.38.59ZM161.88,8.28c-.32-.59-.75-1.03-1.29-1.35-.54-.31-1.13-.47-1.78-.47s-1.24.15-1.77.46-.96.75-1.28,1.34c-.32.59-.48,1.27-.48,2.06s.16,1.5.48,2.09c.32.59.74,1.04,1.28,1.36s1.13.47,1.77.47,1.24-.16,1.78-.47.97-.76,1.29-1.36c.32-.59.48-1.28.48-2.07s-.16-1.48-.48-2.06Z"/>
    <path d="M176.53,11.01h-8.36c.06,1.03.42,1.84,1.06,2.41s1.42.87,2.34.87c.75,0,1.38-.17,1.88-.52.5-.35.86-.82,1.06-1.4h1.87c-.28,1-.84,1.82-1.68,2.45s-1.88.94-3.13.94c-.99,0-1.88-.22-2.66-.67-.78-.45-1.4-1.08-1.84-1.9-.45-.82-.67-1.77-.67-2.85s.22-2.03.65-2.84,1.04-1.44,1.82-1.88c.78-.44,1.68-.66,2.7-.66s1.87.22,2.63.65,1.35,1.03,1.77,1.78c.41.76.62,1.61.62,2.57,0,.33-.02.68-.06,1.05ZM174.35,7.89c-.29-.48-.69-.84-1.19-1.09s-1.06-.37-1.67-.37c-.88,0-1.62.28-2.24.84-.62.56-.97,1.34-1.06,2.33h6.6c0-.66-.15-1.23-.44-1.71Z"/>
    <path d="M187.06,6.1c.79.77,1.18,1.88,1.18,3.33v6.16h-1.72v-5.92c0-1.04-.26-1.84-.78-2.4s-1.23-.83-2.14-.83-1.64.29-2.19.86c-.54.57-.81,1.41-.81,2.5v5.78h-1.74V5.13h1.74v1.49c.34-.53.81-.95,1.4-1.24s1.24-.44,1.96-.44c1.27,0,2.3.38,3.09,1.15Z"/>
    <path d="M196.19,7.51c.43-.81,1.03-1.43,1.78-1.88.76-.45,1.6-.67,2.53-.67s1.71.2,2.39.59,1.18.89,1.51,1.49v-1.91h1.76v10.46h-1.76v-1.95c-.34.61-.86,1.12-1.54,1.52s-1.47.6-2.38.6-1.77-.23-2.52-.69-1.34-1.1-1.77-1.93c-.43-.83-.65-1.77-.65-2.82s.22-2.01.65-2.81ZM203.91,8.28c-.32-.59-.75-1.03-1.29-1.35-.54-.31-1.13-.47-1.78-.47s-1.24.15-1.77.46-.96.75-1.28,1.34c-.32.59-.48,1.27-.48,2.06s.16,1.5.48,2.09c.32.59.74,1.04,1.28,1.36s1.13.47,1.77.47,1.24-.16,1.78-.47.97-.76,1.29-1.36c.32-.59.48-1.28.48-2.07s-.16-1.48-.48-2.06Z"/>
    <path d="M212.98,13.99l3.24-8.85h1.85l-4.1,10.46h-2.02l-4.1-10.46h1.87l3.26,8.85Z"/>
    <path d="M224.89,7.51c.43-.81,1.03-1.43,1.78-1.88.76-.45,1.6-.67,2.53-.67s1.71.2,2.39.59,1.18.89,1.51,1.49v-1.91h1.76v10.46h-1.76v-1.95c-.34.61-.86,1.12-1.54,1.52-.68.4-1.47.6-2.38.6s-1.77-.23-2.52-.69-1.34-1.1-1.77-1.93c-.43-.83-.65-1.77-.65-2.82s.22-2.01.65-2.81ZM232.61,8.28c-.32-.59-.75-1.03-1.29-1.35-.54-.31-1.14-.47-1.78-.47s-1.24.15-1.77.46-.96.75-1.28,1.34c-.32.59-.48,1.27-.48,2.06s.16,1.5.48,2.09c.32.59.74,1.04,1.28,1.36s1.13.47,1.77.47,1.24-.16,1.78-.47c.54-.31.97-.76,1.29-1.36s.48-1.28.48-2.07-.16-1.48-.48-2.06ZM231.34,3.46c-.39.36-.87.54-1.46.54s-1.06-.18-1.45-.55c-.39-.37-.59-.85-.59-1.45s.2-1.08.59-1.45c.39-.37.88-.55,1.45-.55s1.07.18,1.46.54.58.85.58,1.46-.19,1.1-.58,1.46ZM230.62,1.21c-.2-.2-.44-.3-.73-.3s-.54.1-.73.3c-.2.2-.3.46-.3.77s.1.58.3.78.44.31.73.31.54-.1.73-.31.3-.46.3-.78-.1-.58-.3-.77Z"/>
    <path d="M239.52,1.47v14.12h-1.74V1.47h1.74Z"/>
    <path d="M242.48,7.51c.43-.81,1.03-1.43,1.78-1.88.76-.45,1.61-.67,2.55-.67.81,0,1.57.19,2.27.56.7.38,1.23.87,1.6,1.48V1.47h1.76v14.12h-1.76v-1.97c-.34.62-.85,1.14-1.53,1.54s-1.46.6-2.37.6-1.77-.23-2.53-.69c-.76-.46-1.35-1.1-1.78-1.93-.43-.83-.65-1.77-.65-2.82s.22-2.01.65-2.81ZM250.21,8.28c-.32-.59-.75-1.03-1.29-1.35-.54-.31-1.14-.47-1.78-.47s-1.24.15-1.77.46-.96.75-1.28,1.34c-.32.59-.48,1.27-.48,2.06s.16,1.5.48,2.09c.32.59.74,1.04,1.28,1.36s1.13.47,1.77.47,1.24-.16,1.78-.47c.54-.31.97-.76,1.29-1.36s.48-1.28.48-2.07-.16-1.48-.48-2.06Z"/>
    <path d="M264.86,11.01h-8.36c.06,1.03.42,1.84,1.06,2.41s1.42.87,2.34.87c.75,0,1.38-.17,1.88-.52.5-.35.86-.82,1.06-1.4h1.87c-.28,1-.84,1.82-1.68,2.45s-1.88.94-3.13.94c-.99,0-1.88-.22-2.66-.67-.78-.45-1.4-1.08-1.84-1.9-.45-.82-.67-1.77-.67-2.85s.22-2.03.65-2.84c.43-.81,1.04-1.44,1.82-1.88.78-.44,1.68-.66,2.7-.66s1.87.22,2.63.65,1.35,1.03,1.77,1.78c.41.76.62,1.61.62,2.57,0,.33-.02.68-.06,1.05ZM262.69,7.89c-.29-.48-.69-.84-1.19-1.09-.5-.25-1.06-.37-1.67-.37-.88,0-1.62.28-2.24.84-.62.56-.97,1.34-1.06,2.33h6.6c0-.66-.15-1.23-.44-1.71Z"/>
    <path d="M270.25,5.44c.57-.33,1.26-.5,2.07-.5v1.79h-.46c-1.95,0-2.92,1.06-2.92,3.17v5.69h-1.74V5.13h1.74v1.7c.31-.6.74-1.06,1.31-1.39Z"/>
    <path d="M283.68,6.56h-2.19v9.03h-1.74V6.56h-1.35v-1.43h1.35v-.74c0-1.17.3-2.03.91-2.57s1.57-.81,2.91-.81v1.45c-.76,0-1.3.15-1.61.45-.31.3-.47.79-.47,1.48v.74h2.19v1.43Z"/>
    <path d="M287.6,15.09c-.8-.45-1.42-1.08-1.87-1.9-.45-.82-.68-1.77-.68-2.85s.23-2.01.7-2.83c.46-.82,1.1-1.45,1.9-1.89.8-.44,1.7-.66,2.69-.66s1.89.22,2.69.66c.8.44,1.43,1.07,1.9,1.88s.7,1.76.7,2.84-.24,2.03-.72,2.85c-.48.82-1.12,1.45-1.94,1.9-.81.45-1.72.67-2.71.67s-1.87-.22-2.66-.67ZM292.02,13.8c.55-.29.99-.73,1.33-1.32s.51-1.3.51-2.14-.17-1.55-.5-2.14-.76-1.02-1.3-1.31-1.11-.43-1.74-.43-1.22.14-1.75.43-.95.72-1.27,1.31-.48,1.3-.48,2.14.16,1.57.47,2.16c.31.59.73,1.02,1.25,1.31s1.09.43,1.72.43,1.21-.15,1.76-.44ZM288.1,3.3c-.2-.19-.3-.43-.3-.71s.1-.52.3-.72c.2-.2.43-.3.72-.3s.5.1.7.3c.2.2.3.44.3.72s-.1.52-.3.71c-.2.19-.43.29-.7.29-.28,0-.52-.1-.72-.29ZM291.2,3.3c-.19-.19-.29-.43-.29-.71s.1-.52.29-.72c.19-.2.43-.3.71-.3s.52.1.72.3c.2.2.3.44.3.72s-.1.52-.3.71-.44.29-.72.29-.52-.1-.71-.29Z"/>
    <path d="M300.96,5.44c.57-.33,1.26-.5,2.07-.5v1.79h-.46c-1.95,0-2.92,1.06-2.92,3.17v5.69h-1.74V5.13h1.74v1.7c.31-.6.74-1.06,1.31-1.39Z"/>
    <path d="M311.86,0v15.59h-1.74V0h1.74Z"/>
    <path d="M323.01,6.1c.79.77,1.18,1.88,1.18,3.33v6.16h-1.72v-5.92c0-1.04-.26-1.84-.78-2.4s-1.23-.83-2.14-.83-1.64.29-2.18.86c-.54.57-.81,1.41-.81,2.5v5.78h-1.74V5.13h1.74v1.49c.34-.53.81-.95,1.4-1.24.59-.29,1.24-.44,1.96-.44,1.27,0,2.3.38,3.09,1.15Z"/>
    <path d="M328.58,15.35c-.64-.27-1.14-.65-1.51-1.14-.37-.49-.57-1.05-.61-1.69h1.79c.05.52.3.95.73,1.28.44.33,1.01.5,1.73.5.66,0,1.18-.15,1.56-.44.38-.29.57-.66.57-1.11s-.2-.8-.61-1.02c-.41-.22-1.04-.44-1.89-.66-.78-.2-1.41-.41-1.9-.62s-.91-.52-1.26-.93c-.35-.41-.53-.96-.53-1.63,0-.53.16-1.02.48-1.47.32-.45.77-.8,1.36-1.06.58-.26,1.25-.39,2-.39,1.16,0,2.09.29,2.81.88.71.59,1.09,1.39,1.14,2.4h-1.74c-.04-.55-.26-.99-.66-1.32-.4-.33-.94-.5-1.61-.5-.62,0-1.12.13-1.49.4-.37.27-.55.62-.55,1.05,0,.34.11.63.33.85s.5.4.84.53c.34.13.8.28,1.4.45.75.2,1.36.4,1.83.6.47.2.87.49,1.21.89.34.39.51.91.52,1.55,0,.57-.16,1.09-.48,1.55-.32.46-.77.82-1.35,1.08-.58.26-1.24.39-1.99.39-.8,0-1.52-.14-2.16-.41Z"/>
    <path d="M339.11,6.56v6.16c0,.51.11.87.32,1.08s.59.31,1.13.31h1.28v1.47h-1.57c-.97,0-1.69-.22-2.18-.67s-.73-1.18-.73-2.19v-6.16h-1.36v-1.43h1.36v-2.63h1.74v2.63h2.73v1.43h-2.73Z"/>
    <path d="M343.94,7.51c.43-.81,1.03-1.43,1.78-1.88.76-.45,1.6-.67,2.53-.67s1.71.2,2.39.59c.67.39,1.18.89,1.51,1.49v-1.91h1.76v10.46h-1.76v-1.95c-.34.61-.86,1.12-1.54,1.52s-1.47.6-2.38.6-1.77-.23-2.52-.69c-.75-.46-1.34-1.1-1.77-1.93-.43-.83-.65-1.77-.65-2.82s.22-2.01.65-2.81ZM351.67,8.28c-.32-.59-.75-1.03-1.29-1.35-.54-.31-1.13-.47-1.78-.47s-1.24.15-1.77.46-.96.75-1.28,1.34-.48,1.27-.48,2.06.16,1.5.48,2.09.74,1.04,1.28,1.36,1.13.47,1.77.47,1.24-.16,1.78-.47c.54-.31.97-.76,1.29-1.36.32-.59.48-1.28.48-2.07s-.16-1.48-.48-2.06Z"/>
    <path d="M363.53,5.55c.68.39,1.19.89,1.52,1.49v-1.91h1.76v10.69c0,.95-.2,1.8-.61,2.55-.41.74-.99,1.33-1.75,1.75s-1.64.63-2.64.63c-1.37,0-2.52-.32-3.44-.97-.92-.65-1.46-1.53-1.62-2.65h1.72c.19.64.58,1.15,1.18,1.54.6.39,1.32.58,2.16.58.95,0,1.73-.3,2.34-.9s.91-1.44.91-2.52v-2.19c-.34.61-.85,1.12-1.53,1.53-.67.41-1.46.61-2.37.61s-1.77-.23-2.53-.69-1.35-1.1-1.78-1.93c-.43-.83-.65-1.77-.65-2.82s.22-2.01.65-2.81c.43-.81,1.03-1.43,1.78-1.88.76-.45,1.6-.67,2.53-.67s1.69.2,2.38.59ZM364.57,8.28c-.32-.59-.75-1.03-1.29-1.35-.54-.31-1.13-.47-1.78-.47s-1.24.15-1.77.46-.96.75-1.28,1.34-.48,1.27-.48,2.06.16,1.5.48,2.09.74,1.04,1.28,1.36,1.13.47,1.77.47,1.24-.16,1.78-.47c.54-.31.97-.76,1.29-1.36.32-.59.48-1.28.48-2.07s-.16-1.48-.48-2.06Z"/>
    <path d="M372.79,5.44c.57-.33,1.26-.5,2.07-.5v1.79h-.46c-1.95,0-2.92,1.06-2.92,3.17v5.69h-1.74V5.13h1.74v1.7c.31-.6.74-1.06,1.31-1.39Z"/>
    <path d="M376.86,7.51c.43-.81,1.03-1.43,1.78-1.88.76-.45,1.6-.67,2.53-.67s1.71.2,2.39.59c.67.39,1.18.89,1.51,1.49v-1.91h1.76v10.46h-1.76v-1.95c-.34.61-.86,1.12-1.54,1.52s-1.47.6-2.38.6-1.77-.23-2.52-.69c-.75-.46-1.34-1.1-1.77-1.93-.43-.83-.65-1.77-.65-2.82s.22-2.01.65-2.81ZM384.59,8.28c-.32-.59-.75-1.03-1.29-1.35-.54-.31-1.13-.47-1.78-.47s-1.24.15-1.77.46-.96.75-1.28,1.34-.48,1.27-.48,2.06.16,1.5.48,2.09.74,1.04,1.28,1.36,1.13.47,1.77.47,1.24-.16,1.78-.47c.54-.31.97-.76,1.29-1.36.32-.59.48-1.28.48-2.07s-.16-1.48-.48-2.06Z"/>
    <path d="M404.51,5.45c.64.34,1.14.84,1.51,1.52.37.67.55,1.5.55,2.46v6.16h-1.72v-5.92c0-1.04-.26-1.84-.77-2.4-.52-.55-1.21-.83-2.09-.83s-1.62.29-2.16.87c-.53.58-.8,1.42-.8,2.51v5.76h-1.72v-5.92c0-1.04-.26-1.84-.77-2.4-.51-.55-1.21-.83-2.09-.83s-1.62.29-2.16.87c-.53.58-.8,1.42-.8,2.51v5.76h-1.74V5.13h1.74v1.51c.34-.55.8-.97,1.38-1.26.58-.29,1.22-.44,1.92-.44.88,0,1.65.2,2.33.59s1.18.97,1.51,1.74c.29-.74.78-1.31,1.45-1.72.67-.41,1.43-.61,2.25-.61s1.54.17,2.18.51Z"/>
  </g>
  <g>
    <path d="M108.34,293.65c.58-.52,1.06-1.07,1.46-1.64.4-.57.59-1.13.59-1.69,0-.52-.13-.93-.38-1.23s-.66-.45-1.22-.45-.97.17-1.27.51c-.3.34-.46.79-.49,1.36h-1.06c.03-.9.3-1.59.82-2.08.51-.49,1.17-.73,1.98-.73s1.48.23,1.96.68c.48.46.73,1.08.73,1.88,0,.66-.2,1.31-.59,1.94s-.85,1.18-1.35,1.66-1.15,1.03-1.93,1.66h4.13v.91h-5.77v-.78c1.02-.82,1.81-1.49,2.39-2.01Z"/>
    <path d="M115.24,293.65c.58-.52,1.06-1.07,1.46-1.64.4-.57.59-1.13.59-1.69,0-.52-.13-.93-.38-1.23s-.66-.45-1.22-.45-.97.17-1.27.51c-.3.34-.46.79-.49,1.36h-1.06c.03-.9.3-1.59.82-2.08.51-.49,1.17-.73,1.98-.73s1.48.23,1.96.68c.48.46.73,1.08.73,1.88,0,.66-.2,1.31-.59,1.94s-.85,1.18-1.35,1.66-1.15,1.03-1.93,1.66h4.13v.91h-5.77v-.78c1.02-.82,1.81-1.49,2.39-2.01Z"/>
  </g>
  <g>
    <path d="M132.87,293.67c.58-.52,1.06-1.07,1.46-1.64.4-.57.59-1.13.59-1.69,0-.52-.13-.93-.38-1.23s-.66-.45-1.22-.45-.97.17-1.27.51c-.3.34-.46.79-.49,1.36h-1.06c.03-.9.3-1.59.82-2.08.51-.49,1.17-.73,1.98-.73s1.48.23,1.96.68c.48.46.73,1.08.73,1.88,0,.66-.2,1.31-.59,1.94s-.85,1.18-1.35,1.66-1.15,1.03-1.93,1.66h4.13v.91h-5.77v-.78c1.02-.82,1.81-1.49,2.39-2.01Z"/>
    <path d="M143.05,288.83h-4.21v2.74c.18-.26.46-.47.82-.63.36-.16.75-.25,1.16-.25.66,0,1.2.14,1.62.41s.71.63.89,1.07c.18.44.27.9.27,1.39,0,.58-.11,1.09-.32,1.55-.22.46-.55.82-.99,1.08-.44.26-.99.4-1.65.4-.84,0-1.52-.22-2.04-.65-.52-.43-.84-1.01-.95-1.73h1.07c.1.46.32.81.66,1.07s.76.38,1.27.38c.63,0,1.11-.19,1.43-.57.32-.38.48-.88.48-1.51s-.16-1.11-.48-1.45c-.32-.34-.79-.51-1.42-.51-.42,0-.79.1-1.11.31s-.55.48-.69.83h-1.03v-4.9h5.22v.96Z"/>
  </g>
  <g>
    <path d="M160.46,293.63c.58-.52,1.06-1.07,1.46-1.64.4-.57.59-1.13.59-1.69,0-.52-.13-.93-.38-1.23s-.66-.45-1.22-.45-.97.17-1.27.51c-.3.34-.46.79-.49,1.36h-1.06c.03-.9.3-1.59.82-2.08.51-.49,1.17-.73,1.98-.73s1.48.23,1.96.68c.48.46.73,1.08.73,1.88,0,.66-.2,1.31-.59,1.94s-.85,1.18-1.35,1.66-1.15,1.03-1.93,1.66h4.13v.91h-5.77v-.78c1.02-.82,1.81-1.49,2.39-2.01Z"/>
    <path d="M165.66,291.24c-.24-.34-.36-.74-.36-1.22,0-.43.11-.82.32-1.17.22-.35.54-.62.97-.83.43-.2.95-.31,1.55-.31s1.13.1,1.55.31c.43.2.75.48.97.83.22.35.33.74.33,1.17,0,.46-.12.87-.37,1.22-.25.35-.59.61-1.02.77.5.15.89.42,1.18.8s.44.84.44,1.37-.13.97-.38,1.36c-.26.39-.62.69-1.09.9-.47.21-1.01.32-1.61.32s-1.14-.11-1.6-.32c-.46-.21-.82-.51-1.07-.9-.26-.39-.38-.84-.38-1.36s.14-1,.43-1.38.68-.65,1.18-.79c-.45-.18-.79-.43-1.03-.77ZM166.69,292.9c-.38.28-.56.69-.56,1.24,0,.51.18.92.55,1.24.36.31.85.47,1.47.47s1.1-.16,1.46-.47c.36-.31.54-.72.54-1.24s-.18-.95-.55-1.23c-.37-.28-.85-.43-1.45-.43s-1.08.14-1.45.41ZM169.46,289.02c-.32-.26-.76-.4-1.32-.4s-.99.13-1.31.4c-.32.26-.48.64-.48,1.14,0,.45.17.81.5,1.08.33.27.76.41,1.29.41s.97-.14,1.3-.41c.33-.28.5-.64.5-1.09,0-.49-.16-.86-.48-1.13Z"/>
  </g>
  <g>
    <path d="M314.48,294.55v-.83l4.21-5.83h1.31v5.71h1.2v.95h-1.2v1.93h-1.08v-1.93h-4.44ZM318.97,289.03l-3.23,4.57h3.23v-4.57Z"/>
    <path d="M325.48,288.54c-.71,0-1.24.27-1.6.82s-.52,1.45-.52,2.71c.18-.42.49-.74.92-.98.43-.24.91-.35,1.43-.35.82,0,1.48.26,1.97.77.49.51.74,1.22.74,2.12,0,.54-.11,1.03-.32,1.46-.21.43-.53.78-.96,1.03-.43.26-.95.38-1.55.38-.82,0-1.47-.18-1.93-.55-.46-.37-.79-.88-.97-1.52-.18-.65-.28-1.45-.28-2.4,0-2.94,1.02-4.4,3.07-4.4.78,0,1.4.21,1.85.64s.71.96.79,1.61h-1.01c-.18-.89-.72-1.33-1.64-1.33ZM324.52,291.87c-.3.14-.55.35-.74.64-.19.28-.28.63-.28,1.04,0,.61.18,1.1.53,1.48s.86.57,1.51.57c.56,0,1.01-.17,1.34-.52.33-.35.5-.82.5-1.41,0-.62-.16-1.11-.48-1.47-.32-.36-.79-.53-1.4-.53-.34,0-.67.07-.97.21Z"/>
  </g>
  <g>
    <path d="M340.13,294.55v-.83l4.21-5.83h1.31v5.71h1.2v.95h-1.2v1.93h-1.08v-1.93h-4.44ZM344.62,289.03l-3.23,4.57h3.23v-4.57Z"/>
    <path d="M349.91,295.21c.29.25.69.37,1.18.37.66,0,1.15-.26,1.47-.78.32-.52.47-1.4.45-2.63-.17.36-.45.64-.84.85-.39.2-.83.31-1.31.31-.54,0-1.01-.11-1.43-.33-.42-.22-.75-.54-.99-.97-.24-.42-.36-.94-.36-1.54,0-.86.25-1.55.74-2.07.5-.52,1.2-.79,2.11-.79,1.12,0,1.91.36,2.36,1.09s.68,1.81.68,3.25c0,1.01-.09,1.84-.27,2.5s-.48,1.16-.91,1.5c-.43.34-1.01.52-1.76.52-.82,0-1.45-.22-1.91-.66-.46-.44-.72-1-.78-1.68h1.01c.08.46.27.81.56,1.06ZM352.36,291.91c.34-.33.52-.78.52-1.35,0-.6-.17-1.08-.5-1.45s-.81-.55-1.42-.55c-.56,0-1.01.18-1.34.53-.33.35-.5.82-.5,1.39s.16,1.05.49,1.4c.33.35.8.53,1.43.53.54,0,.98-.17,1.32-.5Z"/>
  </g>
  <g>
    <path d="M372.4,288.69h-4.21v2.74c.18-.26.46-.47.82-.63.36-.16.75-.25,1.16-.25.66,0,1.2.14,1.62.41s.71.63.89,1.07c.18.44.27.9.27,1.39,0,.58-.11,1.09-.32,1.55-.22.46-.55.82-.99,1.08-.44.26-.99.4-1.65.4-.84,0-1.52-.22-2.04-.65-.52-.43-.84-1.01-.95-1.73h1.07c.1.46.32.81.66,1.07s.76.38,1.27.38c.63,0,1.11-.19,1.43-.57.32-.38.48-.88.48-1.51s-.16-1.11-.48-1.45c-.32-.34-.79-.51-1.42-.51-.42,0-.79.1-1.11.31s-.55.48-.69.83h-1.03v-4.9h5.22v.96Z"/>
    <path d="M376.66,293.53c.58-.52,1.06-1.07,1.46-1.64.4-.57.59-1.13.59-1.69,0-.52-.13-.93-.38-1.23s-.66-.45-1.22-.45-.97.17-1.27.51c-.3.34-.46.79-.49,1.36h-1.06c.03-.9.3-1.59.82-2.08.51-.49,1.17-.73,1.98-.73s1.48.23,1.96.68c.48.46.73,1.08.73,1.88,0,.66-.2,1.31-.59,1.94s-.85,1.18-1.35,1.66-1.15,1.03-1.93,1.66h4.13v.91h-5.77v-.78c1.02-.82,1.81-1.49,2.39-2.01Z"/>
  </g>
  <g>
    <path d="M209.99,288.23c.51-.42,1.18-.62,1.99-.62.54,0,1.01.1,1.41.29.4.2.7.46.9.8s.31.72.31,1.14c0,.5-.14.92-.43,1.28s-.65.59-1.11.7v.06c.52.13.93.38,1.24.76.3.38.46.87.46,1.48,0,.46-.1.87-.31,1.23-.21.36-.52.65-.94.86s-.92.31-1.5.31c-.85,0-1.54-.22-2.09-.67-.54-.44-.85-1.07-.91-1.89h1.06c.06.48.25.87.59,1.18.34.3.78.46,1.34.46s.99-.15,1.28-.44.44-.67.44-1.13c0-.6-.2-1.03-.6-1.3-.4-.26-1-.4-1.81-.4h-.28v-.91h.29c.74,0,1.29-.13,1.67-.37.38-.24.56-.6.56-1.1,0-.42-.14-.76-.41-1.02-.28-.26-.67-.38-1.18-.38s-.9.13-1.2.38c-.3.26-.48.6-.54,1.03h-1.07c.06-.74.34-1.31.85-1.73Z"/>
    <path d="M215.97,294.52v-.83l4.21-5.83h1.31v5.71h1.2v.95h-1.2v1.93h-1.08v-1.93h-4.44ZM220.45,289l-3.23,4.57h3.23v-4.57Z"/>
  </g>
  <g>
    <path d="M238.25,288.24c.51-.42,1.18-.62,1.99-.62.54,0,1.01.1,1.41.29.4.2.7.46.9.8s.31.72.31,1.14c0,.5-.14.92-.43,1.28s-.65.59-1.11.7v.06c.52.13.93.38,1.24.76.3.38.46.87.46,1.48,0,.46-.1.87-.31,1.23-.21.36-.52.65-.94.86s-.92.31-1.5.31c-.85,0-1.54-.22-2.09-.67-.54-.44-.85-1.07-.91-1.89h1.06c.06.48.25.87.59,1.18.34.3.78.46,1.34.46s.99-.15,1.28-.44.44-.67.44-1.13c0-.6-.2-1.03-.6-1.3-.4-.26-1-.4-1.81-.4h-.28v-.91h.29c.74,0,1.29-.13,1.67-.37.38-.24.56-.6.56-1.1,0-.42-.14-.76-.41-1.02-.28-.26-.67-.38-1.18-.38s-.9.13-1.2.38c-.3.26-.48.6-.54,1.03h-1.07c.06-.74.34-1.31.85-1.73Z"/>
    <path d="M249.83,288.64l-3.34,7.82h-1.1l3.38-7.72h-4.63v-.94h5.69v.83Z"/>
  </g>
  <g>
    <path d="M261.8,294.48v-.83l4.21-5.83h1.31v5.71h1.2v.95h-1.2v1.93h-1.08v-1.93h-4.44ZM266.29,288.96l-3.23,4.57h3.23v-4.57Z"/>
    <path d="M270.29,288.76c.45-.77,1.23-1.16,2.35-1.16s1.89.39,2.34,1.16c.45.77.67,1.85.67,3.22s-.22,2.49-.67,3.26c-.45.78-1.23,1.16-2.34,1.16s-1.9-.39-2.35-1.16c-.45-.78-.67-1.86-.67-3.26s.22-2.45.67-3.22ZM274.43,290.21c-.09-.48-.28-.87-.56-1.17s-.69-.44-1.23-.44-.96.15-1.24.44-.47.69-.56,1.17c-.09.48-.14,1.07-.14,1.77s.05,1.32.14,1.81c.09.49.28.88.56,1.18.28.3.7.44,1.24.44s.95-.15,1.23-.44c.28-.3.47-.69.56-1.18.09-.49.14-1.09.14-1.81s-.05-1.29-.14-1.77Z"/>
  </g>
  <g>
    <path d="M426.34,288.72h-4.21v2.74c.18-.26.46-.47.82-.63.36-.16.75-.25,1.16-.25.66,0,1.2.14,1.62.41s.71.63.89,1.07c.18.44.27.9.27,1.39,0,.58-.11,1.09-.32,1.55-.22.46-.55.82-.99,1.08-.44.26-.99.4-1.65.4-.84,0-1.52-.22-2.04-.65-.52-.43-.84-1.01-.95-1.73h1.07c.1.46.32.81.66,1.07s.76.38,1.27.38c.63,0,1.11-.19,1.43-.57.32-.38.48-.88.48-1.51s-.16-1.11-.48-1.45c-.32-.34-.79-.51-1.42-.51-.42,0-.79.1-1.11.31s-.55.48-.69.83h-1.03v-4.9h5.22v.96Z"/>
    <path d="M428.9,291.17c-.24-.34-.36-.74-.36-1.22,0-.43.11-.82.32-1.17.22-.35.54-.62.97-.83.43-.2.95-.31,1.55-.31s1.13.1,1.55.31.75.48.97.83c.22.35.33.74.33,1.17,0,.46-.12.87-.37,1.22-.25.35-.59.61-1.02.77.5.15.89.42,1.18.8s.44.84.44,1.37-.13.97-.38,1.36c-.26.39-.62.69-1.09.9-.47.21-1.01.32-1.61.32s-1.14-.11-1.6-.32c-.46-.21-.82-.51-1.07-.9-.26-.39-.38-.84-.38-1.36s.14-1,.43-1.38.68-.65,1.18-.79c-.45-.18-.79-.43-1.03-.77ZM429.93,292.83c-.38.28-.56.69-.56,1.24,0,.51.18.92.55,1.24.36.31.85.47,1.47.47s1.1-.16,1.46-.47c.36-.31.54-.72.54-1.24s-.18-.95-.55-1.23c-.37-.28-.85-.43-1.45-.43s-1.08.14-1.45.41ZM432.7,288.95c-.32-.26-.76-.4-1.32-.4s-.99.13-1.31.4c-.32.26-.48.64-.48,1.14,0,.45.17.81.5,1.08.33.27.76.41,1.29.41s.97-.14,1.3-.41c.33-.28.5-.64.5-1.09,0-.49-.16-.86-.48-1.13Z"/>
  </g>
  <g>
    <path d="M450.58,288.43c-.71,0-1.24.27-1.6.82-.35.55-.52,1.45-.52,2.71.18-.42.49-.74.92-.98.43-.24.91-.35,1.43-.35.82,0,1.48.26,1.97.77.49.51.74,1.22.74,2.12,0,.54-.11,1.03-.32,1.46-.21.43-.53.78-.96,1.03-.43.26-.95.38-1.55.38-.82,0-1.47-.18-1.93-.55-.46-.37-.79-.88-.97-1.52-.18-.65-.28-1.45-.28-2.4,0-2.94,1.02-4.4,3.07-4.4.78,0,1.4.21,1.85.64s.71.96.79,1.61h-1.01c-.18-.89-.72-1.33-1.64-1.33ZM449.63,291.76c-.3.14-.55.35-.74.64-.19.28-.28.63-.28,1.04,0,.61.18,1.1.53,1.48.35.38.86.57,1.51.57.56,0,1.01-.17,1.34-.52.33-.35.5-.82.5-1.41,0-.62-.16-1.11-.48-1.47-.32-.36-.79-.53-1.4-.53-.34,0-.67.07-.97.21Z"/>
    <path d="M454.73,288.69v-1h2.26v8.68h-1.1v-7.68h-1.15Z"/>
  </g>
  <g>
    <path d="M475.56,288.4c-.71,0-1.24.27-1.6.82-.35.55-.52,1.45-.52,2.71.18-.42.49-.74.92-.98.43-.24.91-.35,1.43-.35.82,0,1.48.26,1.97.77.49.51.74,1.22.74,2.12,0,.54-.11,1.03-.32,1.46-.21.43-.53.78-.96,1.03-.43.26-.95.38-1.55.38-.82,0-1.47-.18-1.93-.55-.46-.37-.79-.88-.97-1.52-.18-.65-.28-1.45-.28-2.4,0-2.94,1.02-4.4,3.07-4.4.78,0,1.4.21,1.85.64s.71.96.79,1.61h-1.01c-.18-.89-.72-1.33-1.64-1.33ZM474.6,291.73c-.3.14-.55.35-.74.64-.19.28-.28.63-.28,1.04,0,.61.18,1.1.53,1.48.35.38.86.57,1.51.57.56,0,1.01-.17,1.34-.52.33-.35.5-.82.5-1.41,0-.62-.16-1.11-.48-1.47-.32-.36-.79-.53-1.4-.53-.34,0-.67.07-.97.21Z"/>
    <path d="M479.73,294.41v-.83l4.21-5.83h1.31v5.71h1.2v.95h-1.2v1.93h-1.08v-1.93h-4.44ZM484.21,288.89l-3.23,4.57h3.23v-4.57Z"/>
  </g>
  <g>
    <path d="M502.33,288.48c-.71,0-1.24.27-1.6.82-.35.55-.52,1.45-.52,2.71.18-.42.49-.74.92-.98.43-.24.91-.35,1.43-.35.82,0,1.48.26,1.97.77.49.51.74,1.22.74,2.12,0,.54-.11,1.03-.32,1.46-.21.43-.53.78-.96,1.03-.43.26-.95.38-1.55.38-.82,0-1.47-.18-1.93-.55-.46-.37-.79-.88-.97-1.52-.18-.65-.28-1.45-.28-2.4,0-2.94,1.02-4.4,3.07-4.4.78,0,1.4.21,1.85.64s.71.96.79,1.61h-1.01c-.18-.89-.72-1.33-1.64-1.33ZM501.37,291.81c-.3.14-.55.35-.74.64-.19.28-.28.63-.28,1.04,0,.61.18,1.1.53,1.48.35.38.86.57,1.51.57.56,0,1.01-.17,1.34-.52.33-.35.5-.82.5-1.41,0-.62-.16-1.11-.48-1.47-.32-.36-.79-.53-1.4-.53-.34,0-.67.07-.97.21Z"/>
    <path d="M512.1,288.6l-3.34,7.82h-1.1l3.38-7.72h-4.63v-.94h5.69v.83Z"/>
  </g>
  <g>
    <path d="M530.94,288.65l-3.34,7.82h-1.1l3.38-7.72h-4.63v-.94h5.69v.83Z"/>
    <path d="M532.83,288.82c.45-.77,1.23-1.16,2.35-1.16s1.89.39,2.34,1.16c.45.77.67,1.85.67,3.22s-.22,2.49-.67,3.26c-.45.78-1.23,1.16-2.34,1.16s-1.9-.39-2.35-1.16c-.45-.78-.67-1.86-.67-3.26s.22-2.45.67-3.22ZM536.97,290.27c-.09-.48-.28-.87-.56-1.17-.28-.3-.69-.44-1.23-.44s-.96.15-1.24.44-.47.69-.56,1.17c-.09.48-.14,1.07-.14,1.77s.05,1.32.14,1.81c.09.49.28.88.56,1.18.28.3.7.44,1.24.44s.95-.15,1.23-.44c.28-.3.47-.69.56-1.18.09-.49.14-1.09.14-1.81s-.05-1.29-.14-1.77Z"/>
  </g>
  <g>
    <path d="M557.27,288.64l-3.34,7.82h-1.1l3.38-7.72h-4.63v-.94h5.69v.83Z"/>
    <path d="M559.31,288.24c.51-.42,1.18-.62,1.99-.62.54,0,1.01.1,1.41.29.4.2.7.46.9.8s.31.72.31,1.14c0,.5-.14.92-.43,1.28s-.65.59-1.11.7v.06c.52.13.93.38,1.24.76.3.38.46.87.46,1.48,0,.46-.1.87-.31,1.23-.21.36-.52.65-.94.86s-.92.31-1.5.31c-.85,0-1.54-.22-2.09-.67-.54-.44-.85-1.07-.91-1.89h1.06c.06.48.25.87.59,1.18.34.3.78.46,1.34.46s.99-.15,1.28-.44.44-.67.44-1.13c0-.6-.2-1.03-.6-1.3-.4-.26-1-.4-1.81-.4h-.28v-.91h.29c.74,0,1.29-.13,1.67-.37.38-.24.56-.6.56-1.1,0-.42-.14-.76-.41-1.02-.28-.26-.67-.38-1.18-.38s-.9.13-1.2.38c-.3.26-.48.6-.54,1.03h-1.07c.06-.74.34-1.31.85-1.73Z"/>
  </g>
  <g>
    <path d="M582.7,288.61l-3.34,7.82h-1.1l3.38-7.72h-4.63v-.94h5.69v.83Z"/>
    <path d="M587.1,288.49c-.71,0-1.24.27-1.6.82-.35.55-.52,1.45-.52,2.71.18-.42.49-.74.92-.98.43-.24.91-.35,1.43-.35.82,0,1.48.26,1.97.77.49.51.74,1.22.74,2.12,0,.54-.11,1.03-.32,1.46-.21.43-.53.78-.96,1.03-.43.26-.95.38-1.55.38-.82,0-1.47-.18-1.93-.55-.46-.37-.79-.88-.97-1.52-.18-.65-.28-1.45-.28-2.4,0-2.94,1.02-4.4,3.07-4.4.78,0,1.4.21,1.85.64s.71.96.79,1.61h-1.01c-.18-.89-.72-1.33-1.64-1.33ZM586.14,291.82c-.3.14-.55.35-.74.64-.19.28-.28.63-.28,1.04,0,.61.18,1.1.53,1.48.35.38.86.57,1.51.57.56,0,1.01-.17,1.34-.52.33-.35.5-.82.5-1.41,0-.62-.16-1.11-.48-1.47-.32-.36-.79-.53-1.4-.53-.34,0-.67.07-.97.21Z"/>
  </g>
  <g>
    <polyline class="cls-2" points="323.48 96.46 339.47 67.96 401.68 67.96"/>
    <g>
      <path class="cls-5" d="M326.86,98.11c-1.02,1.81-3.31,2.45-5.12,1.44-1.81-1.02-2.45-3.31-1.44-5.12,1.02-1.81,3.31-2.45,5.12-1.44,1.81,1.02,2.45,3.31,1.44,5.12Z"/>
      <path class="cls-4" d="M327.29,98.36c1.15-2.05.42-4.65-1.63-5.8-2.05-1.15-4.65-.42-5.8,1.63-1.15,2.05-.42,4.65,1.63,5.8,2.05,1.15,4.65.42,5.8-1.63,1.15-2.05-1.15,2.05,0,0ZM320.74,94.68c.88-1.57,2.87-2.13,4.44-1.25,1.57.88,2.13,2.87,1.25,4.44-.88,1.57-2.87,2.13-4.44,1.25-1.57-.88-2.13-2.87-1.25-4.44.88-1.57-.88,1.57,0,0Z"/>
    </g>
  </g>
  <g>
    <path d="M350.14,62.98v-.83l4.21-5.83h1.31v5.71h1.2v.95h-1.2v1.93h-1.08v-1.93h-4.44ZM354.63,57.46l-3.23,4.57h3.23v-4.57Z"/>
    <path d="M361.14,56.97c-.71,0-1.24.27-1.6.82-.35.55-.52,1.45-.52,2.71.18-.42.49-.74.92-.98.43-.24.91-.35,1.43-.35.82,0,1.48.26,1.97.77.49.51.74,1.22.74,2.12,0,.54-.11,1.03-.32,1.46s-.53.78-.96,1.03c-.43.26-.95.38-1.55.38-.82,0-1.47-.18-1.93-.55-.46-.37-.79-.88-.97-1.52-.18-.65-.28-1.45-.28-2.4,0-2.94,1.02-4.4,3.07-4.4.78,0,1.4.21,1.85.64.45.42.71.96.79,1.61h-1.01c-.18-.89-.72-1.33-1.64-1.33ZM360.18,60.3c-.3.14-.55.35-.74.64-.19.28-.28.63-.28,1.04,0,.61.18,1.1.53,1.48s.86.57,1.51.57c.56,0,1.01-.17,1.34-.52.33-.35.5-.82.5-1.41,0-.62-.16-1.11-.48-1.47-.32-.36-.79-.53-1.4-.53-.34,0-.67.07-.97.21Z"/>
    <path d="M366.88,63.4l-1.34,3.23h-.73l.88-3.23h1.2Z"/>
    <path d="M367.68,62.98v-.83l4.21-5.83h1.31v5.71h1.2v.95h-1.2v1.93h-1.08v-1.93h-4.44ZM372.17,57.46l-3.23,4.57h3.23v-4.57Z"/>
    <path d="M378.88,59.83c.27-.51.65-.9,1.12-1.18.48-.28,1.01-.42,1.59-.42s1.08.12,1.5.37c.42.25.74.56.95.94v-1.2h1.1v6.58h-1.1v-1.22c-.22.38-.54.7-.97.95-.43.25-.93.38-1.49.38s-1.11-.14-1.58-.43c-.47-.29-.84-.69-1.12-1.21s-.41-1.11-.41-1.78.14-1.26.41-1.77ZM383.74,60.32c-.2-.37-.47-.65-.81-.85-.34-.2-.71-.29-1.12-.29s-.78.1-1.12.29c-.34.19-.6.47-.8.84-.2.37-.3.8-.3,1.3s.1.94.3,1.31c.2.37.47.66.8.85.34.2.71.29,1.12.29s.78-.1,1.12-.29c.34-.2.61-.48.81-.85.2-.37.3-.81.3-1.3s-.1-.93-.3-1.3ZM382.94,57.29c-.24.23-.55.34-.92.34s-.66-.12-.91-.35-.37-.54-.37-.91.12-.68.37-.91c.25-.23.55-.35.91-.35s.67.11.92.34.37.53.37.92-.12.69-.37.92ZM382.49,55.87c-.12-.12-.28-.19-.46-.19s-.34.06-.46.19-.19.29-.19.49.06.36.19.49.28.19.46.19.34-.06.46-.19.19-.29.19-.49-.06-.36-.19-.49Z"/>
    <path d="M388.91,58.53c.36-.21.79-.31,1.3-.31v1.13h-.29c-1.22,0-1.84.66-1.84,1.99v3.58h-1.09v-6.58h1.09v1.07c.19-.38.47-.67.82-.88Z"/>
  </g>
</svg>