<?xml version="1.0" encoding="UTF-8"?>
<svg id="Lager_1" data-name="Lager 1" xmlns="http://www.w3.org/2000/svg" viewBox="0 0 556.33 318.63">
  <defs>
    <style>
      .cls-1 {
        opacity: .6;
        stroke: #000;
      }

      .cls-1, .cls-2, .cls-3 {
        fill: none;
        stroke-miterlimit: 10;
      }

      .cls-2 {
        stroke: #fff;
      }

      .cls-4 {
        fill: #df2b6d;
        opacity: .4;
      }

      .cls-3 {
        stroke: #833ab4;
        stroke-linecap: round;
        stroke-width: 4px;
      }
    </style>
  </defs>
  <polyline class="cls-1" points="28.13 57.27 28.13 272.92 556.33 272.92"/>
  <g>
    <path d="M10.46,15.59h-1.74L1.74,5v10.59H0V2.27h1.74l6.98,10.57V2.27h1.74v13.32Z"/>
    <path d="M15.31,15.09c-.8-.45-1.42-1.08-1.87-1.9-.45-.82-.68-1.77-.68-2.85s.23-2.01.7-2.83c.46-.82,1.1-1.45,1.9-1.89.8-.44,1.7-.66,2.69-.66s1.89.22,2.69.66c.8.44,1.43,1.07,1.9,1.88s.7,1.76.7,2.84-.24,2.03-.72,2.85c-.48.82-1.12,1.45-1.94,1.9-.81.45-1.72.67-2.71.67s-1.87-.22-2.66-.67ZM19.73,13.8c.55-.29.99-.73,1.33-1.32s.51-1.3.51-2.14-.17-1.55-.5-2.14-.76-1.02-1.3-1.31-1.11-.43-1.74-.43-1.22.14-1.75.43-.95.72-1.27,1.31c-.32.59-.48,1.3-.48,2.14s.16,1.57.47,2.16c.31.59.73,1.02,1.25,1.31s1.09.43,1.72.43,1.21-.15,1.76-.44Z"/>
    <path d="M28.67,5.44c.57-.33,1.26-.5,2.07-.5v1.79h-.46c-1.95,0-2.92,1.06-2.92,3.17v5.69h-1.74V5.13h1.74v1.7c.31-.6.74-1.06,1.31-1.39Z"/>
    <path d="M47.5,5.45c.64.34,1.14.84,1.51,1.52.37.67.55,1.5.55,2.46v6.16h-1.72v-5.92c0-1.04-.26-1.84-.77-2.4-.52-.55-1.21-.83-2.09-.83s-1.62.29-2.16.87c-.53.58-.8,1.42-.8,2.51v5.76h-1.72v-5.92c0-1.04-.26-1.84-.77-2.4-.52-.55-1.21-.83-2.09-.83s-1.62.29-2.16.87c-.53.58-.8,1.42-.8,2.51v5.76h-1.74V5.13h1.74v1.51c.34-.55.8-.97,1.38-1.26.58-.29,1.22-.44,1.92-.44.88,0,1.65.2,2.33.59.67.39,1.18.97,1.51,1.74.29-.74.78-1.31,1.45-1.72.67-.41,1.42-.61,2.25-.61s1.54.17,2.18.51Z"/>
    <path d="M52.4,7.51c.43-.81,1.03-1.43,1.78-1.88.76-.45,1.6-.67,2.53-.67s1.71.2,2.39.59,1.18.89,1.51,1.49v-1.91h1.76v10.46h-1.76v-1.95c-.34.61-.86,1.12-1.54,1.52-.68.4-1.47.6-2.38.6s-1.77-.23-2.52-.69-1.34-1.1-1.77-1.93c-.43-.83-.65-1.77-.65-2.82s.22-2.01.65-2.81ZM60.13,8.28c-.32-.59-.75-1.03-1.29-1.35-.54-.31-1.14-.47-1.78-.47s-1.24.15-1.77.46-.96.75-1.28,1.34c-.32.59-.48,1.27-.48,2.06s.16,1.5.48,2.09c.32.59.74,1.04,1.28,1.36s1.13.47,1.77.47,1.24-.16,1.78-.47c.54-.31.97-.76,1.29-1.36s.48-1.28.48-2.07-.16-1.48-.48-2.06Z"/>
    <path d="M67.04,1.47v14.12h-1.74V1.47h1.74Z"/>
    <path d="M74.25,6.56h-2.19v9.03h-1.74V6.56h-1.36v-1.43h1.36v-.74c0-1.17.3-2.03.91-2.57s1.57-.81,2.91-.81v1.45c-.76,0-1.3.15-1.61.45-.31.3-.47.79-.47,1.48v.74h2.19v1.43Z"/>
    <path d="M78.17,15.09c-.8-.45-1.42-1.08-1.87-1.9-.45-.82-.68-1.77-.68-2.85s.23-2.01.7-2.83,1.1-1.45,1.9-1.89c.8-.44,1.7-.66,2.69-.66s1.89.22,2.69.66c.8.44,1.43,1.07,1.9,1.88.46.81.7,1.76.7,2.84s-.24,2.03-.72,2.85c-.48.82-1.12,1.45-1.94,1.9-.81.45-1.72.67-2.71.67s-1.87-.22-2.66-.67ZM82.59,13.8c.55-.29.99-.73,1.33-1.32s.51-1.3.51-2.14-.17-1.55-.5-2.14c-.33-.59-.76-1.02-1.3-1.31-.53-.29-1.11-.43-1.74-.43s-1.22.14-1.75.43-.95.72-1.27,1.31c-.32.59-.48,1.3-.48,2.14s.16,1.57.47,2.16.73,1.02,1.25,1.31c.52.29,1.09.43,1.72.43s1.21-.15,1.76-.44ZM78.67,3.3c-.2-.19-.3-.43-.3-.71s.1-.52.3-.72c.2-.2.44-.3.72-.3s.5.1.7.3c.2.2.3.44.3.72s-.1.52-.3.71c-.2.19-.43.29-.7.29-.28,0-.52-.1-.72-.29ZM81.77,3.3c-.19-.19-.29-.43-.29-.71s.1-.52.29-.72c.19-.2.43-.3.71-.3s.52.1.72.3c.2.2.3.44.3.72s-.1.52-.3.71c-.2.19-.44.29-.72.29s-.51-.1-.71-.29Z"/>
    <path d="M91.53,5.44c.57-.33,1.26-.5,2.07-.5v1.79h-.46c-1.95,0-2.92,1.06-2.92,3.17v5.69h-1.74V5.13h1.74v1.7c.31-.6.74-1.06,1.31-1.39Z"/>
    <path d="M95.6,7.51c.43-.81,1.03-1.43,1.78-1.88.76-.45,1.61-.67,2.55-.67.81,0,1.57.19,2.27.56.7.38,1.23.87,1.6,1.48V1.47h1.76v14.12h-1.76v-1.97c-.34.62-.85,1.14-1.53,1.54s-1.46.6-2.37.6-1.77-.23-2.53-.69-1.35-1.1-1.78-1.93c-.43-.83-.65-1.77-.65-2.82s.22-2.01.65-2.81ZM103.33,8.28c-.32-.59-.75-1.03-1.29-1.35-.54-.31-1.13-.47-1.78-.47s-1.24.15-1.77.46-.96.75-1.28,1.34c-.32.59-.48,1.27-.48,2.06s.16,1.5.48,2.09c.32.59.74,1.04,1.28,1.36s1.13.47,1.77.47,1.24-.16,1.78-.47.97-.76,1.29-1.36c.32-.59.48-1.28.48-2.07s-.16-1.48-.48-2.06Z"/>
    <path d="M117.99,11.01h-8.36c.06,1.03.42,1.84,1.06,2.41s1.42.87,2.34.87c.75,0,1.38-.17,1.88-.52.5-.35.86-.82,1.06-1.4h1.87c-.28,1-.84,1.82-1.68,2.45s-1.88.94-3.13.94c-.99,0-1.88-.22-2.66-.67-.78-.45-1.4-1.08-1.84-1.9-.45-.82-.67-1.77-.67-2.85s.22-2.03.65-2.84,1.04-1.44,1.82-1.88c.78-.44,1.68-.66,2.7-.66s1.87.22,2.63.65,1.35,1.03,1.77,1.78c.41.76.62,1.61.62,2.57,0,.33-.02.68-.06,1.05ZM115.81,7.89c-.29-.48-.69-.84-1.19-1.09s-1.06-.37-1.67-.37c-.88,0-1.62.28-2.24.84-.62.56-.97,1.34-1.06,2.33h6.6c0-.66-.15-1.23-.44-1.71Z"/>
    <path d="M122.07,1.47v14.12h-1.74V1.47h1.74Z"/>
    <path d="M133.21,6.1c.79.77,1.18,1.88,1.18,3.33v6.16h-1.72v-5.92c0-1.04-.26-1.84-.78-2.4s-1.23-.83-2.14-.83-1.64.29-2.18.86c-.54.57-.81,1.41-.81,2.5v5.78h-1.74V5.13h1.74v1.49c.34-.53.81-.95,1.4-1.24.59-.29,1.24-.44,1.96-.44,1.27,0,2.3.38,3.09,1.15Z"/>
    <path d="M137.3,3.09c-.23-.23-.34-.51-.34-.84s.11-.61.34-.84.51-.34.84-.34.59.11.81.34.33.51.33.84-.11.61-.33.84-.49.34-.81.34-.61-.11-.84-.34ZM138.98,5.13v10.46h-1.74V5.13h1.74Z"/>
    <path d="M150.12,6.1c.79.77,1.18,1.88,1.18,3.33v6.16h-1.72v-5.92c0-1.04-.26-1.84-.78-2.4s-1.23-.83-2.14-.83-1.64.29-2.18.86c-.54.57-.81,1.41-.81,2.5v5.78h-1.74V5.13h1.74v1.49c.34-.53.81-.95,1.4-1.24.59-.29,1.24-.44,1.96-.44,1.27,0,2.3.38,3.09,1.15Z"/>
    <path d="M160.84,5.55c.68.39,1.19.89,1.52,1.49v-1.91h1.76v10.69c0,.95-.2,1.8-.61,2.55-.41.74-.99,1.33-1.75,1.75s-1.64.63-2.64.63c-1.37,0-2.52-.32-3.44-.97-.92-.65-1.46-1.53-1.62-2.65h1.72c.19.64.59,1.15,1.18,1.54.6.39,1.32.58,2.16.58.95,0,1.73-.3,2.34-.9s.91-1.44.91-2.52v-2.19c-.34.61-.85,1.12-1.53,1.53-.67.41-1.46.61-2.37.61s-1.77-.23-2.53-.69-1.35-1.1-1.78-1.93c-.43-.83-.65-1.77-.65-2.82s.22-2.01.65-2.81c.43-.81,1.03-1.43,1.78-1.88.76-.45,1.6-.67,2.53-.67s1.7.2,2.38.59ZM161.88,8.28c-.32-.59-.75-1.03-1.29-1.35-.54-.31-1.13-.47-1.78-.47s-1.24.15-1.77.46-.96.75-1.28,1.34c-.32.59-.48,1.27-.48,2.06s.16,1.5.48,2.09c.32.59.74,1.04,1.28,1.36s1.13.47,1.77.47,1.24-.16,1.78-.47.97-.76,1.29-1.36c.32-.59.48-1.28.48-2.07s-.16-1.48-.48-2.06Z"/>
    <path d="M176.53,11.01h-8.36c.06,1.03.42,1.84,1.06,2.41s1.42.87,2.34.87c.75,0,1.38-.17,1.88-.52.5-.35.86-.82,1.06-1.4h1.87c-.28,1-.84,1.82-1.68,2.45s-1.88.94-3.13.94c-.99,0-1.88-.22-2.66-.67-.78-.45-1.4-1.08-1.84-1.9-.45-.82-.67-1.77-.67-2.85s.22-2.03.65-2.84,1.04-1.44,1.82-1.88c.78-.44,1.68-.66,2.7-.66s1.87.22,2.63.65,1.35,1.03,1.77,1.78c.41.76.62,1.61.62,2.57,0,.33-.02.68-.06,1.05ZM174.35,7.89c-.29-.48-.69-.84-1.19-1.09s-1.06-.37-1.67-.37c-.88,0-1.62.28-2.24.84-.62.56-.97,1.34-1.06,2.33h6.6c0-.66-.15-1.23-.44-1.71Z"/>
    <path d="M187.06,6.1c.79.77,1.18,1.88,1.18,3.33v6.16h-1.72v-5.92c0-1.04-.26-1.84-.78-2.4s-1.23-.83-2.14-.83-1.64.29-2.19.86c-.54.57-.81,1.41-.81,2.5v5.78h-1.74V5.13h1.74v1.49c.34-.53.81-.95,1.4-1.24s1.24-.44,1.96-.44c1.27,0,2.3.38,3.09,1.15Z"/>
    <path d="M196.19,7.51c.43-.81,1.03-1.43,1.78-1.88.76-.45,1.6-.67,2.53-.67s1.71.2,2.39.59,1.18.89,1.51,1.49v-1.91h1.76v10.46h-1.76v-1.95c-.34.61-.86,1.12-1.54,1.52s-1.47.6-2.38.6-1.77-.23-2.52-.69-1.34-1.1-1.77-1.93c-.43-.83-.65-1.77-.65-2.82s.22-2.01.65-2.81ZM203.91,8.28c-.32-.59-.75-1.03-1.29-1.35-.54-.31-1.13-.47-1.78-.47s-1.24.15-1.77.46-.96.75-1.28,1.34c-.32.59-.48,1.27-.48,2.06s.16,1.5.48,2.09c.32.59.74,1.04,1.28,1.36s1.13.47,1.77.47,1.24-.16,1.78-.47.97-.76,1.29-1.36c.32-.59.48-1.28.48-2.07s-.16-1.48-.48-2.06Z"/>
    <path d="M212.98,13.99l3.24-8.85h1.85l-4.1,10.46h-2.02l-4.1-10.46h1.87l3.26,8.85Z"/>
    <path d="M224.89,7.51c.43-.81,1.03-1.43,1.78-1.88.76-.45,1.6-.67,2.53-.67s1.71.2,2.39.59,1.18.89,1.51,1.49v-1.91h1.76v10.46h-1.76v-1.95c-.34.61-.86,1.12-1.54,1.52-.68.4-1.47.6-2.38.6s-1.77-.23-2.52-.69-1.34-1.1-1.77-1.93c-.43-.83-.65-1.77-.65-2.82s.22-2.01.65-2.81ZM232.61,8.28c-.32-.59-.75-1.03-1.29-1.35-.54-.31-1.14-.47-1.78-.47s-1.24.15-1.77.46-.96.75-1.28,1.34c-.32.59-.48,1.27-.48,2.06s.16,1.5.48,2.09c.32.59.74,1.04,1.28,1.36s1.13.47,1.77.47,1.24-.16,1.78-.47c.54-.31.97-.76,1.29-1.36s.48-1.28.48-2.07-.16-1.48-.48-2.06ZM231.34,3.46c-.39.36-.87.54-1.46.54s-1.06-.18-1.45-.55c-.39-.37-.59-.85-.59-1.45s.2-1.08.59-1.45c.39-.37.88-.55,1.45-.55s1.07.18,1.46.54.58.85.58,1.46-.19,1.1-.58,1.46ZM230.62,1.21c-.2-.2-.44-.3-.73-.3s-.54.1-.73.3c-.2.2-.3.46-.3.77s.1.58.3.78.44.31.73.31.54-.1.73-.31.3-.46.3-.78-.1-.58-.3-.77Z"/>
    <path d="M239.52,1.47v14.12h-1.74V1.47h1.74Z"/>
    <path d="M242.48,7.51c.43-.81,1.03-1.43,1.78-1.88.76-.45,1.61-.67,2.55-.67.81,0,1.57.19,2.27.56.7.38,1.23.87,1.6,1.48V1.47h1.76v14.12h-1.76v-1.97c-.34.62-.85,1.14-1.53,1.54s-1.46.6-2.37.6-1.77-.23-2.53-.69c-.76-.46-1.35-1.1-1.78-1.93-.43-.83-.65-1.77-.65-2.82s.22-2.01.65-2.81ZM250.21,8.28c-.32-.59-.75-1.03-1.29-1.35-.54-.31-1.14-.47-1.78-.47s-1.24.15-1.77.46-.96.75-1.28,1.34c-.32.59-.48,1.27-.48,2.06s.16,1.5.48,2.09c.32.59.74,1.04,1.28,1.36s1.13.47,1.77.47,1.24-.16,1.78-.47c.54-.31.97-.76,1.29-1.36s.48-1.28.48-2.07-.16-1.48-.48-2.06Z"/>
    <path d="M264.86,11.01h-8.36c.06,1.03.42,1.84,1.06,2.41s1.42.87,2.34.87c.75,0,1.38-.17,1.88-.52.5-.35.86-.82,1.06-1.4h1.87c-.28,1-.84,1.82-1.68,2.45s-1.88.94-3.13.94c-.99,0-1.88-.22-2.66-.67-.78-.45-1.4-1.08-1.84-1.9-.45-.82-.67-1.77-.67-2.85s.22-2.03.65-2.84c.43-.81,1.04-1.44,1.82-1.88.78-.44,1.68-.66,2.7-.66s1.87.22,2.63.65,1.35,1.03,1.77,1.78c.41.76.62,1.61.62,2.57,0,.33-.02.68-.06,1.05ZM262.69,7.89c-.29-.48-.69-.84-1.19-1.09-.5-.25-1.06-.37-1.67-.37-.88,0-1.62.28-2.24.84-.62.56-.97,1.34-1.06,2.33h6.6c0-.66-.15-1.23-.44-1.71Z"/>
    <path d="M270.25,5.44c.57-.33,1.26-.5,2.07-.5v1.79h-.46c-1.95,0-2.92,1.06-2.92,3.17v5.69h-1.74V5.13h1.74v1.7c.31-.6.74-1.06,1.31-1.39Z"/>
    <path d="M283.68,6.56h-2.19v9.03h-1.74V6.56h-1.35v-1.43h1.35v-.74c0-1.17.3-2.03.91-2.57s1.57-.81,2.91-.81v1.45c-.76,0-1.3.15-1.61.45-.31.3-.47.79-.47,1.48v.74h2.19v1.43Z"/>
    <path d="M287.6,15.09c-.8-.45-1.42-1.08-1.87-1.9-.45-.82-.68-1.77-.68-2.85s.23-2.01.7-2.83c.46-.82,1.1-1.45,1.9-1.89.8-.44,1.7-.66,2.69-.66s1.89.22,2.69.66c.8.44,1.43,1.07,1.9,1.88s.7,1.76.7,2.84-.24,2.03-.72,2.85c-.48.82-1.12,1.45-1.94,1.9-.81.45-1.72.67-2.71.67s-1.87-.22-2.66-.67ZM292.02,13.8c.55-.29.99-.73,1.33-1.32s.51-1.3.51-2.14-.17-1.55-.5-2.14-.76-1.02-1.3-1.31-1.11-.43-1.74-.43-1.22.14-1.75.43-.95.72-1.27,1.31-.48,1.3-.48,2.14.16,1.57.47,2.16c.31.59.73,1.02,1.25,1.31s1.09.43,1.72.43,1.21-.15,1.76-.44ZM288.1,3.3c-.2-.19-.3-.43-.3-.71s.1-.52.3-.72c.2-.2.43-.3.72-.3s.5.1.7.3c.2.2.3.44.3.72s-.1.52-.3.71c-.2.19-.43.29-.7.29-.28,0-.52-.1-.72-.29ZM291.2,3.3c-.19-.19-.29-.43-.29-.71s.1-.52.29-.72c.19-.2.43-.3.71-.3s.52.1.72.3c.2.2.3.44.3.72s-.1.52-.3.71-.44.29-.72.29-.52-.1-.71-.29Z"/>
    <path d="M300.96,5.44c.57-.33,1.26-.5,2.07-.5v1.79h-.46c-1.95,0-2.92,1.06-2.92,3.17v5.69h-1.74V5.13h1.74v1.7c.31-.6.74-1.06,1.31-1.39Z"/>
    <path d="M311.86,0v15.59h-1.74V0h1.74Z"/>
    <path d="M323.01,6.1c.79.77,1.18,1.88,1.18,3.33v6.16h-1.72v-5.92c0-1.04-.26-1.84-.78-2.4s-1.23-.83-2.14-.83-1.64.29-2.18.86c-.54.57-.81,1.41-.81,2.5v5.78h-1.74V5.13h1.74v1.49c.34-.53.81-.95,1.4-1.24.59-.29,1.24-.44,1.96-.44,1.27,0,2.3.38,3.09,1.15Z"/>
    <path d="M328.58,15.35c-.64-.27-1.14-.65-1.51-1.14-.37-.49-.57-1.05-.61-1.69h1.79c.05.52.3.95.73,1.28.44.33,1.01.5,1.73.5.66,0,1.18-.15,1.56-.44.38-.29.57-.66.57-1.11s-.2-.8-.61-1.02c-.41-.22-1.04-.44-1.89-.66-.78-.2-1.41-.41-1.9-.62s-.91-.52-1.26-.93c-.35-.41-.53-.96-.53-1.63,0-.53.16-1.02.48-1.47.32-.45.77-.8,1.36-1.06.58-.26,1.25-.39,2-.39,1.16,0,2.09.29,2.81.88.71.59,1.09,1.39,1.14,2.4h-1.74c-.04-.55-.26-.99-.66-1.32-.4-.33-.94-.5-1.61-.5-.62,0-1.12.13-1.49.4-.37.27-.55.62-.55,1.05,0,.34.11.63.33.85s.5.4.84.53c.34.13.8.28,1.4.45.75.2,1.36.4,1.83.6.47.2.87.49,1.21.89.34.39.51.91.52,1.55,0,.57-.16,1.09-.48,1.55-.32.46-.77.82-1.35,1.08-.58.26-1.24.39-1.99.39-.8,0-1.52-.14-2.16-.41Z"/>
    <path d="M339.11,6.56v6.16c0,.51.11.87.32,1.08s.59.31,1.13.31h1.28v1.47h-1.57c-.97,0-1.69-.22-2.18-.67s-.73-1.18-.73-2.19v-6.16h-1.36v-1.43h1.36v-2.63h1.74v2.63h2.73v1.43h-2.73Z"/>
    <path d="M343.94,7.51c.43-.81,1.03-1.43,1.78-1.88.76-.45,1.6-.67,2.53-.67s1.71.2,2.39.59c.67.39,1.18.89,1.51,1.49v-1.91h1.76v10.46h-1.76v-1.95c-.34.61-.86,1.12-1.54,1.52s-1.47.6-2.38.6-1.77-.23-2.52-.69c-.75-.46-1.34-1.1-1.77-1.93-.43-.83-.65-1.77-.65-2.82s.22-2.01.65-2.81ZM351.67,8.28c-.32-.59-.75-1.03-1.29-1.35-.54-.31-1.13-.47-1.78-.47s-1.24.15-1.77.46-.96.75-1.28,1.34-.48,1.27-.48,2.06.16,1.5.48,2.09.74,1.04,1.28,1.36,1.13.47,1.77.47,1.24-.16,1.78-.47c.54-.31.97-.76,1.29-1.36.32-.59.48-1.28.48-2.07s-.16-1.48-.48-2.06Z"/>
    <path d="M363.53,5.55c.68.39,1.19.89,1.52,1.49v-1.91h1.76v10.69c0,.95-.2,1.8-.61,2.55-.41.74-.99,1.33-1.75,1.75s-1.64.63-2.64.63c-1.37,0-2.52-.32-3.44-.97-.92-.65-1.46-1.53-1.62-2.65h1.72c.19.64.58,1.15,1.18,1.54.6.39,1.32.58,2.16.58.95,0,1.73-.3,2.34-.9s.91-1.44.91-2.52v-2.19c-.34.61-.85,1.12-1.53,1.53-.67.41-1.46.61-2.37.61s-1.77-.23-2.53-.69-1.35-1.1-1.78-1.93c-.43-.83-.65-1.77-.65-2.82s.22-2.01.65-2.81c.43-.81,1.03-1.43,1.78-1.88.76-.45,1.6-.67,2.53-.67s1.69.2,2.38.59ZM364.57,8.28c-.32-.59-.75-1.03-1.29-1.35-.54-.31-1.13-.47-1.78-.47s-1.24.15-1.77.46-.96.75-1.28,1.34-.48,1.27-.48,2.06.16,1.5.48,2.09.74,1.04,1.28,1.36,1.13.47,1.77.47,1.24-.16,1.78-.47c.54-.31.97-.76,1.29-1.36.32-.59.48-1.28.48-2.07s-.16-1.48-.48-2.06Z"/>
    <path d="M372.79,5.44c.57-.33,1.26-.5,2.07-.5v1.79h-.46c-1.95,0-2.92,1.06-2.92,3.17v5.69h-1.74V5.13h1.74v1.7c.31-.6.74-1.06,1.31-1.39Z"/>
    <path d="M376.86,7.51c.43-.81,1.03-1.43,1.78-1.88.76-.45,1.6-.67,2.53-.67s1.71.2,2.39.59c.67.39,1.18.89,1.51,1.49v-1.91h1.76v10.46h-1.76v-1.95c-.34.61-.86,1.12-1.54,1.52s-1.47.6-2.38.6-1.77-.23-2.52-.69c-.75-.46-1.34-1.1-1.77-1.93-.43-.83-.65-1.77-.65-2.82s.22-2.01.65-2.81ZM384.59,8.28c-.32-.59-.75-1.03-1.29-1.35-.54-.31-1.13-.47-1.78-.47s-1.24.15-1.77.46-.96.75-1.28,1.34-.48,1.27-.48,2.06.16,1.5.48,2.09.74,1.04,1.28,1.36,1.13.47,1.77.47,1.24-.16,1.78-.47c.54-.31.97-.76,1.29-1.36.32-.59.48-1.28.48-2.07s-.16-1.48-.48-2.06Z"/>
    <path d="M404.51,5.45c.64.34,1.14.84,1.51,1.52.37.67.55,1.5.55,2.46v6.16h-1.72v-5.92c0-1.04-.26-1.84-.77-2.4-.52-.55-1.21-.83-2.09-.83s-1.62.29-2.16.87c-.53.58-.8,1.42-.8,2.51v5.76h-1.72v-5.92c0-1.04-.26-1.84-.77-2.4-.51-.55-1.21-.83-2.09-.83s-1.62.29-2.16.87c-.53.58-.8,1.42-.8,2.51v5.76h-1.74V5.13h1.74v1.51c.34-.55.8-.97,1.38-1.26.58-.29,1.22-.44,1.92-.44.88,0,1.65.2,2.33.59s1.18.97,1.51,1.74c.29-.74.78-1.31,1.45-1.72.67-.41,1.43-.61,2.25-.61s1.54.17,2.18.51Z"/>
  </g>
  <g>
    <path d="M131.9,287.14c.58-.52,1.06-1.07,1.46-1.64.4-.57.59-1.13.59-1.69,0-.52-.13-.93-.38-1.23s-.66-.45-1.22-.45-.97.17-1.27.51c-.3.34-.46.79-.49,1.36h-1.06c.03-.9.3-1.59.82-2.08.51-.49,1.17-.73,1.98-.73s1.48.23,1.96.68c.48.46.73,1.08.73,1.88,0,.66-.2,1.31-.59,1.94s-.85,1.18-1.35,1.66-1.15,1.03-1.93,1.66h4.13v.91h-5.77v-.78c1.02-.82,1.81-1.49,2.39-2.01Z"/>
    <path d="M138.51,288.76c.29.25.69.37,1.18.37.66,0,1.15-.26,1.47-.78.32-.52.47-1.4.45-2.63-.17.36-.45.64-.84.85-.39.2-.83.31-1.31.31-.54,0-1.01-.11-1.43-.33-.42-.22-.75-.54-.99-.97-.24-.42-.36-.94-.36-1.54,0-.86.25-1.55.74-2.07.5-.52,1.2-.79,2.11-.79,1.12,0,1.91.36,2.36,1.09s.68,1.81.68,3.25c0,1.01-.09,1.84-.27,2.5s-.48,1.16-.91,1.5c-.43.34-1.01.52-1.76.52-.82,0-1.45-.22-1.91-.66-.46-.44-.72-1-.78-1.68h1.01c.08.46.27.81.56,1.06ZM140.96,285.45c.34-.33.52-.78.52-1.35,0-.6-.17-1.08-.5-1.45s-.81-.55-1.42-.55c-.56,0-1.01.18-1.34.53-.33.35-.5.82-.5,1.39s.16,1.05.49,1.4c.33.35.8.53,1.43.53.54,0,.98-.17,1.32-.5Z"/>
    <path d="M145.41,288.52l-1.34,3.23h-.73l.88-3.23h1.2Z"/>
    <path d="M151.82,282.21l-3.34,7.82h-1.1l3.38-7.72h-4.63v-.94h5.69v.83Z"/>
  </g>
  <g>
    <path d="M272.88,287.59v-.83l4.21-5.83h1.31v5.71h1.2v.95h-1.2v1.93h-1.08v-1.93h-4.44ZM277.36,282.07l-3.23,4.57h3.23v-4.57Z"/>
    <path d="M283.88,281.58c-.71,0-1.24.27-1.6.82-.35.55-.52,1.45-.52,2.71.18-.42.49-.74.92-.98.43-.24.91-.35,1.43-.35.82,0,1.48.26,1.97.77.49.51.74,1.22.74,2.12,0,.54-.11,1.03-.32,1.46-.21.43-.53.78-.96,1.03-.43.26-.95.38-1.55.38-.82,0-1.47-.18-1.93-.55-.46-.37-.79-.88-.97-1.52-.18-.65-.28-1.45-.28-2.4,0-2.94,1.02-4.4,3.07-4.4.78,0,1.4.21,1.85.64s.71.96.79,1.61h-1.01c-.18-.89-.72-1.33-1.64-1.33ZM282.92,284.91c-.3.14-.55.35-.74.64-.19.28-.28.63-.28,1.04,0,.61.18,1.1.53,1.48.35.38.86.57,1.51.57.56,0,1.01-.17,1.34-.52.33-.35.5-.82.5-1.41,0-.62-.16-1.11-.48-1.47-.32-.36-.79-.53-1.4-.53-.34,0-.67.07-.97.21Z"/>
    <path d="M289.62,288.01l-1.34,3.23h-.73l.88-3.23h1.2Z"/>
    <path d="M290.42,287.59v-.83l4.21-5.83h1.31v5.71h1.2v.95h-1.2v1.93h-1.08v-1.93h-4.44ZM294.91,282.07l-3.23,4.57h3.23v-4.57Z"/>
  </g>
  <g>
    <path d="M422.96,281.33c-.71,0-1.24.27-1.6.82-.35.55-.52,1.45-.52,2.71.18-.42.49-.74.92-.98.43-.24.91-.35,1.43-.35.82,0,1.48.26,1.97.77.49.51.74,1.22.74,2.12,0,.54-.11,1.03-.32,1.46-.21.43-.53.78-.96,1.03-.43.26-.95.38-1.55.38-.82,0-1.47-.18-1.93-.55-.46-.37-.79-.88-.97-1.52-.18-.65-.28-1.45-.28-2.4,0-2.94,1.02-4.4,3.07-4.4.78,0,1.4.21,1.85.64s.71.96.79,1.61h-1.01c-.18-.89-.72-1.33-1.64-1.33ZM422,284.66c-.3.14-.55.35-.74.64-.19.28-.28.63-.28,1.04,0,.61.18,1.1.53,1.48.35.38.86.57,1.51.57.56,0,1.01-.17,1.34-.52.33-.35.5-.82.5-1.41,0-.62-.16-1.11-.48-1.47-.32-.36-.79-.53-1.4-.53-.34,0-.67.07-.97.21Z"/>
    <path d="M428.22,281.05c.51-.42,1.18-.62,1.99-.62.54,0,1.01.1,1.41.29.4.2.7.46.9.8s.31.72.31,1.14c0,.5-.14.92-.43,1.28s-.65.59-1.11.7v.06c.52.13.93.38,1.24.76.3.38.46.87.46,1.48,0,.46-.1.87-.31,1.23-.21.36-.52.65-.94.86s-.92.31-1.5.31c-.85,0-1.54-.22-2.09-.67-.54-.44-.85-1.07-.91-1.89h1.06c.06.48.25.87.59,1.18.34.3.78.46,1.34.46s.99-.15,1.28-.44.44-.67.44-1.13c0-.6-.2-1.03-.6-1.3-.4-.26-1-.4-1.81-.4h-.28v-.91h.29c.74,0,1.29-.13,1.67-.37.38-.24.56-.6.56-1.1,0-.42-.14-.76-.41-1.02-.28-.26-.67-.38-1.18-.38s-.9.13-1.2.38c-.3.26-.48.6-.54,1.03h-1.07c.06-.74.34-1.31.85-1.73Z"/>
    <path d="M435.77,287.76l-1.34,3.23h-.73l.88-3.23h1.2Z"/>
    <path d="M436.55,281.59v-1h2.26v8.68h-1.1v-7.68h-1.15Z"/>
  </g>
  <path class="cls-4" d="M140.67,272.42l.59-98.83,47.65-32.09s47.24-31.96,95.58-31.1l.53,162.02h-144.34Z"/>
  <path class="cls-4" d="M284.5,110.53l.53,161.84h144.34s-.58-97.85-.58-97.85c0,0-34.35-24-57.63-35.93,0,0-52.55-28.73-86.66-28.06Z"/>
  <line class="cls-2" x1="284.75" y1="110.14" x2="285.27" y2="271.98"/>
  <path class="cls-3" d="M45.35,229.37s34.92-18.8,40.01-22.2c0,0,48.52-30.53,70.92-45.78,21.06-14.33,71.02-53.99,130.44-52.82,0,0,48.39-.03,125.71,52.72,0,0,58.14,38.6,74.09,48.52s49.04,26.35,56.09,28.17"/>
  <g>
    <path d="M6.83,230.86v3.65l1.86.67v1.15l-8.32-3.02v-1.26l8.32-3.01v1.15l-1.86.67ZM5.94,231.17l-4.22,1.51,4.22,1.51v-3.02Z"/>
    <path d="M8.69,221.14v1.09l-6.66,4.39h6.66v1.09H.32v-1.09l6.65-4.39H.32v-1.09h8.38Z"/>
    <path d="M.33,214.13h.89v2.28h7.48v1.09H1.22v2.29H.33v-5.66Z"/>
    <path d="M6.83,207.84v3.65l1.86.67v1.15l-8.32-3.02v-1.26l8.32-3.01v1.15l-1.86.67ZM5.94,208.15l-4.22,1.51,4.22,1.51v-3.02Z"/>
    <path d="M7.8,203.61v-2.93h.89v4.02H.33v-1.09h7.48Z"/>
    <path d="M1.22,198.42h2.8v-3.05h.9v3.05h2.88v-3.41h.9v4.5H.32v-4.5h.9v3.41Z"/>
    <path d="M.33,188.21h.89v2.28h7.48v1.09H1.22v2.29H.33v-5.66Z"/>
    <path d="M.33,178.52h.89v2.28h7.48v1.09H1.22v2.29H.33v-5.66Z"/>
    <path d="M1.22,176.08h2.8v-3.05h.9v3.05h2.88v-3.41h.9v4.5H.32v-4.5h.9v3.41Z"/>
    <path d="M8.48,169.85c-.2.44-.47.78-.82,1.03-.35.25-.75.38-1.21.38v-1.16c.39-.04.72-.2.99-.49.27-.28.4-.7.4-1.24s-.13-.93-.39-1.23c-.26-.3-.59-.45-1-.45-.32,0-.58.09-.78.26-.2.18-.35.4-.46.66-.1.26-.22.62-.34,1.07-.14.55-.29.99-.43,1.33-.14.33-.37.62-.68.85-.31.24-.72.35-1.24.35-.46,0-.86-.12-1.21-.35-.35-.23-.62-.56-.82-.98-.19-.42-.29-.9-.29-1.45,0-.78.2-1.43.59-1.93s.91-.78,1.56-.85v1.2c-.32.04-.6.21-.85.5s-.37.69-.37,1.18c0,.46.12.83.35,1.12.24.29.57.43.99.43.3,0,.55-.09.74-.26.19-.17.34-.38.44-.64.1-.25.21-.61.34-1.06.15-.55.3-1,.45-1.33.15-.34.38-.62.68-.86.31-.24.73-.36,1.25-.36.41,0,.79.11,1.15.32.36.22.65.54.88.96.22.42.34.92.34,1.5s-.1,1.05-.29,1.48Z"/>
    <path d="M.33,158.82h.89v2.28h7.48v1.09H1.22v2.29H.33v-5.66Z"/>
    <path d="M.84,152.51c.34-.67.83-1.18,1.46-1.54.63-.36,1.38-.53,2.23-.53s1.6.18,2.23.53c.63.36,1.11.87,1.44,1.54s.5,1.46.5,2.37v2.6H.33v-2.6c0-.91.17-1.7.51-2.37ZM6.93,152.4c-.57-.57-1.37-.85-2.41-.85s-1.85.29-2.44.86-.88,1.39-.88,2.47v1.51h6.58v-1.51c0-1.08-.29-1.9-.86-2.47Z"/>
    <path d="M1.22,147.9h2.8v-3.05h.9v3.05h2.88v-3.41h.9v4.5H.32v-4.5h.9v3.41Z"/>
    <path d="M7.8,141.75v-2.93h.89v4.02H.33v-1.09h7.48Z"/>
    <path d="M.33,132.51h.89v2.28h7.48v1.09H1.22v2.29H.33v-5.66Z"/>
    <path d="M6.83,126.22v3.65l1.86.67v1.15l-8.32-3.02v-1.26l8.32-3.01v1.15l-1.86.67ZM5.94,126.53l-4.22,1.51,4.22,1.51v-3.02Z"/>
    <path d="M2.75,116.74c-.49.23-.87.57-1.13,1.01-.27.44-.4.95-.4,1.54s.13,1.11.4,1.58c.27.47.65.84,1.15,1.1s1.08.4,1.73.4,1.23-.13,1.73-.4.88-.64,1.15-1.1c.27-.47.4-.99.4-1.58,0-.82-.24-1.49-.73-2.02-.49-.53-1.15-.84-1.98-.92v3.34h-.89v-4.5h.84c.69.06,1.32.28,1.89.65.57.37,1.02.85,1.36,1.45s.5,1.27.5,2c0,.78-.18,1.48-.55,2.12-.36.64-.87,1.15-1.52,1.52-.65.37-1.38.56-2.2.56s-1.55-.19-2.2-.56c-.65-.37-1.16-.88-1.52-1.52s-.55-1.35-.55-2.12c0-.89.22-1.67.66-2.36.44-.68,1.06-1.18,1.86-1.49v1.31Z"/>
    <path d="M6.83,108.8v3.65l1.86.67v1.15l-8.32-3.02v-1.26l8.32-3.01v1.15l-1.86.67ZM5.94,109.11l-4.22,1.51,4.22,1.51v-3.02Z"/>
    <path d="M8.69,101.25l-3.42,1.99v1.32h3.42v1.09H.33v-2.7c0-.63.11-1.17.32-1.6.22-.44.51-.76.88-.98.37-.22.79-.32,1.26-.32.58,0,1.08.17,1.52.5s.73.83.88,1.49l3.5-2.1v1.31ZM4.4,104.56v-1.61c0-.59-.15-1.04-.44-1.33-.29-.3-.68-.44-1.17-.44s-.88.15-1.15.44c-.27.29-.41.74-.41,1.34v1.61h3.17Z"/>
    <path d="M1.22,97.27h2.8v-3.05h.9v3.05h2.88v-3.41h.9v4.5H.32v-4.5h.9v3.41Z"/>
  </g>
  <g>
    <path d="M272.51,309.27c-.24.23-.55.34-.92.34s-.66-.12-.91-.35c-.25-.23-.37-.54-.37-.91s.13-.68.37-.91c.25-.23.55-.35.91-.35s.67.11.92.34c.24.23.37.53.37.92s-.12.69-.37.92ZM272.05,307.85c-.12-.12-.28-.19-.46-.19s-.34.06-.46.19-.19.29-.19.49.06.36.19.49.28.19.46.19.34-.06.46-.19c.13-.13.19-.29.19-.49s-.06-.36-.19-.49ZM273.4,316.77h-3.65s-.67,1.86-.67,1.86h-1.15s3.02-8.32,3.02-8.32h1.26s3.01,8.32,3.01,8.32h-1.15s-.67-1.86-.67-1.86ZM273.09,315.88l-1.51-4.22-1.51,4.22h3.02Z"/>
    <path d="M277.64,317.75h2.93v.89h-4.02v-8.36h1.09v7.48Z"/>
    <path d="M286.71,310.78c.67.34,1.18.83,1.54,1.46.36.63.53,1.38.53,2.23s-.18,1.6-.53,2.23c-.36.63-.87,1.11-1.54,1.44s-1.46.5-2.37.5h-2.6v-8.36h2.6c.91,0,1.7.17,2.37.51ZM286.81,316.88c.57-.57.85-1.37.85-2.41s-.29-1.85-.86-2.44-1.39-.88-2.47-.88h-1.51s0,6.58,0,6.58h1.51c1.08,0,1.9-.29,2.47-.86Z"/>
    <path d="M291.31,311.16v2.8s3.05,0,3.05,0v.9h-3.05s0,2.88,0,2.88h3.41v.9h-4.5v-8.38h4.5v.9h-3.41Z"/>
    <path d="M300.78,318.63l-1.99-3.42h-1.32s0,3.42,0,3.42h-1.09v-8.36h2.7c.63,0,1.17.11,1.6.32s.76.51.98.88c.22.37.32.79.32,1.26,0,.58-.17,1.08-.5,1.52s-.83.73-1.49.88l2.1,3.5h-1.31ZM297.46,314.34h1.61c.59,0,1.04-.15,1.33-.44.3-.29.44-.68.44-1.17s-.15-.88-.44-1.15c-.29-.27-.74-.41-1.34-.41h-1.61s0,3.17,0,3.17Z"/>
  </g>
  <g>
    <path d="M136.23,159.2v1.08h-5.59v-1.08h5.59Z"/>
    <path d="M145.09,158.88c-.34,0-.78-.01-1.78-.06v.06c.8.55,1.26,1.54,1.26,2.56,0,2.49-1.71,3.59-3.25,3.59-1.83,0-3.25-1.33-3.25-3.47,0-2.27,1.44-3.6,3.49-3.61h3.57l-.04.94ZM143.36,161.44c0-1.15-.59-2.58-1.99-2.58s-2.05,1.34-2.05,2.63c0,1.48.85,2.61,2.03,2.61s2-1.12,2-2.66Z"/>
  </g>
  <path d="M432.31,158.88c-.34,0-.78-.01-1.78-.06v.06c.8.55,1.26,1.54,1.26,2.56,0,2.49-1.71,3.59-3.25,3.59-1.83,0-3.25-1.33-3.25-3.47,0-2.27,1.44-3.6,3.49-3.61h3.57l-.04.94ZM430.57,161.44c0-1.15-.59-2.58-1.99-2.58s-2.05,1.34-2.05,2.63c0,1.48.85,2.61,2.03,2.61s2-1.12,2-2.66Z"/>
  <path d="M286.15,98.93c-.28.53-.94,1.18-1.95,1.18-.62,0-1.19-.22-1.48-.74v.84c0,.74.01,1.99.15,2.55h-1.11c-.14-.42-.2-1.41-.2-2.49v-7.06h1.22v4.01c0,1.05.45,1.92,1.53,1.92.81,0,1.4-.59,1.62-1.13.07-.18.11-.41.11-.63v-4.16h1.22v4.92c0,.74.15,1.04.64,1.06l-.1.9c-.14.04-.22.06-.42.06-.6,0-1.09-.34-1.2-1.21h-.04Z"/>
</svg>