<?xml version="1.0" encoding="UTF-8"?>
<svg id="Lager_1" data-name="Lager 1" xmlns="http://www.w3.org/2000/svg" viewBox="0 0 443.44 287.57">
  <defs>
    <style>
      .cls-1 {
        fill: #5b53d5;
      }

      .cls-2 {
        fill: #faae4e;
      }

      .cls-3 {
        fill: #f4f4f4;
      }

      .cls-4 {
        fill: #df2b6d;
      }
    </style>
  </defs>
  <g>
    <path d="M12.25,2.88v1.78h-4.56v14.95h-2.18V4.66H.92v-1.78h11.33Z"/>
    <path d="M26.27,6.46l-7.92,19.34h-2.26l2.59-6.34-5.3-13.01h2.42l4.13,10.66,4.08-10.66h2.26Z"/>
    <path d="M32.57,7c.86-.5,1.85-.76,2.99-.76s2.23.28,3.18.84,1.7,1.35,2.24,2.36c.54,1.02.82,2.2.82,3.54s-.27,2.51-.82,3.55-1.29,1.85-2.24,2.42-2.01.86-3.18.86-2.11-.25-2.96-.76-1.51-1.13-1.96-1.88v8.66h-2.18V6.46h2.18v2.42c.43-.75,1.08-1.38,1.93-1.88ZM38.96,10.39c-.4-.74-.94-1.3-1.62-1.68-.68-.38-1.43-.58-2.24-.58s-1.54.2-2.22.59-1.22.96-1.63,1.7c-.41.74-.61,1.6-.61,2.58s.2,1.86.61,2.6c.41.74.95,1.31,1.63,1.7s1.42.59,2.22.59,1.56-.2,2.24-.59c.68-.39,1.22-.96,1.62-1.7s.6-1.62.6-2.63-.2-1.86-.6-2.59Z"/>
    <path d="M47.06,18.98c-1-.56-1.78-1.36-2.35-2.39-.57-1.03-.85-2.23-.85-3.59s.29-2.53.88-3.56c.58-1.03,1.38-1.82,2.39-2.38,1.01-.55,2.14-.83,3.38-.83s2.38.28,3.38.83c1.01.55,1.8,1.34,2.39,2.36.58,1.02.88,2.22.88,3.58s-.3,2.56-.9,3.59c-.6,1.03-1.41,1.83-2.44,2.39-1.02.56-2.16.84-3.41.84s-2.35-.28-3.35-.84ZM52.62,17.35c.69-.37,1.24-.92,1.67-1.66.42-.74.64-1.63.64-2.69s-.21-1.95-.62-2.69c-.42-.74-.96-1.28-1.63-1.64-.67-.36-1.4-.54-2.18-.54s-1.53.18-2.2.54c-.66.36-1.2.91-1.6,1.64-.4.74-.6,1.63-.6,2.69s.2,1.98.59,2.71c.39.74.92,1.28,1.57,1.64.66.36,1.38.54,2.16.54s1.52-.18,2.21-.55Z"/>
    <path d="M68.45,6.98c.86.5,1.49,1.12,1.91,1.87v-2.4h2.21v13.44c0,1.2-.26,2.27-.77,3.2s-1.24,1.67-2.2,2.2c-.95.53-2.06.79-3.32.79-1.73,0-3.17-.41-4.32-1.22s-1.83-1.93-2.04-3.34h2.16c.24.8.74,1.44,1.49,1.93.75.49,1.66.73,2.71.73,1.2,0,2.18-.38,2.94-1.13.76-.75,1.14-1.81,1.14-3.17v-2.76c-.43.77-1.07,1.41-1.92,1.92-.85.51-1.84.77-2.98.77s-2.23-.29-3.18-.86-1.7-1.38-2.24-2.42c-.54-1.04-.82-2.22-.82-3.55s.27-2.52.82-3.54c.54-1.02,1.29-1.8,2.24-2.36s2.01-.84,3.18-.84,2.13.25,2.99.74ZM69.75,10.42c-.4-.74-.94-1.3-1.62-1.69-.68-.39-1.43-.59-2.24-.59s-1.56.19-2.23.58c-.67.38-1.21.94-1.61,1.68s-.6,1.6-.6,2.59.2,1.88.6,2.63.94,1.31,1.61,1.7c.67.39,1.42.59,2.23.59s1.56-.2,2.24-.59c.68-.39,1.22-.96,1.62-1.7s.6-1.61.6-2.6-.2-1.86-.6-2.59Z"/>
    <path d="M80.09,6.84c.71-.42,1.58-.62,2.6-.62v2.26h-.58c-2.45,0-3.67,1.33-3.67,3.98v7.15h-2.18V6.46h2.18v2.14c.38-.75.93-1.34,1.64-1.75Z"/>
    <path d="M85.21,9.44c.54-1.02,1.29-1.8,2.24-2.36s2.01-.84,3.18-.84,2.15.25,3,.74c.85.5,1.48,1.12,1.9,1.87v-2.4h2.21v13.15h-2.21v-2.45c-.43.77-1.08,1.4-1.93,1.91s-1.85.76-2.99.76-2.22-.29-3.17-.86c-.94-.58-1.69-1.38-2.23-2.42-.54-1.04-.82-2.22-.82-3.55s.27-2.52.82-3.54ZM94.93,10.42c-.4-.74-.94-1.3-1.62-1.69-.68-.39-1.43-.59-2.24-.59s-1.56.19-2.23.58c-.67.38-1.21.94-1.61,1.68s-.6,1.6-.6,2.59.2,1.88.6,2.63.94,1.31,1.61,1.7c.67.39,1.42.59,2.23.59s1.56-.2,2.24-.59c.68-.39,1.22-.96,1.62-1.7s.6-1.61.6-2.6-.2-1.86-.6-2.59Z"/>
    <path d="M106.79,8.26h-2.76v11.35h-2.18v-11.35h-1.7v-1.8h1.7v-.94c0-1.47.38-2.55,1.14-3.23.76-.68,1.98-1.02,3.66-1.02v1.82c-.96,0-1.64.19-2.03.56-.39.38-.59,1-.59,1.86v.94h2.76v1.8Z"/>
    <path d="M109.4,3.89c-.29-.29-.43-.64-.43-1.06s.14-.77.43-1.06.64-.43,1.06-.43.74.14,1.02.43c.28.29.42.64.42,1.06s-.14.77-.42,1.06c-.28.29-.62.43-1.02.43s-.77-.14-1.06-.43ZM111.52,6.46v13.15h-2.18V6.46h2.18Z"/>
    <path d="M119.39,6.98c.86-.5,1.85-.74,2.95-.74,1.18,0,2.25.28,3.19.84.94.56,1.69,1.35,2.23,2.36.54,1.02.82,2.2.82,3.54s-.27,2.51-.82,3.55-1.29,1.85-2.24,2.42-2.01.86-3.18.86-2.13-.25-2.99-.74-1.5-1.13-1.93-1.9v2.42h-2.18V1.85h2.18v7.06c.45-.78,1.1-1.42,1.97-1.92ZM125.75,10.39c-.4-.74-.94-1.3-1.62-1.68-.68-.38-1.43-.58-2.24-.58s-1.54.2-2.22.59-1.22.96-1.63,1.7c-.41.74-.61,1.6-.61,2.58s.2,1.86.61,2.6c.41.74.95,1.31,1.63,1.7s1.42.59,2.22.59,1.56-.2,2.24-.59c.68-.39,1.22-.96,1.62-1.7s.6-1.62.6-2.63-.2-1.86-.6-2.59Z"/>
    <path d="M143.39,13.85h-10.51c.08,1.3.52,2.31,1.33,3.04.81.73,1.79,1.09,2.94,1.09.94,0,1.73-.22,2.36-.66.63-.44,1.08-1.03,1.33-1.76h2.35c-.35,1.26-1.06,2.29-2.11,3.08-1.06.79-2.37,1.19-3.94,1.19-1.25,0-2.36-.28-3.35-.84s-1.76-1.36-2.32-2.39c-.56-1.03-.84-2.23-.84-3.59s.27-2.55.82-3.58c.54-1.02,1.31-1.81,2.29-2.36.98-.55,2.12-.83,3.4-.83s2.35.27,3.31.82,1.7,1.29,2.22,2.24c.52.95.78,2.03.78,3.23,0,.42-.02.86-.07,1.32ZM140.65,9.92c-.37-.6-.87-1.06-1.5-1.37-.63-.31-1.33-.47-2.1-.47-1.1,0-2.04.35-2.82,1.06-.78.7-1.22,1.68-1.33,2.93h8.3c0-.83-.18-1.55-.55-2.15Z"/>
    <path d="M149,8.26v7.75c0,.64.14,1.09.41,1.36.27.26.74.4,1.42.4h1.61v1.85h-1.97c-1.22,0-2.13-.28-2.74-.84-.61-.56-.91-1.48-.91-2.76v-7.75h-1.7v-1.8h1.7v-3.31h2.18v3.31h3.43v1.8h-3.43Z"/>
    <path d="M166.4,6.46l-7.92,19.34h-2.26l2.59-6.34-5.3-13.01h2.42l4.13,10.66,4.08-10.66h2.26Z"/>
    <path d="M177,6.98c.86.5,1.49,1.12,1.91,1.87v-2.4h2.21v13.44c0,1.2-.26,2.27-.77,3.2s-1.24,1.67-2.2,2.2c-.95.53-2.06.79-3.32.79-1.73,0-3.17-.41-4.32-1.22s-1.83-1.93-2.04-3.34h2.16c.24.8.74,1.44,1.49,1.93.75.49,1.66.73,2.71.73,1.2,0,2.18-.38,2.94-1.13.76-.75,1.14-1.81,1.14-3.17v-2.76c-.43.77-1.07,1.41-1.92,1.92-.85.51-1.84.77-2.98.77s-2.23-.29-3.18-.86-1.7-1.38-2.24-2.42c-.54-1.04-.82-2.22-.82-3.55s.27-2.52.82-3.54c.54-1.02,1.29-1.8,2.24-2.36s2.01-.84,3.18-.84,2.13.25,2.99.74ZM178.31,10.42c-.4-.74-.94-1.3-1.62-1.69-.68-.39-1.43-.59-2.24-.59s-1.56.19-2.23.58c-.67.38-1.21.94-1.61,1.68s-.6,1.6-.6,2.59.2,1.88.6,2.63.94,1.31,1.61,1.7c.67.39,1.42.59,2.23.59s1.56-.2,2.24-.59c.68-.39,1.22-.96,1.62-1.7s.6-1.61.6-2.6-.2-1.86-.6-2.59Z"/>
    <path d="M195.37,6.98c.86-.5,1.85-.74,2.95-.74,1.18,0,2.25.28,3.19.84.94.56,1.69,1.35,2.23,2.36.54,1.02.82,2.2.82,3.54s-.27,2.51-.82,3.55-1.29,1.85-2.24,2.42-2.01.86-3.18.86-2.13-.25-2.99-.74-1.5-1.13-1.93-1.9v2.42h-2.18V1.85h2.18v7.06c.45-.78,1.1-1.42,1.97-1.92ZM201.73,10.39c-.4-.74-.94-1.3-1.62-1.68-.68-.38-1.43-.58-2.24-.58s-1.54.2-2.22.59-1.22.96-1.63,1.7c-.41.74-.61,1.6-.61,2.58s.2,1.86.61,2.6c.41.74.95,1.31,1.63,1.7s1.42.59,2.22.59,1.56-.2,2.24-.59c.68-.39,1.22-.96,1.62-1.7s.6-1.62.6-2.63-.2-1.86-.6-2.59Z"/>
    <path d="M207.44,9.44c.54-1.02,1.29-1.8,2.24-2.36s2.01-.84,3.18-.84,2.15.25,3,.74c.85.5,1.48,1.12,1.9,1.87v-2.4h2.21v13.15h-2.21v-2.45c-.43.77-1.08,1.4-1.93,1.91s-1.85.76-2.99.76-2.22-.29-3.17-.86c-.94-.58-1.69-1.38-2.23-2.42-.54-1.04-.82-2.22-.82-3.55s.27-2.52.82-3.54ZM217.16,10.42c-.4-.74-.94-1.3-1.62-1.69-.68-.39-1.43-.59-2.24-.59s-1.56.19-2.23.58c-.67.38-1.21.94-1.61,1.68s-.6,1.6-.6,2.59.2,1.88.6,2.63.94,1.31,1.61,1.7c.67.39,1.42.59,2.23.59s1.56-.2,2.24-.59c.68-.39,1.22-.96,1.62-1.7s.6-1.61.6-2.6-.2-1.86-.6-2.59Z"/>
    <path d="M225.61,19.31c-.8-.34-1.43-.82-1.9-1.44-.46-.62-.72-1.32-.77-2.12h2.26c.06.66.37,1.19.92,1.61.55.42,1.28.62,2.17.62.83,0,1.49-.18,1.97-.55.48-.37.72-.83.72-1.39s-.26-1-.77-1.28-1.3-.56-2.38-.83c-.98-.26-1.77-.52-2.39-.78-.62-.26-1.14-.66-1.58-1.18-.44-.52-.66-1.2-.66-2.05,0-.67.2-1.29.6-1.85.4-.56.97-1,1.7-1.33.74-.33,1.58-.49,2.52-.49,1.46,0,2.63.37,3.53,1.1.9.74,1.38,1.74,1.44,3.02h-2.18c-.05-.69-.32-1.24-.83-1.66s-1.18-.62-2.03-.62c-.78,0-1.41.17-1.87.5-.46.34-.7.78-.7,1.32,0,.43.14.79.42,1.07.28.28.63.5,1.06.67s1.01.36,1.76.56c.94.26,1.71.51,2.3.76.59.25,1.1.62,1.52,1.12.42.5.64,1.14.66,1.94,0,.72-.2,1.37-.6,1.94-.4.58-.96,1.03-1.69,1.36-.73.33-1.56.49-2.51.49-1.01,0-1.91-.17-2.71-.52Z"/>
    <path d="M248.12,13.85h-10.51c.08,1.3.52,2.31,1.33,3.04.81.73,1.79,1.09,2.94,1.09.94,0,1.73-.22,2.36-.66.63-.44,1.08-1.03,1.33-1.76h2.35c-.35,1.26-1.06,2.29-2.11,3.08-1.06.79-2.37,1.19-3.94,1.19-1.25,0-2.36-.28-3.35-.84s-1.76-1.36-2.32-2.39c-.56-1.03-.84-2.23-.84-3.59s.27-2.55.82-3.58c.54-1.02,1.31-1.81,2.29-2.36.98-.55,2.12-.83,3.4-.83s2.35.27,3.31.82,1.7,1.29,2.22,2.24c.52.95.78,2.03.78,3.23,0,.42-.02.86-.07,1.32ZM245.39,9.92c-.37-.6-.87-1.06-1.5-1.37-.63-.31-1.33-.47-2.1-.47-1.1,0-2.04.35-2.82,1.06-.78.7-1.22,1.68-1.33,2.93h8.3c0-.83-.18-1.55-.55-2.15Z"/>
    <path d="M254.9,6.84c.71-.42,1.58-.62,2.6-.62v2.26h-.58c-2.45,0-3.67,1.33-3.67,3.98v7.15h-2.18V6.46h2.18v2.14c.38-.75.93-1.34,1.64-1.75Z"/>
    <path d="M260.02,9.44c.54-1.02,1.29-1.8,2.24-2.36s2.01-.84,3.18-.84,2.15.25,3,.74c.85.5,1.48,1.12,1.9,1.87v-2.4h2.21v13.15h-2.21v-2.45c-.43.77-1.08,1.4-1.93,1.91-.86.5-1.85.76-2.99.76s-2.22-.29-3.17-.86c-.94-.58-1.69-1.38-2.23-2.42-.54-1.04-.82-2.22-.82-3.55s.27-2.52.82-3.54ZM269.74,10.42c-.4-.74-.94-1.3-1.62-1.69-.68-.39-1.43-.59-2.24-.59s-1.56.19-2.23.58-1.21.94-1.61,1.68-.6,1.6-.6,2.59.2,1.88.6,2.63.94,1.31,1.61,1.7,1.42.59,2.23.59,1.56-.2,2.24-.59c.68-.39,1.22-.96,1.62-1.7.4-.74.6-1.61.6-2.6s-.2-1.86-.6-2.59Z"/>
    <path d="M278.91,8.26v7.75c0,.64.14,1.09.41,1.36.27.26.74.4,1.42.4h1.61v1.85h-1.97c-1.22,0-2.13-.28-2.74-.84-.61-.56-.91-1.48-.91-2.76v-7.75h-1.7v-1.8h1.7v-3.31h2.18v3.31h3.43v1.8h-3.43Z"/>
    <path d="M295.51,7c.86-.5,1.85-.76,2.99-.76s2.23.28,3.18.84,1.7,1.35,2.24,2.36c.54,1.02.82,2.2.82,3.54s-.27,2.51-.82,3.55-1.29,1.85-2.24,2.42-2.01.86-3.18.86-2.11-.25-2.96-.76c-.86-.5-1.51-1.13-1.96-1.88v8.66h-2.18V6.46h2.18v2.42c.43-.75,1.08-1.38,1.93-1.88ZM301.9,10.39c-.4-.74-.94-1.3-1.62-1.68-.68-.38-1.43-.58-2.24-.58s-1.54.2-2.22.59c-.68.39-1.22.96-1.63,1.7-.41.74-.61,1.6-.61,2.58s.2,1.86.61,2.6.95,1.31,1.63,1.7c.68.39,1.42.59,2.22.59s1.56-.2,2.24-.59c.68-.39,1.22-.96,1.62-1.7.4-.74.6-1.62.6-2.63s-.2-1.86-.6-2.59Z"/>
    <path d="M307.62,9.44c.54-1.02,1.29-1.8,2.24-2.36s2.01-.84,3.18-.84,2.15.25,3,.74c.85.5,1.48,1.12,1.9,1.87v-2.4h2.21v13.15h-2.21v-2.45c-.43.77-1.08,1.4-1.93,1.91-.86.5-1.85.76-2.99.76s-2.22-.29-3.17-.86c-.94-.58-1.69-1.38-2.23-2.42s-.82-2.22-.82-3.55.27-2.52.82-3.54ZM317.33,10.42c-.4-.74-.94-1.3-1.62-1.69-.68-.39-1.43-.59-2.24-.59s-1.56.19-2.23.58-1.21.94-1.61,1.68c-.4.74-.6,1.6-.6,2.59s.2,1.88.6,2.63c.4.74.94,1.31,1.61,1.7s1.42.59,2.23.59,1.56-.2,2.24-.59c.68-.39,1.22-.96,1.62-1.7.4-.74.6-1.61.6-2.6s-.2-1.86-.6-2.59ZM315.74,4.36c-.49.46-1.1.68-1.84.68s-1.33-.23-1.82-.7c-.5-.46-.74-1.07-.74-1.82s.25-1.36.74-1.82c.5-.46,1.1-.7,1.82-.7s1.35.23,1.84.68.73,1.07.73,1.84-.24,1.38-.73,1.84ZM314.83,1.52c-.25-.25-.56-.37-.92-.37s-.68.12-.92.37-.37.57-.37.97.12.73.37.98.56.38.92.38.68-.13.92-.38.37-.58.37-.98-.12-.72-.37-.97Z"/>
    <path d="M330.25,9.44c.54-1.02,1.29-1.8,2.24-2.36s2.01-.84,3.18-.84,2.15.25,3,.74c.85.5,1.48,1.12,1.9,1.87v-2.4h2.21v13.15h-2.21v-2.45c-.43.77-1.08,1.4-1.93,1.91-.86.5-1.85.76-2.99.76s-2.22-.29-3.17-.86c-.94-.58-1.69-1.38-2.23-2.42s-.82-2.22-.82-3.55.27-2.52.82-3.54ZM339.97,10.42c-.4-.74-.94-1.3-1.62-1.69-.68-.39-1.43-.59-2.24-.59s-1.56.19-2.23.58-1.21.94-1.61,1.68c-.4.74-.6,1.6-.6,2.59s.2,1.88.6,2.63c.4.74.94,1.31,1.61,1.7s1.42.59,2.23.59,1.56-.2,2.24-.59c.68-.39,1.22-.96,1.62-1.7.4-.74.6-1.61.6-2.6s-.2-1.86-.6-2.59ZM338.37,4.36c-.49.46-1.1.68-1.84.68s-1.33-.23-1.82-.7c-.5-.46-.74-1.07-.74-1.82s.25-1.36.74-1.82c.5-.46,1.1-.7,1.82-.7s1.35.23,1.84.68.73,1.07.73,1.84-.24,1.38-.73,1.84ZM337.46,1.52c-.25-.25-.56-.37-.92-.37s-.68.12-.92.37-.37.57-.37.97.12.73.37.98.56.38.92.38.68-.13.92-.38.37-.58.37-.98-.12-.72-.37-.97Z"/>
    <path d="M348.66,1.85v17.76h-2.18V1.85h2.18Z"/>
    <path d="M352.37,9.44c.54-1.02,1.29-1.8,2.24-2.36s2.02-.84,3.2-.84c1.02,0,1.98.24,2.86.71.88.47,1.55,1.09,2.02,1.86V1.85h2.21v17.76h-2.21v-2.47c-.43.78-1.07,1.43-1.92,1.93s-1.84.76-2.98.76-2.23-.29-3.18-.86-1.7-1.38-2.24-2.42c-.54-1.04-.82-2.22-.82-3.55s.27-2.52.82-3.54ZM362.09,10.42c-.4-.74-.94-1.3-1.62-1.69-.68-.39-1.43-.59-2.24-.59s-1.56.19-2.23.58c-.67.38-1.21.94-1.61,1.68-.4.74-.6,1.6-.6,2.59s.2,1.88.6,2.63c.4.74.94,1.31,1.61,1.7.67.39,1.42.59,2.23.59s1.56-.2,2.24-.59c.68-.39,1.22-.96,1.62-1.7.4-.74.6-1.61.6-2.6s-.2-1.86-.6-2.59Z"/>
    <path d="M380.53,13.85h-10.51c.08,1.3.52,2.31,1.33,3.04.81.73,1.79,1.09,2.94,1.09.94,0,1.73-.22,2.36-.66.63-.44,1.08-1.03,1.33-1.76h2.35c-.35,1.26-1.06,2.29-2.11,3.08-1.06.79-2.37,1.19-3.94,1.19-1.25,0-2.36-.28-3.35-.84-.98-.56-1.76-1.36-2.32-2.39-.56-1.03-.84-2.23-.84-3.59s.27-2.55.82-3.58,1.31-1.81,2.29-2.36c.98-.55,2.12-.83,3.4-.83s2.35.27,3.31.82,1.7,1.29,2.22,2.24c.52.95.78,2.03.78,3.23,0,.42-.02.86-.07,1.32ZM377.79,9.92c-.37-.6-.87-1.06-1.5-1.37-.63-.31-1.33-.47-2.1-.47-1.1,0-2.04.35-2.82,1.06-.78.7-1.22,1.68-1.33,2.93h8.3c0-.83-.18-1.55-.55-2.15Z"/>
    <path d="M387.31,6.84c.71-.42,1.58-.62,2.6-.62v2.26h-.58c-2.45,0-3.67,1.33-3.67,3.98v7.15h-2.18V6.46h2.18v2.14c.38-.75.93-1.34,1.64-1.75Z"/>
  </g>
  <rect class="cls-4" x="61.44" y="104.53" width="75.99" height="39"/>
  <rect class="cls-1" x="137.43" y="104.53" width="165.99" height="39"/>
  <rect class="cls-2" x="303.43" y="104.53" width="140.02" height="39"/>
  <rect class="cls-4" x="160.3" y="76.62" width="13.36" height="5.61"/>
  <rect class="cls-1" x="237.02" y="76.82" width="13.36" height="5.61"/>
  <rect class="cls-2" x="316.22" y="76.62" width="13.36" height="5.61"/>
  <rect class="cls-4" x="61.44" y="175.53" width="117" height="39"/>
  <rect class="cls-1" x="178.44" y="175.53" width="237" height="39"/>
  <rect class="cls-2" x="415.44" y="175.53" width="28" height="39"/>
  <rect class="cls-4" x="61.44" y="248.57" width="85" height="39"/>
  <rect class="cls-1" x="146.44" y="248.57" width="256.98" height="39"/>
  <rect class="cls-2" x="403.43" y="248.57" width="40.02" height="39"/>
  <g>
    <path class="cls-3" d="M200.39,126.66v-.69l3.51-4.86h1.09v4.76h1v.79h-1v1.61h-.9v-1.61h-3.7ZM204.13,122.06l-2.69,3.81h2.69v-3.81Z"/>
    <path class="cls-3" d="M207.59,121.42c.43-.35.98-.52,1.66-.52.45,0,.84.08,1.17.25s.58.38.75.67.25.6.25.95c0,.41-.12.77-.35,1.07-.24.3-.54.49-.92.58v.05c.43.11.78.32,1.03.63s.38.72.38,1.23c0,.38-.09.72-.26,1.03s-.43.54-.78.71c-.35.17-.76.26-1.25.26-.71,0-1.29-.18-1.74-.55-.45-.37-.71-.9-.76-1.58h.88c.05.4.21.73.49.98.28.25.65.38,1.12.38s.82-.12,1.06-.37.37-.56.37-.95c0-.5-.17-.86-.5-1.08-.33-.22-.84-.33-1.51-.33h-.23v-.76h.24c.61,0,1.08-.11,1.39-.3s.47-.5.47-.92c0-.35-.12-.64-.35-.85-.23-.21-.56-.32-.98-.32s-.75.11-1,.32c-.25.21-.4.5-.45.86h-.89c.05-.61.28-1.09.71-1.44Z"/>
    <path class="cls-3" d="M213.88,127.01l-1.12,2.69h-.61l.73-2.69h1Z"/>
    <path class="cls-3" d="M215.46,121.42c.43-.35.98-.52,1.66-.52.45,0,.84.08,1.17.25s.58.38.75.67.25.6.25.95c0,.41-.12.77-.35,1.07-.24.3-.54.49-.92.58v.05c.43.11.78.32,1.03.63s.38.72.38,1.23c0,.38-.09.72-.26,1.03s-.43.54-.78.71c-.35.17-.76.26-1.25.26-.71,0-1.29-.18-1.74-.55-.45-.37-.71-.9-.76-1.58h.88c.05.4.21.73.49.98.28.25.65.38,1.12.38s.82-.12,1.06-.37.37-.56.37-.95c0-.5-.17-.86-.5-1.08-.33-.22-.84-.33-1.51-.33h-.23v-.76h.24c.61,0,1.08-.11,1.39-.3s.47-.5.47-.92c0-.35-.12-.64-.35-.85-.23-.21-.56-.32-.98-.32s-.75.11-1,.32c-.25.21-.4.5-.45.86h-.89c.05-.61.28-1.09.71-1.44Z"/>
    <path class="cls-3" d="M223.54,121.58c.27-.27.62-.41,1.05-.41s.78.13,1.05.41c.27.27.41.63.41,1.08s-.14.82-.41,1.09c-.27.27-.62.41-1.05.41s-.78-.14-1.05-.41c-.27-.27-.41-.63-.41-1.09s.14-.82.41-1.08ZM224.06,121.97c-.13.16-.2.39-.2.7s.06.54.2.7c.13.16.31.24.53.24s.41-.08.54-.25c.13-.16.2-.39.2-.69s-.07-.54-.2-.7-.31-.24-.54-.24-.4.08-.53.24ZM228.97,121.29l-4.05,6.98h-.9l4.05-6.98h.9ZM227.37,125.79c.27-.27.62-.41,1.05-.41s.77.13,1.04.41c.27.27.41.63.41,1.09s-.14.82-.41,1.09-.62.41-1.04.41-.78-.13-1.05-.41c-.27-.27-.41-.63-.41-1.09s.14-.83.41-1.09ZM227.87,126.19c-.13.16-.2.39-.2.7s.07.53.2.68c.13.16.31.24.54.24s.41-.08.54-.24c.13-.16.2-.38.2-.68s-.07-.54-.2-.7c-.13-.16-.31-.23-.54-.23s-.41.08-.54.23Z"/>
  </g>
  <g>
    <path class="cls-3" d="M363.19,120.72c.43-.35.98-.52,1.66-.52.45,0,.84.08,1.17.25s.58.38.75.67.25.6.25.95c0,.41-.12.77-.35,1.07-.24.3-.54.49-.92.58v.05c.43.11.78.32,1.03.63.25.31.38.72.38,1.23,0,.38-.09.72-.26,1.03-.17.3-.43.54-.78.71s-.76.26-1.25.26c-.71,0-1.29-.18-1.74-.55-.45-.37-.71-.9-.76-1.58h.88c.05.4.21.73.49.98.28.25.65.38,1.12.38s.82-.12,1.07-.37.37-.56.37-.95c0-.5-.17-.86-.5-1.08-.33-.22-.84-.33-1.51-.33h-.23v-.76h.24c.61,0,1.08-.11,1.39-.3s.47-.5.47-.92c0-.35-.12-.64-.34-.85-.23-.21-.56-.32-.99-.32s-.75.11-1,.32c-.25.21-.4.5-.45.86h-.89c.05-.61.28-1.09.71-1.44Z"/>
    <path class="cls-3" d="M371.05,120.95c-.59,0-1.04.23-1.33.69-.29.46-.44,1.21-.43,2.25.15-.35.41-.62.76-.82.36-.2.75-.29,1.2-.29.69,0,1.23.21,1.64.64.41.43.62,1.02.62,1.77,0,.45-.09.86-.26,1.22-.18.36-.44.65-.8.86-.36.21-.79.32-1.29.32-.69,0-1.22-.15-1.61-.46-.39-.31-.66-.73-.81-1.27s-.23-1.21-.23-2c0-2.45.85-3.67,2.56-3.67.65,0,1.17.18,1.54.53s.59.8.66,1.34h-.84c-.15-.74-.6-1.11-1.37-1.11ZM370.25,123.72c-.25.12-.46.29-.62.53-.16.24-.24.53-.24.87,0,.51.15.92.44,1.24.29.32.71.47,1.26.47.47,0,.84-.14,1.12-.43s.42-.68.42-1.17c0-.52-.13-.93-.4-1.23-.27-.3-.66-.44-1.17-.44-.29,0-.56.06-.81.17Z"/>
    <path class="cls-3" d="M375.83,126.31l-1.12,2.69h-.61l.73-2.69h1Z"/>
    <path class="cls-3" d="M381.17,121.05l-2.78,6.52h-.92l2.82-6.43h-3.86v-.78h4.74v.69Z"/>
    <path class="cls-3" d="M382.39,120.88c.27-.27.62-.41,1.05-.41s.78.13,1.05.41c.27.27.41.63.41,1.08s-.14.82-.41,1.09c-.27.27-.62.41-1.05.41s-.78-.14-1.05-.41c-.27-.27-.41-.63-.41-1.09s.14-.82.41-1.08ZM382.91,121.27c-.13.16-.2.39-.2.7s.06.54.2.7c.13.16.31.24.53.24s.41-.08.54-.25c.13-.16.2-.39.2-.69s-.07-.54-.2-.7c-.13-.16-.31-.24-.54-.24s-.4.08-.53.24ZM387.82,120.59l-4.05,6.98h-.9l4.05-6.98h.9ZM386.22,125.09c.27-.27.62-.41,1.05-.41s.78.13,1.04.41c.27.27.41.63.41,1.09s-.13.82-.41,1.09c-.27.27-.62.41-1.04.41s-.78-.13-1.05-.41c-.27-.27-.41-.63-.41-1.09s.14-.83.41-1.09ZM386.72,125.49c-.13.16-.2.39-.2.7s.07.53.2.68c.13.16.31.24.54.24s.41-.08.54-.24c.13-.16.2-.38.2-.68s-.07-.54-.2-.7c-.13-.16-.31-.23-.54-.23s-.41.08-.54.23Z"/>
  </g>
  <g>
    <path class="cls-3" d="M106.28,192.37c.43-.35.98-.52,1.66-.52.45,0,.84.08,1.17.25s.58.38.75.67.25.6.25.95c0,.41-.12.77-.35,1.07-.24.3-.54.49-.92.58v.05c.43.11.78.32,1.03.63s.38.72.38,1.23c0,.38-.09.72-.26,1.03s-.43.54-.78.71c-.35.17-.76.26-1.25.26-.71,0-1.29-.18-1.74-.55-.45-.37-.71-.9-.76-1.58h.88c.05.4.21.73.49.98.28.25.65.38,1.12.38s.82-.12,1.06-.37.37-.56.37-.95c0-.5-.17-.86-.5-1.08-.33-.22-.84-.33-1.51-.33h-.23v-.76h.24c.61,0,1.08-.11,1.39-.3s.47-.5.47-.92c0-.35-.12-.64-.35-.85-.23-.21-.56-.32-.98-.32s-.75.11-1,.32c-.25.21-.4.5-.45.86h-.89c.05-.61.28-1.09.71-1.44Z"/>
    <path class="cls-3" d="M112.04,192.84c.37-.64,1.03-.96,1.96-.96s1.58.32,1.95.96c.37.64.56,1.54.56,2.68s-.19,2.07-.56,2.72c-.37.65-1.02.97-1.95.97s-1.59-.32-1.96-.97c-.37-.65-.56-1.55-.56-2.72s.19-2.04.56-2.68ZM115.5,194.05c-.08-.4-.23-.73-.47-.97-.24-.25-.58-.37-1.02-.37s-.8.12-1.04.37c-.24.25-.39.57-.47.97s-.11.9-.11,1.47.04,1.1.11,1.51c.08.41.23.73.47.98.24.25.58.37,1.04.37s.79-.12,1.02-.37c.24-.25.39-.57.47-.98.08-.41.12-.91.12-1.51s-.04-1.07-.12-1.47Z"/>
    <path class="cls-3" d="M118.85,197.96l-1.12,2.69h-.61l.73-2.69h1Z"/>
    <path class="cls-3" d="M124.19,192.7l-2.78,6.52h-.92l2.82-6.43h-3.86v-.78h4.74v.69Z"/>
    <path class="cls-3" d="M128.08,192.53c.27-.27.62-.41,1.05-.41s.78.13,1.05.41c.27.27.41.63.41,1.08s-.14.82-.41,1.09c-.27.27-.62.41-1.05.41s-.78-.14-1.05-.41c-.27-.27-.41-.63-.41-1.09s.14-.82.41-1.08ZM128.6,192.92c-.13.16-.2.39-.2.7s.06.54.2.7c.13.16.31.24.53.24s.41-.08.54-.25c.13-.16.2-.39.2-.69s-.07-.54-.2-.7-.31-.24-.54-.24-.4.08-.53.24ZM133.51,192.24l-4.05,6.98h-.9l4.05-6.98h.9ZM131.91,196.74c.27-.27.62-.41,1.05-.41s.77.13,1.04.41c.27.27.41.63.41,1.09s-.14.82-.41,1.09-.62.41-1.04.41-.78-.13-1.05-.41c-.27-.27-.41-.63-.41-1.09s.14-.83.41-1.09ZM132.41,197.14c-.13.16-.2.39-.2.7s.07.53.2.68c.13.16.31.24.54.24s.41-.08.54-.24c.13-.16.2-.38.2-.68s-.07-.54-.2-.7c-.13-.16-.31-.23-.54-.23s-.41.08-.54.23Z"/>
  </g>
  <g>
    <path class="cls-3" d="M425.13,192.56l-2.78,6.52h-.92l2.82-6.43h-3.86v-.78h4.74v.69Z"/>
    <path class="cls-3" d="M427.23,197.82l-1.12,2.69h-.61l.73-2.69h1Z"/>
    <path class="cls-3" d="M428.81,192.23c.43-.35.98-.52,1.66-.52.45,0,.84.08,1.17.25s.58.38.75.67.25.6.25.95c0,.41-.12.77-.36,1.07-.24.3-.54.49-.92.58v.05c.43.11.78.32,1.03.63.25.31.38.72.38,1.23,0,.38-.09.72-.26,1.03-.17.3-.43.54-.78.71-.35.17-.76.26-1.25.26-.71,0-1.29-.18-1.74-.55s-.71-.9-.76-1.58h.88c.05.4.21.73.49.98.28.25.65.38,1.12.38s.82-.12,1.06-.37.37-.56.37-.95c0-.5-.17-.86-.5-1.08-.33-.22-.84-.33-1.51-.33h-.23v-.76h.24c.61,0,1.08-.11,1.39-.3s.47-.5.47-.92c0-.35-.12-.64-.35-.85-.23-.21-.56-.32-.98-.32s-.75.11-1,.32c-.25.21-.4.5-.45.86h-.89c.05-.61.28-1.09.71-1.44Z"/>
    <path class="cls-3" d="M434.22,192.4c.27-.27.62-.41,1.05-.41s.78.13,1.05.41c.27.27.41.63.41,1.08s-.14.82-.41,1.09c-.27.27-.62.41-1.05.41s-.78-.14-1.05-.41c-.27-.27-.41-.63-.41-1.09s.14-.82.41-1.08ZM434.73,192.79c-.13.16-.2.39-.2.7s.06.54.2.7c.13.16.31.24.53.24s.41-.08.54-.25c.13-.16.2-.39.2-.69s-.07-.54-.2-.7c-.13-.16-.31-.24-.54-.24s-.4.08-.53.24ZM439.64,192.1l-4.05,6.98h-.9l4.05-6.98h.9ZM438.05,196.61c.27-.27.62-.41,1.05-.41s.78.13,1.04.41c.27.27.41.63.41,1.09s-.13.82-.41,1.09c-.27.27-.62.41-1.04.41s-.78-.13-1.05-.41c-.27-.27-.41-.63-.41-1.09s.14-.83.41-1.09ZM438.55,197.01c-.13.16-.2.39-.2.7s.07.53.2.68c.13.16.31.24.54.24s.41-.08.54-.24c.13-.16.2-.38.2-.68s-.07-.54-.2-.7c-.13-.16-.31-.23-.54-.23s-.41.08-.54.23Z"/>
  </g>
  <g>
    <path class="cls-3" d="M91.29,269.55c.48-.44.88-.89,1.21-1.37.33-.48.5-.94.5-1.4,0-.43-.1-.78-.31-1.03s-.55-.38-1.02-.38-.8.14-1.05.42c-.25.28-.39.66-.41,1.14h-.88c.03-.75.25-1.32.68-1.73.43-.41.98-.61,1.65-.61s1.23.19,1.63.57.6.9.6,1.57c0,.55-.17,1.09-.49,1.61-.33.52-.71.98-1.12,1.38-.42.4-.96.86-1.61,1.38h3.44v.76h-4.81v-.65c.85-.68,1.51-1.24,1.99-1.67Z"/>
    <path class="cls-3" d="M97.04,269.55c.48-.44.88-.89,1.21-1.37.33-.48.5-.94.5-1.4,0-.43-.1-.78-.31-1.03s-.55-.38-1.02-.38-.8.14-1.05.42c-.25.28-.39.66-.41,1.14h-.88c.03-.75.25-1.32.68-1.73.43-.41.98-.61,1.65-.61s1.23.19,1.63.57.6.9.6,1.57c0,.55-.17,1.09-.49,1.61-.33.52-.71.98-1.12,1.38-.42.4-.96.86-1.61,1.38h3.44v.76h-4.81v-.65c.85-.68,1.51-1.24,1.99-1.67Z"/>
    <path class="cls-3" d="M102,270.7l-1.12,2.69h-.61l.73-2.69h1Z"/>
    <path class="cls-3" d="M102.67,270.35v-.69l3.51-4.86h1.09v4.76h1v.79h-1v1.61h-.9v-1.61h-3.7ZM106.41,265.75l-2.69,3.81h2.69v-3.81Z"/>
    <path class="cls-3" d="M109.39,265.27c.27-.27.62-.41,1.05-.41s.78.13,1.05.41c.27.27.41.63.41,1.08s-.14.82-.41,1.09c-.27.27-.62.41-1.05.41s-.78-.14-1.05-.41c-.27-.27-.41-.63-.41-1.09s.14-.82.41-1.08ZM109.91,265.66c-.13.16-.2.39-.2.7s.06.54.2.7c.13.16.31.24.53.24s.41-.08.54-.25c.13-.16.2-.39.2-.69s-.07-.54-.2-.7-.31-.24-.54-.24-.4.08-.53.24ZM114.82,264.98l-4.05,6.98h-.9l4.05-6.98h.9ZM113.22,269.48c.27-.27.62-.41,1.05-.41s.77.13,1.04.41c.27.27.41.63.41,1.09s-.14.82-.41,1.09-.62.41-1.04.41-.78-.13-1.05-.41c-.27-.27-.41-.63-.41-1.09s.14-.83.41-1.09ZM113.72,269.88c-.13.16-.2.39-.2.7s.07.53.2.68c.13.16.31.24.54.24s.41-.08.54-.24c.13-.16.2-.38.2-.68s-.07-.54-.2-.7c-.13-.16-.31-.23-.54-.23s-.41.08-.54.23Z"/>
  </g>
  <g>
    <path class="cls-3" d="M268.89,267.62c-.59,0-1.04.23-1.33.69-.29.46-.44,1.21-.43,2.25.15-.35.41-.62.77-.82.36-.2.75-.29,1.19-.29.69,0,1.23.21,1.65.64.41.43.62,1.02.62,1.77,0,.45-.09.86-.27,1.22-.18.36-.44.65-.8.86-.36.21-.79.32-1.29.32-.69,0-1.22-.15-1.61-.46-.39-.31-.66-.73-.81-1.27s-.23-1.21-.23-2c0-2.45.85-3.67,2.56-3.67.65,0,1.17.18,1.54.53.37.35.59.8.66,1.34h-.84c-.15-.74-.6-1.11-1.37-1.11ZM268.09,270.39c-.25.12-.46.29-.61.53-.16.24-.24.53-.24.87,0,.51.15.92.44,1.24s.71.47,1.26.47c.47,0,.84-.14,1.11-.43.28-.29.42-.68.42-1.17,0-.52-.13-.93-.4-1.23-.27-.3-.66-.44-1.17-.44-.29,0-.56.06-.81.17Z"/>
    <path class="cls-3" d="M277.03,267.72l-2.78,6.52h-.92l2.82-6.43h-3.86v-.78h4.74v.69Z"/>
    <path class="cls-3" d="M279.13,272.98l-1.12,2.69h-.61l.73-2.69h1Z"/>
    <path class="cls-3" d="M281.9,271.83c.48-.44.88-.89,1.21-1.37.33-.48.5-.94.5-1.4,0-.43-.11-.78-.32-1.03s-.55-.38-1.01-.38-.8.14-1.05.42c-.25.28-.39.66-.41,1.14h-.88c.03-.75.25-1.32.68-1.73s.98-.61,1.65-.61,1.23.19,1.63.57.6.9.6,1.57c0,.55-.17,1.09-.49,1.61-.33.52-.71.98-1.12,1.38-.42.4-.96.86-1.61,1.38h3.44v.76h-4.81v-.65c.85-.68,1.51-1.24,1.99-1.67Z"/>
    <path class="cls-3" d="M285.98,267.55c.27-.27.62-.41,1.05-.41s.78.13,1.05.41c.27.27.41.63.41,1.08s-.14.82-.41,1.09c-.27.27-.62.41-1.05.41s-.78-.14-1.05-.41c-.27-.27-.41-.63-.41-1.09s.14-.82.41-1.08ZM286.5,267.94c-.13.16-.2.39-.2.7s.07.54.2.7c.13.16.31.24.54.24s.41-.08.54-.25c.13-.16.2-.39.2-.69s-.07-.54-.2-.7c-.13-.16-.31-.24-.54-.24s-.41.08-.54.24ZM291.41,267.26l-4.05,6.98h-.9l4.05-6.98h.9ZM289.81,271.76c.27-.27.62-.41,1.05-.41s.77.13,1.04.41.41.63.41,1.09-.14.82-.41,1.09c-.27.27-.62.41-1.04.41s-.78-.13-1.05-.41c-.27-.27-.41-.63-.41-1.09s.14-.83.41-1.09ZM290.31,272.16c-.13.16-.2.39-.2.7s.07.53.2.68c.13.16.31.24.54.24s.41-.08.54-.24c.13-.16.2-.38.2-.68s-.07-.54-.2-.7c-.13-.16-.31-.23-.54-.23s-.41.08-.54.23Z"/>
  </g>
  <g>
    <path class="cls-3" d="M412.77,266.9v-.83h1.88v7.23h-.92v-6.4h-.96Z"/>
    <path class="cls-3" d="M416.77,266.92c.37-.64,1.03-.96,1.96-.96s1.58.32,1.95.96c.37.64.56,1.54.56,2.68s-.19,2.07-.56,2.72c-.37.65-1.02.97-1.95.97s-1.59-.32-1.96-.97c-.37-.65-.56-1.55-.56-2.72s.19-2.04.56-2.68ZM420.23,268.13c-.08-.4-.23-.73-.47-.97-.24-.25-.58-.37-1.02-.37s-.8.12-1.04.37c-.24.25-.39.57-.47.97-.08.4-.11.9-.11,1.47s.04,1.1.11,1.51c.08.41.23.73.47.98.24.25.58.37,1.04.37s.79-.12,1.02-.37c.24-.25.39-.57.47-.98.08-.41.12-.91.12-1.51s-.04-1.07-.12-1.47Z"/>
    <path class="cls-3" d="M423.58,272.04l-1.12,2.69h-.61l.73-2.69h1Z"/>
    <path class="cls-3" d="M424.25,271.69v-.69l3.51-4.86h1.09v4.76h1v.79h-1v1.61h-.9v-1.61h-3.7ZM427.99,267.09l-2.69,3.81h2.69v-3.81Z"/>
    <path class="cls-3" d="M430.97,266.61c.27-.27.62-.41,1.05-.41s.78.13,1.05.41c.27.27.41.63.41,1.08s-.14.82-.41,1.09c-.27.27-.62.41-1.05.41s-.78-.14-1.05-.41c-.27-.27-.41-.63-.41-1.09s.14-.82.41-1.08ZM431.49,267c-.13.16-.2.39-.2.7s.06.54.2.7c.13.16.31.24.53.24s.41-.08.54-.25c.13-.16.2-.39.2-.69s-.07-.54-.2-.7c-.13-.16-.31-.24-.54-.24s-.4.08-.53.24ZM436.4,266.31l-4.05,6.98h-.9l4.05-6.98h.9ZM434.8,270.82c.27-.27.62-.41,1.05-.41s.78.13,1.04.41c.27.27.41.63.41,1.09s-.13.82-.41,1.09c-.27.27-.62.41-1.04.41s-.78-.13-1.05-.41c-.27-.27-.41-.63-.41-1.09s.14-.83.41-1.09ZM435.3,271.22c-.13.16-.2.39-.2.7s.07.53.2.68c.13.16.31.24.54.24s.41-.08.54-.24c.13-.16.2-.38.2-.68s-.07-.54-.2-.7c-.13-.16-.31-.23-.54-.23s-.41.08-.54.23Z"/>
  </g>
  <g>
    <path d="M32.22,121.7h-3.51v2.28c.15-.21.38-.39.68-.52.3-.14.62-.21.97-.21.55,0,1,.12,1.35.35.35.23.59.53.74.89.15.36.23.75.23,1.15,0,.48-.09.91-.27,1.29-.18.38-.46.68-.82.9-.37.22-.83.33-1.38.33-.7,0-1.27-.18-1.7-.54-.43-.36-.7-.84-.79-1.44h.89c.09.38.27.68.55.89.28.21.63.32,1.06.32.53,0,.92-.16,1.19-.48.27-.32.4-.73.4-1.25s-.13-.92-.4-1.21c-.27-.28-.66-.42-1.18-.42-.35,0-.66.08-.93.25s-.46.4-.57.69h-.86v-4.08h4.35v.8Z"/>
    <path d="M34.35,123.74c-.2-.28-.3-.62-.3-1.02,0-.36.09-.69.27-.98.18-.29.45-.52.81-.69.36-.17.79-.25,1.29-.25s.94.08,1.29.25c.36.17.63.4.81.69.18.29.27.62.27.98,0,.39-.1.73-.31,1.02-.21.29-.49.5-.85.65.41.13.74.35.98.66.24.32.37.7.37,1.15s-.11.81-.32,1.14-.52.57-.9.75c-.39.18-.84.27-1.35.27s-.95-.09-1.33-.27c-.38-.18-.68-.43-.9-.75s-.32-.7-.32-1.14.12-.83.36-1.15c.24-.32.57-.54.98-.66-.37-.15-.66-.36-.86-.64ZM35.21,125.12c-.31.23-.47.58-.47,1.04,0,.43.15.77.45,1.03.3.26.71.39,1.23.39s.92-.13,1.22-.39c.3-.26.45-.6.45-1.03s-.15-.79-.46-1.02-.71-.35-1.21-.35-.9.11-1.21.34ZM37.52,121.89c-.27-.22-.63-.33-1.1-.33s-.82.11-1.09.33-.4.54-.4.95c0,.37.14.67.42.9.28.23.63.34,1.07.34s.81-.11,1.08-.34c.28-.23.42-.53.42-.91,0-.41-.13-.72-.4-.94Z"/>
    <path d="M44.15,124.09v.77h-3.99v-.77h3.99Z"/>
    <path d="M50.16,121.62l-2.78,6.52h-.92l2.82-6.43h-3.86v-.78h4.74v.69Z"/>
    <path d="M53.83,121.52c-.59,0-1.04.23-1.33.69-.29.46-.44,1.21-.43,2.25.15-.35.41-.62.77-.81.36-.2.75-.29,1.19-.29.69,0,1.23.21,1.65.64s.62,1.02.62,1.77c0,.45-.09.86-.27,1.22-.18.36-.44.65-.8.86-.36.21-.79.32-1.29.32-.69,0-1.22-.15-1.61-.46s-.66-.73-.81-1.27-.23-1.21-.23-2c0-2.45.85-3.67,2.56-3.67.65,0,1.17.18,1.54.53.37.35.59.8.66,1.34h-.84c-.15-.74-.6-1.11-1.37-1.11ZM53.03,124.29c-.25.12-.46.29-.61.53-.16.24-.24.52-.24.86,0,.51.15.92.44,1.24.29.32.71.47,1.26.47.47,0,.84-.14,1.11-.43.28-.29.42-.68.42-1.18,0-.52-.13-.93-.4-1.23-.27-.3-.66-.44-1.17-.44-.29,0-.56.06-.81.17Z"/>
  </g>
  <g>
    <path d="M28.55,191.84c.43-.35.98-.52,1.66-.52.45,0,.84.08,1.17.25.33.16.58.38.75.67s.25.6.25.95c0,.41-.12.77-.35,1.07-.24.3-.54.49-.92.58v.05c.43.11.78.32,1.03.63s.38.72.38,1.23c0,.38-.09.72-.26,1.03s-.43.54-.78.71c-.35.17-.76.26-1.25.26-.71,0-1.29-.18-1.74-.55-.45-.37-.71-.89-.76-1.58h.88c.05.4.21.73.49.98.28.25.65.38,1.12.38s.82-.12,1.06-.37.37-.56.37-.94c0-.5-.17-.86-.5-1.08-.33-.22-.84-.33-1.51-.33h-.23v-.76h.24c.61,0,1.08-.11,1.39-.3.31-.2.47-.5.47-.92,0-.35-.12-.64-.35-.85-.23-.21-.56-.32-.98-.32s-.75.11-1,.32c-.25.21-.4.5-.45.86h-.89c.05-.61.28-1.09.71-1.44Z"/>
    <path d="M35.38,197.63c.24.21.57.31.99.31.55,0,.96-.22,1.22-.65.26-.43.39-1.16.38-2.19-.14.3-.37.54-.7.71s-.69.25-1.09.25c-.45,0-.84-.09-1.19-.27-.35-.18-.62-.45-.83-.81-.2-.35-.3-.78-.3-1.28,0-.71.21-1.29.62-1.72.41-.44,1-.66,1.76-.66.93,0,1.59.3,1.97.91.38.61.56,1.51.56,2.71,0,.84-.08,1.53-.23,2.08s-.4.96-.76,1.25c-.36.29-.84.43-1.46.43-.68,0-1.21-.18-1.59-.55-.38-.37-.6-.83-.65-1.4h.84c.07.38.22.67.46.88ZM37.43,194.87c.29-.28.43-.65.43-1.12,0-.5-.14-.9-.42-1.21-.28-.31-.67-.46-1.18-.46-.47,0-.84.15-1.11.44-.28.29-.42.68-.42,1.16s.14.88.41,1.17c.27.29.67.44,1.19.44.45,0,.81-.14,1.1-.42Z"/>
    <path d="M44,194.64v.77h-3.99v-.77h3.99Z"/>
    <path d="M50.17,192.25h-3.51v2.28c.15-.21.38-.39.68-.52.3-.14.62-.21.97-.21.55,0,1,.12,1.35.34.35.23.59.53.74.89.15.36.23.75.23,1.15,0,.48-.09.91-.27,1.29-.18.38-.46.68-.82.9-.37.22-.83.33-1.38.33-.7,0-1.27-.18-1.7-.54-.43-.36-.7-.84-.79-1.44h.89c.09.38.27.68.55.89.28.21.63.32,1.06.32.53,0,.92-.16,1.19-.47s.4-.74.4-1.25-.13-.92-.4-1.21-.66-.42-1.18-.42c-.35,0-.66.08-.93.25s-.46.4-.57.69h-.86v-4.08h4.35v.8Z"/>
    <path d="M56.29,192.17l-2.78,6.52h-.92l2.82-6.43h-3.86v-.78h4.74v.69Z"/>
  </g>
  <g>
    <path d="M28.88,265.56v-.83h1.88v7.23h-.92v-6.4h-.96Z"/>
    <path d="M33.96,270.9c.24.21.57.31.99.31.55,0,.96-.22,1.22-.65.26-.43.39-1.16.38-2.19-.14.3-.37.53-.7.71-.33.17-.69.25-1.09.25-.45,0-.84-.09-1.19-.28s-.62-.45-.83-.8c-.2-.35-.3-.78-.3-1.28,0-.71.21-1.29.62-1.72.41-.44,1-.66,1.76-.66.93,0,1.59.3,1.97.91.38.61.56,1.51.56,2.71,0,.84-.08,1.53-.23,2.08s-.4.96-.76,1.25c-.36.29-.84.43-1.46.43-.68,0-1.21-.18-1.59-.55-.38-.37-.6-.83-.65-1.4h.84c.07.38.22.67.46.88ZM36,268.15c.29-.28.43-.65.43-1.12,0-.5-.14-.9-.42-1.21-.28-.31-.67-.46-1.18-.46-.47,0-.84.15-1.11.44-.28.29-.42.68-.42,1.16s.14.88.41,1.17c.27.29.67.44,1.19.44.45,0,.81-.14,1.1-.42Z"/>
    <path d="M42.57,267.91v.77h-3.99v-.77h3.99Z"/>
    <path d="M44.82,265.11c.43-.35.98-.52,1.66-.52.45,0,.84.08,1.17.25s.58.38.75.67c.17.28.25.6.25.95,0,.41-.12.77-.35,1.07s-.54.49-.92.58v.05c.43.11.78.32,1.03.63.25.31.38.72.38,1.23,0,.38-.09.72-.26,1.03-.17.3-.43.54-.78.71-.35.17-.76.26-1.25.26-.71,0-1.29-.18-1.74-.55-.45-.37-.71-.9-.76-1.58h.88c.05.4.21.73.49.98.28.25.65.38,1.12.38s.82-.12,1.06-.36.37-.56.37-.95c0-.5-.17-.86-.5-1.08-.33-.22-.84-.33-1.51-.33h-.23v-.76h.24c.61,0,1.08-.11,1.39-.3.31-.2.47-.5.47-.92,0-.35-.12-.64-.35-.85-.23-.21-.56-.32-.98-.32s-.75.11-1,.32c-.25.21-.4.5-.45.86h-.89c.05-.61.28-1.09.71-1.44Z"/>
    <path d="M50.48,267.56c-.2-.28-.3-.62-.3-1.02,0-.36.09-.69.27-.98.18-.29.45-.52.81-.69.36-.17.79-.25,1.29-.25s.94.08,1.29.25c.36.17.63.4.81.69.18.29.27.62.27.98,0,.39-.1.72-.31,1.01-.21.29-.49.5-.85.65.41.13.74.35.98.66.24.32.37.7.37,1.15s-.11.81-.32,1.13-.52.57-.9.75c-.39.18-.84.27-1.35.27s-.95-.09-1.33-.27-.68-.43-.9-.75-.32-.7-.32-1.13.12-.83.36-1.15c.24-.32.57-.54.98-.66-.37-.15-.66-.36-.86-.64ZM51.34,268.94c-.31.23-.47.58-.47,1.04,0,.43.15.77.45,1.03.3.26.71.39,1.23.39s.92-.13,1.22-.39c.3-.26.45-.6.45-1.03s-.15-.79-.46-1.02c-.31-.24-.71-.36-1.21-.36s-.9.12-1.21.34ZM53.65,265.71c-.27-.22-.63-.33-1.1-.33s-.82.11-1.09.33c-.27.22-.4.54-.4.95,0,.37.14.67.42.9.28.23.63.34,1.07.34s.81-.11,1.08-.34c.28-.23.42-.53.42-.91,0-.41-.13-.72-.4-.94Z"/>
  </g>
  <g>
    <path class="cls-3" d="M286.8,193.4c-.55,0-.97.21-1.24.64-.27.43-.41,1.13-.4,2.11.14-.32.38-.58.72-.76.33-.18.71-.28,1.12-.28.64,0,1.15.2,1.54.6.38.4.57.95.57,1.65,0,.42-.08.8-.25,1.14-.17.34-.41.6-.75.8-.33.2-.74.3-1.21.3-.64,0-1.14-.14-1.5-.43-.36-.29-.61-.68-.76-1.19-.14-.51-.22-1.13-.22-1.87,0-2.29.8-3.43,2.39-3.43.61,0,1.09.17,1.44.5s.55.75.62,1.25h-.79c-.14-.69-.56-1.04-1.28-1.04ZM286.05,195.99c-.24.11-.43.27-.57.5-.15.22-.22.49-.22.81,0,.47.14.86.41,1.15.27.3.67.44,1.18.44.44,0,.78-.14,1.04-.41.26-.27.39-.64.39-1.1,0-.49-.12-.87-.37-1.14-.25-.28-.61-.42-1.09-.42-.27,0-.52.05-.76.16Z"/>
    <path class="cls-3" d="M292.01,197.34c.45-.41.83-.84,1.14-1.28.31-.45.46-.88.46-1.31,0-.41-.1-.72-.29-.96s-.51-.35-.95-.35-.75.13-.99.4c-.23.26-.36.62-.38,1.06h-.82c.02-.7.24-1.24.64-1.62.4-.38.91-.57,1.54-.57s1.15.18,1.53.53c.38.36.57.85.57,1.47,0,.52-.15,1.02-.46,1.51-.31.49-.66.92-1.05,1.29-.39.37-.89.8-1.51,1.29h3.22v.71h-4.5v-.61c.79-.64,1.41-1.16,1.86-1.57Z"/>
    <path class="cls-3" d="M296.65,198.41l-1.05,2.51h-.57l.68-2.51h.93Z"/>
    <path class="cls-3" d="M298,193.63c.35-.6.96-.9,1.83-.9s1.47.3,1.82.9c.35.6.52,1.44.52,2.51s-.17,1.94-.52,2.54c-.35.6-.96.91-1.82.91s-1.48-.3-1.83-.91c-.35-.6-.52-1.45-.52-2.54s.17-1.91.52-2.51ZM301.23,194.76c-.07-.38-.22-.68-.44-.91s-.54-.35-.96-.35-.75.11-.97.35c-.22.23-.37.53-.44.91-.07.38-.11.84-.11,1.38s.04,1.03.11,1.41c.07.38.22.69.44.92.22.23.54.35.97.35s.74-.11.96-.35c.22-.23.37-.54.44-.92.07-.38.11-.85.11-1.41s-.04-1-.11-1.38Z"/>
    <path class="cls-3" d="M303.54,193.34c.26-.25.58-.38.98-.38s.73.13.98.38c.26.25.38.59.38,1.01s-.13.77-.38,1.02-.58.38-.98.38-.73-.13-.98-.38-.38-.59-.38-1.02.13-.76.38-1.01ZM304.03,193.7c-.12.15-.18.36-.18.65s.06.5.18.65c.12.15.29.22.5.22s.38-.08.51-.23c.12-.15.19-.37.19-.65s-.06-.5-.19-.65c-.12-.15-.29-.22-.51-.22s-.38.07-.5.22ZM308.62,193.06l-3.79,6.52h-.84l3.79-6.52h.84ZM307.12,197.27c.26-.25.58-.38.98-.38s.72.13.98.38.38.59.38,1.02-.13.76-.38,1.02c-.25.26-.58.38-.98.38s-.73-.13-.98-.38-.38-.59-.38-1.02.13-.77.38-1.02ZM307.59,197.65c-.12.15-.19.36-.19.65s.06.49.19.64c.12.15.29.22.5.22s.38-.07.51-.22c.12-.15.19-.36.19-.64s-.06-.5-.19-.65c-.12-.15-.29-.22-.51-.22s-.38.07-.5.22Z"/>
  </g>
  <g>
    <path class="cls-3" d="M88.31,124.58c.47-.42.86-.87,1.18-1.33.32-.46.48-.92.48-1.36,0-.42-.1-.75-.31-.99-.2-.24-.53-.36-.98-.36s-.78.14-1.02.41c-.24.27-.37.64-.39,1.1h-.85c.03-.72.25-1.28.66-1.68.41-.39.95-.59,1.6-.59s1.19.18,1.58.55c.39.37.59.88.59,1.52,0,.54-.16,1.06-.48,1.57-.32.51-.68.95-1.09,1.34s-.93.83-1.56,1.34h3.33v.74h-4.66v-.63c.82-.66,1.46-1.2,1.93-1.62Z"/>
    <path class="cls-3" d="M92.6,120.73c.36-.62,1-.94,1.9-.94s1.53.31,1.89.94.54,1.49.54,2.6-.18,2.01-.54,2.64c-.36.63-.99.94-1.89.94s-1.54-.31-1.9-.94c-.36-.63-.54-1.51-.54-2.64s.18-1.98.54-2.6ZM95.95,121.9c-.07-.39-.23-.71-.46-.94-.23-.24-.56-.36-.99-.36s-.77.12-1,.36c-.23.24-.38.55-.46.94-.07.39-.11.87-.11,1.43s.04,1.07.11,1.46c.07.39.23.71.46.95s.56.36,1,.36.76-.12.99-.36c.23-.24.38-.56.46-.95.07-.39.11-.88.11-1.46s-.04-1.04-.11-1.43Z"/>
    <path class="cls-3" d="M99.2,125.69l-1.09,2.61h-.59l.71-2.61h.97Z"/>
    <path class="cls-3" d="M100.61,120.73c.36-.62,1-.94,1.9-.94s1.53.31,1.89.94.54,1.49.54,2.6-.18,2.01-.54,2.64c-.36.63-.99.94-1.89.94s-1.54-.31-1.9-.94c-.36-.63-.54-1.51-.54-2.64s.18-1.98.54-2.6ZM103.96,121.9c-.07-.39-.23-.71-.46-.94-.23-.24-.56-.36-.99-.36s-.77.12-1,.36c-.23.24-.38.55-.46.94-.07.39-.11.87-.11,1.43s.04,1.07.11,1.46c.07.39.23.71.46.95s.56.36,1,.36.76-.12.99-.36c.23-.24.38-.56.46-.95.07-.39.11-.88.11-1.46s-.04-1.04-.11-1.43Z"/>
    <path class="cls-3" d="M106.36,120.43c.26-.26.6-.39,1.02-.39s.75.13,1.02.39c.26.26.4.61.4,1.05s-.13.8-.4,1.06c-.27.26-.6.39-1.02.39s-.75-.13-1.02-.39c-.27-.26-.4-.62-.4-1.06s.13-.79.4-1.05ZM106.86,120.81c-.13.15-.19.38-.19.67s.06.52.19.68c.13.15.3.23.52.23s.39-.08.52-.24c.13-.16.19-.38.19-.67s-.06-.52-.19-.67c-.13-.15-.3-.23-.52-.23s-.39.08-.52.23ZM111.62,120.14l-3.93,6.77h-.87l3.93-6.77h.87ZM110.07,124.51c.27-.26.6-.39,1.02-.39s.75.13,1.01.39.39.62.39,1.06-.13.79-.39,1.06c-.26.27-.6.4-1.01.4s-.75-.13-1.02-.39c-.27-.26-.4-.62-.4-1.06s.13-.8.4-1.06ZM110.55,124.9c-.13.15-.19.38-.19.67s.06.51.19.66.3.23.52.23.39-.08.52-.23.19-.37.19-.66-.06-.52-.19-.67c-.13-.15-.3-.23-.52-.23s-.39.08-.52.23Z"/>
  </g>
  <g>
    <path d="M7.1,204.34v2.68l1.36.49v.85l-6.1-2.22v-.92l6.1-2.21v.85l-1.36.49ZM6.45,204.57l-3.1,1.11,3.1,1.11v-2.22ZM1.6,205c.17.18.25.4.25.67s-.08.49-.26.67c-.17.18-.39.27-.67.27s-.5-.09-.67-.27c-.17-.18-.26-.4-.26-.67s.08-.49.25-.67c.17-.18.39-.27.67-.27s.51.09.67.27ZM.56,205.33c-.09.09-.14.2-.14.34s.05.25.14.34c.09.09.21.14.36.14s.27-.05.36-.14c.09-.09.14-.2.14-.34s-.05-.25-.14-.34-.21-.14-.36-.14-.27.05-.36.14Z"/>
    <path d="M7.82,201.24v-2.15h.65v2.95H2.33v-.8h5.49Z"/>
    <path d="M2.71,194.58c.25-.49.61-.87,1.07-1.13.46-.26,1.01-.39,1.64-.39s1.17.13,1.63.39c.46.26.81.64,1.06,1.13s.37,1.07.37,1.74v1.91H2.33v-1.91c0-.67.12-1.25.37-1.74ZM7.18,194.51c-.42-.42-1.01-.63-1.77-.63s-1.36.21-1.79.63c-.43.42-.64,1.02-.64,1.81v1.11h4.82v-1.11c0-.79-.21-1.4-.63-1.81Z"/>
    <path d="M2.98,191.21h2.05v-2.24h.66v2.24h2.11v-2.5h.66v3.3H2.32v-3.3h.66v2.5Z"/>
    <path d="M8.47,184.26l-2.51,1.46v.97h2.51v.8H2.33v-1.98c0-.46.08-.86.24-1.18s.37-.56.64-.72c.27-.16.58-.24.92-.24.42,0,.8.12,1.12.37s.54.61.64,1.1l2.57-1.54v.96ZM5.32,186.69v-1.18c0-.43-.11-.76-.32-.98-.21-.22-.5-.33-.86-.33s-.65.11-.84.32c-.2.21-.3.54-.3.98v1.18h2.32Z"/>
  </g>
  <g>
    <path d="M264.88,76.3v6.23h-.82v-4.64l-2.07,4.64h-.58l-2.08-4.65v4.65h-.82v-6.23h.88l2.3,5.15,2.3-5.15h.87Z"/>
    <path d="M270.74,80.37h-3.94c.03.49.2.87.5,1.14s.67.41,1.1.41c.35,0,.65-.08.89-.25.24-.17.4-.39.5-.66h.88c-.13.47-.4.86-.79,1.16-.4.3-.89.45-1.48.45-.47,0-.89-.1-1.26-.31s-.66-.51-.87-.9c-.21-.39-.32-.84-.32-1.35s.1-.96.31-1.34c.2-.38.49-.68.86-.89s.79-.31,1.27-.31.88.1,1.24.31c.36.2.64.48.83.84.2.36.29.76.29,1.21,0,.16,0,.32-.03.49ZM269.72,78.9c-.14-.23-.33-.4-.56-.51-.24-.12-.5-.18-.79-.18-.41,0-.77.13-1.06.4s-.46.63-.5,1.1h3.11c0-.31-.07-.58-.21-.81Z"/>
    <path d="M271.85,78.72c.2-.38.48-.68.84-.89.36-.21.76-.31,1.2-.31.38,0,.74.09,1.07.27.33.18.58.41.76.7v-2.61h.83v6.66h-.83v-.93c-.16.29-.4.54-.72.72-.32.19-.69.28-1.12.28s-.83-.11-1.19-.32c-.36-.22-.64-.52-.84-.91-.2-.39-.31-.83-.31-1.33s.1-.95.31-1.33ZM275.49,79.08c-.15-.28-.35-.49-.61-.63s-.54-.22-.84-.22-.58.07-.84.22-.45.35-.6.63c-.15.28-.23.6-.23.97s.08.71.23.99c.15.28.35.49.6.64s.53.22.84.22.59-.07.84-.22.46-.36.61-.64.23-.6.23-.98-.08-.7-.23-.97Z"/>
    <path d="M282.41,80.37h-3.94c.03.49.2.87.5,1.14s.67.41,1.1.41c.35,0,.65-.08.89-.25.24-.17.4-.39.5-.66h.88c-.13.47-.4.86-.79,1.16-.4.3-.89.45-1.48.45-.47,0-.89-.1-1.26-.31s-.66-.51-.87-.9c-.21-.39-.32-.84-.32-1.35s.1-.96.31-1.34c.2-.38.49-.68.86-.89s.79-.31,1.27-.31.88.1,1.24.31c.36.2.64.48.83.84.2.36.29.76.29,1.21,0,.16,0,.32-.03.49ZM281.38,78.9c-.14-.23-.33-.4-.56-.51-.24-.12-.5-.18-.79-.18-.41,0-.77.13-1.06.4s-.46.63-.5,1.1h3.11c0-.31-.07-.58-.21-.81Z"/>
    <path d="M284.33,75.87v6.66h-.82v-6.66h.82Z"/>
  </g>
  <g>
    <path d="M182.66,81.64h2.2v.67h-3.01v-6.27h.82v5.61Z"/>
    <path d="M185.73,78.5c.2-.38.48-.68.84-.89.36-.21.75-.31,1.19-.31s.81.09,1.12.28c.32.19.56.42.71.7v-.9h.83v4.93h-.83v-.92c-.16.29-.4.53-.72.72-.32.19-.7.28-1.12.28s-.83-.11-1.19-.32c-.35-.22-.63-.52-.84-.91-.2-.39-.31-.83-.31-1.33s.1-.95.31-1.33ZM189.37,78.86c-.15-.28-.35-.49-.61-.63s-.54-.22-.84-.22-.58.07-.84.22-.45.35-.6.63c-.15.28-.23.6-.23.97s.08.71.23.99c.15.28.35.49.6.64s.53.22.84.22.59-.07.84-.22.46-.36.61-.64.23-.6.23-.98-.08-.7-.23-.97ZM188.77,76.59c-.18.17-.41.26-.69.26s-.5-.09-.68-.26c-.19-.17-.28-.4-.28-.68s.09-.51.28-.68c.19-.17.41-.26.68-.26s.51.09.69.26c.18.17.27.4.27.69s-.09.52-.27.69ZM188.43,75.53c-.09-.09-.21-.14-.35-.14s-.25.05-.35.14c-.09.09-.14.21-.14.36s.05.27.14.37c.09.1.21.14.35.14s.25-.05.35-.14c.09-.1.14-.22.14-.37s-.05-.27-.14-.36Z"/>
    <path d="M194.96,77.58c.32.19.56.42.72.7v-.9h.83v5.04c0,.45-.1.85-.29,1.2-.19.35-.47.63-.82.82-.36.2-.77.3-1.25.3-.65,0-1.19-.15-1.62-.46-.43-.31-.69-.72-.76-1.25h.81c.09.3.28.54.56.72.28.18.62.27,1.02.27.45,0,.82-.14,1.1-.42.28-.28.43-.68.43-1.19v-1.03c-.16.29-.4.53-.72.72-.32.19-.69.29-1.12.29s-.83-.11-1.19-.32c-.36-.22-.64-.52-.84-.91-.2-.39-.31-.83-.31-1.33s.1-.95.31-1.33c.2-.38.48-.68.84-.89.36-.21.75-.31,1.19-.31s.8.09,1.12.28ZM195.46,78.86c-.15-.28-.35-.49-.61-.63s-.54-.22-.84-.22-.58.07-.84.22-.45.35-.6.63c-.15.28-.23.6-.23.97s.08.71.23.99c.15.28.35.49.6.64s.53.22.84.22.59-.07.84-.22.46-.36.61-.64.23-.6.23-.98-.08-.7-.23-.97Z"/>
    <path d="M198.89,78.05v2.91c0,.24.05.41.15.51.1.1.28.15.53.15h.6v.69h-.74c-.46,0-.8-.1-1.03-.31-.23-.21-.34-.56-.34-1.04v-2.91h-.64v-.68h.64v-1.24h.82v1.24h1.29v.68h-1.29Z"/>
  </g>
  <g>
    <path d="M342.6,76.01v6.27h-.82v-2.84h-3.2v2.84h-.82v-6.27h.82v2.75h3.2v-2.75h.82Z"/>
    <path d="M344.89,82.04c-.38-.21-.67-.51-.88-.9-.21-.39-.32-.84-.32-1.35s.11-.95.33-1.34c.22-.39.52-.68.9-.89s.8-.31,1.27-.31.89.1,1.27.31.68.5.9.89c.22.38.33.83.33,1.34s-.11.96-.34,1.35c-.22.39-.53.69-.91.9s-.81.31-1.28.31-.88-.1-1.25-.31ZM346.97,81.43c.26-.14.47-.34.63-.62.16-.28.24-.61.24-1.01s-.08-.73-.23-1.01-.36-.48-.61-.62c-.25-.13-.53-.2-.82-.2s-.57.07-.82.2c-.25.14-.45.34-.6.62-.15.28-.23.61-.23,1.01s.07.74.22,1.02c.15.28.34.48.59.62.25.13.52.2.81.2s.57-.07.83-.21ZM345.12,76.48c-.09-.09-.14-.2-.14-.33s.05-.24.14-.34c.09-.09.21-.14.34-.14s.24.05.33.14c.09.09.14.21.14.34s-.05.24-.14.33c-.09.09-.2.13-.33.13s-.25-.04-.34-.13ZM346.58,76.48c-.09-.09-.13-.2-.13-.33s.04-.24.13-.34c.09-.09.2-.14.33-.14s.24.05.34.14c.09.09.14.21.14.34s-.05.24-.14.33c-.09.09-.21.13-.34.13s-.24-.04-.33-.13Z"/>
    <path d="M352.91,77.54c.32.19.56.42.72.7v-.9h.83v5.04c0,.45-.1.85-.29,1.2-.19.35-.47.63-.82.82-.36.2-.77.3-1.25.3-.65,0-1.19-.15-1.62-.46-.43-.31-.69-.72-.76-1.25h.81c.09.3.28.54.56.72.28.18.62.27,1.02.27.45,0,.82-.14,1.1-.42.28-.28.43-.68.43-1.19v-1.03c-.16.29-.4.53-.72.72-.32.19-.69.29-1.12.29s-.83-.11-1.19-.32c-.36-.22-.64-.52-.84-.91-.2-.39-.31-.83-.31-1.33s.1-.95.31-1.33c.2-.38.48-.68.84-.89.36-.21.75-.31,1.19-.31s.8.09,1.12.28ZM353.4,78.83c-.15-.28-.35-.49-.61-.63s-.54-.22-.84-.22-.58.07-.84.22-.45.35-.6.63c-.15.28-.23.6-.23.97s.08.71.23.99c.15.28.35.49.6.64s.53.22.84.22.59-.07.84-.22.46-.36.61-.64.23-.6.23-.98-.08-.7-.23-.97Z"/>
    <path d="M356.84,78.02v2.91c0,.24.05.41.15.51.1.1.28.15.53.15h.6v.69h-.74c-.46,0-.8-.1-1.03-.31-.23-.21-.34-.56-.34-1.04v-2.91h-.64v-.68h.64v-1.24h.82v1.24h1.29v.68h-1.29Z"/>
  </g>
</svg>