<?xml version="1.0" encoding="UTF-8"?>
<svg id="Lager_1" data-name="Lager 1" xmlns="http://www.w3.org/2000/svg" viewBox="0 0 443.44 212.61">
  <defs>
    <style>
      .cls-1 {
        fill: #5b53d5;
      }

      .cls-2 {
        fill: #faae4e;
      }

      .cls-3 {
        fill: #f4f4f4;
      }

      .cls-4 {
        fill: #df2b6d;
      }
    </style>
  </defs>
  <rect class="cls-4" x="61.44" y="29.58" width="75.99" height="39"/>
  <rect class="cls-1" x="137.43" y="29.58" width="165.99" height="39"/>
  <rect class="cls-2" x="303.43" y="29.58" width="140.02" height="39"/>
  <rect class="cls-4" x="160.3" y="1.66" width="13.36" height="5.61"/>
  <rect class="cls-1" x="237.02" y="1.87" width="13.36" height="5.61"/>
  <rect class="cls-2" x="316.22" y="1.66" width="13.36" height="5.61"/>
  <rect class="cls-4" x="61.44" y="100.57" width="117" height="39"/>
  <rect class="cls-1" x="178.44" y="100.57" width="237" height="39"/>
  <rect class="cls-2" x="415.44" y="100.57" width="28" height="39"/>
  <rect class="cls-4" x="61.44" y="173.61" width="85" height="39"/>
  <rect class="cls-1" x="146.44" y="173.61" width="256.98" height="39"/>
  <rect class="cls-2" x="403.43" y="173.61" width="40.02" height="39"/>
  <g>
    <path class="cls-3" d="M200.39,51.7v-.69l3.51-4.86h1.09v4.76h1v.79h-1v1.61h-.9v-1.61h-3.7ZM204.13,47.1l-2.69,3.81h2.69v-3.81Z"/>
    <path class="cls-3" d="M207.59,46.46c.43-.35.98-.52,1.66-.52.45,0,.84.08,1.17.25s.58.38.75.67.25.6.25.95c0,.41-.12.77-.35,1.07-.24.3-.54.49-.92.58v.05c.43.11.78.32,1.03.63s.38.72.38,1.23c0,.38-.09.72-.26,1.03s-.43.54-.78.71c-.35.17-.76.26-1.25.26-.71,0-1.29-.18-1.74-.55-.45-.37-.71-.9-.76-1.58h.88c.05.4.21.73.49.98.28.25.65.38,1.12.38s.82-.12,1.06-.37.37-.56.37-.95c0-.5-.17-.86-.5-1.08-.33-.22-.84-.33-1.51-.33h-.23v-.76h.24c.61,0,1.08-.11,1.39-.3s.47-.5.47-.92c0-.35-.12-.64-.35-.85-.23-.21-.56-.32-.98-.32s-.75.11-1,.32c-.25.21-.4.5-.45.86h-.89c.05-.61.28-1.09.71-1.44Z"/>
    <path class="cls-3" d="M213.88,52.05l-1.12,2.69h-.61l.73-2.69h1Z"/>
    <path class="cls-3" d="M215.46,46.46c.43-.35.98-.52,1.66-.52.45,0,.84.08,1.17.25s.58.38.75.67.25.6.25.95c0,.41-.12.77-.35,1.07-.24.3-.54.49-.92.58v.05c.43.11.78.32,1.03.63s.38.72.38,1.23c0,.38-.09.72-.26,1.03s-.43.54-.78.71c-.35.17-.76.26-1.25.26-.71,0-1.29-.18-1.74-.55-.45-.37-.71-.9-.76-1.58h.88c.05.4.21.73.49.98.28.25.65.38,1.12.38s.82-.12,1.06-.37.37-.56.37-.95c0-.5-.17-.86-.5-1.08-.33-.22-.84-.33-1.51-.33h-.23v-.76h.24c.61,0,1.08-.11,1.39-.3s.47-.5.47-.92c0-.35-.12-.64-.35-.85-.23-.21-.56-.32-.98-.32s-.75.11-1,.32c-.25.21-.4.5-.45.86h-.89c.05-.61.28-1.09.71-1.44Z"/>
    <path class="cls-3" d="M223.54,46.62c.27-.27.62-.41,1.05-.41s.78.13,1.05.41c.27.27.41.63.41,1.08s-.14.82-.41,1.09c-.27.27-.62.41-1.05.41s-.78-.14-1.05-.41c-.27-.27-.41-.63-.41-1.09s.14-.82.41-1.08ZM224.06,47.01c-.13.16-.2.39-.2.7s.06.54.2.7c.13.16.31.24.53.24s.41-.08.54-.25c.13-.16.2-.39.2-.69s-.07-.54-.2-.7-.31-.24-.54-.24-.4.08-.53.24ZM228.97,46.33l-4.05,6.98h-.9l4.05-6.98h.9ZM227.37,50.83c.27-.27.62-.41,1.05-.41s.77.13,1.04.41c.27.27.41.63.41,1.09s-.14.82-.41,1.09-.62.41-1.04.41-.78-.13-1.05-.41c-.27-.27-.41-.63-.41-1.09s.14-.83.41-1.09ZM227.87,51.23c-.13.16-.2.39-.2.7s.07.53.2.68c.13.16.31.24.54.24s.41-.08.54-.24c.13-.16.2-.38.2-.68s-.07-.54-.2-.7c-.13-.16-.31-.23-.54-.23s-.41.08-.54.23Z"/>
  </g>
  <g>
    <path class="cls-3" d="M363.19,45.76c.43-.35.98-.52,1.66-.52.45,0,.84.08,1.17.25s.58.38.75.67.25.6.25.95c0,.41-.12.77-.35,1.07-.24.3-.54.49-.92.58v.05c.43.11.78.32,1.03.63.25.31.38.72.38,1.23,0,.38-.09.72-.26,1.03-.17.3-.43.54-.78.71s-.76.26-1.25.26c-.71,0-1.29-.18-1.74-.55-.45-.37-.71-.9-.76-1.58h.88c.05.4.21.73.49.98.28.25.65.38,1.12.38s.82-.12,1.07-.37.37-.56.37-.95c0-.5-.17-.86-.5-1.08-.33-.22-.84-.33-1.51-.33h-.23v-.76h.24c.61,0,1.08-.11,1.39-.3s.47-.5.47-.92c0-.35-.12-.64-.34-.85-.23-.21-.56-.32-.99-.32s-.75.11-1,.32c-.25.21-.4.5-.45.86h-.89c.05-.61.28-1.09.71-1.44Z"/>
    <path class="cls-3" d="M371.05,45.99c-.59,0-1.04.23-1.33.69-.29.46-.44,1.21-.43,2.25.15-.35.41-.62.76-.82.36-.2.75-.29,1.2-.29.69,0,1.23.21,1.64.64.41.43.62,1.02.62,1.77,0,.45-.09.86-.26,1.22-.18.36-.44.65-.8.86-.36.21-.79.32-1.29.32-.69,0-1.22-.15-1.61-.46-.39-.31-.66-.73-.81-1.27s-.23-1.21-.23-2c0-2.45.85-3.67,2.56-3.67.65,0,1.17.18,1.54.53s.59.8.66,1.34h-.84c-.15-.74-.6-1.11-1.37-1.11ZM370.25,48.77c-.25.12-.46.29-.62.53-.16.24-.24.53-.24.87,0,.51.15.92.44,1.24.29.32.71.47,1.26.47.47,0,.84-.14,1.12-.43s.42-.68.42-1.17c0-.52-.13-.93-.4-1.23-.27-.3-.66-.44-1.17-.44-.29,0-.56.06-.81.17Z"/>
    <path class="cls-3" d="M375.83,51.35l-1.12,2.69h-.61l.73-2.69h1Z"/>
    <path class="cls-3" d="M381.17,46.09l-2.78,6.52h-.92l2.82-6.43h-3.86v-.78h4.74v.69Z"/>
    <path class="cls-3" d="M382.39,45.93c.27-.27.62-.41,1.05-.41s.78.13,1.05.41c.27.27.41.63.41,1.08s-.14.82-.41,1.09c-.27.27-.62.41-1.05.41s-.78-.14-1.05-.41c-.27-.27-.41-.63-.41-1.09s.14-.82.41-1.08ZM382.91,46.32c-.13.16-.2.39-.2.7s.06.54.2.7c.13.16.31.24.53.24s.41-.08.54-.25c.13-.16.2-.39.2-.69s-.07-.54-.2-.7c-.13-.16-.31-.24-.54-.24s-.4.08-.53.24ZM387.82,45.63l-4.05,6.98h-.9l4.05-6.98h.9ZM386.22,50.14c.27-.27.62-.41,1.05-.41s.78.13,1.04.41c.27.27.41.63.41,1.09s-.13.82-.41,1.09c-.27.27-.62.41-1.04.41s-.78-.13-1.05-.41c-.27-.27-.41-.63-.41-1.09s.14-.83.41-1.09ZM386.72,50.54c-.13.16-.2.39-.2.7s.07.53.2.68c.13.16.31.24.54.24s.41-.08.54-.24c.13-.16.2-.38.2-.68s-.07-.54-.2-.7c-.13-.16-.31-.23-.54-.23s-.41.08-.54.23Z"/>
  </g>
  <g>
    <path class="cls-3" d="M106.28,117.41c.43-.35.98-.52,1.66-.52.45,0,.84.08,1.17.25s.58.38.75.67.25.6.25.95c0,.41-.12.77-.35,1.07-.24.3-.54.49-.92.58v.05c.43.11.78.32,1.03.63s.38.72.38,1.23c0,.38-.09.72-.26,1.03s-.43.54-.78.71c-.35.17-.76.26-1.25.26-.71,0-1.29-.18-1.74-.55-.45-.37-.71-.9-.76-1.58h.88c.05.4.21.73.49.98.28.25.65.38,1.12.38s.82-.12,1.06-.37.37-.56.37-.95c0-.5-.17-.86-.5-1.08-.33-.22-.84-.33-1.51-.33h-.23v-.76h.24c.61,0,1.08-.11,1.39-.3s.47-.5.47-.92c0-.35-.12-.64-.35-.85-.23-.21-.56-.32-.98-.32s-.75.11-1,.32c-.25.21-.4.5-.45.86h-.89c.05-.61.28-1.09.71-1.44Z"/>
    <path class="cls-3" d="M112.04,117.88c.37-.64,1.03-.96,1.96-.96s1.58.32,1.95.96c.37.64.56,1.54.56,2.68s-.19,2.07-.56,2.72c-.37.65-1.02.97-1.95.97s-1.59-.32-1.96-.97c-.37-.65-.56-1.55-.56-2.72s.19-2.04.56-2.68ZM115.5,119.09c-.08-.4-.23-.73-.47-.97-.24-.25-.58-.37-1.02-.37s-.8.12-1.04.37c-.24.25-.39.57-.47.97s-.11.9-.11,1.47.04,1.1.11,1.51c.08.41.23.73.47.98.24.25.58.37,1.04.37s.79-.12,1.02-.37c.24-.25.39-.57.47-.98.08-.41.12-.91.12-1.51s-.04-1.07-.12-1.47Z"/>
    <path class="cls-3" d="M118.85,123l-1.12,2.69h-.61l.73-2.69h1Z"/>
    <path class="cls-3" d="M124.19,117.74l-2.78,6.52h-.92l2.82-6.43h-3.86v-.78h4.74v.69Z"/>
    <path class="cls-3" d="M128.08,117.57c.27-.27.62-.41,1.05-.41s.78.13,1.05.41c.27.27.41.63.41,1.08s-.14.82-.41,1.09c-.27.27-.62.41-1.05.41s-.78-.14-1.05-.41c-.27-.27-.41-.63-.41-1.09s.14-.82.41-1.08ZM128.6,117.96c-.13.16-.2.39-.2.7s.06.54.2.7c.13.16.31.24.53.24s.41-.08.54-.25c.13-.16.2-.39.2-.69s-.07-.54-.2-.7-.31-.24-.54-.24-.4.08-.53.24ZM133.51,117.28l-4.05,6.98h-.9l4.05-6.98h.9ZM131.91,121.78c.27-.27.62-.41,1.05-.41s.77.13,1.04.41c.27.27.41.63.41,1.09s-.14.82-.41,1.09-.62.41-1.04.41-.78-.13-1.05-.41c-.27-.27-.41-.63-.41-1.09s.14-.83.41-1.09ZM132.41,122.18c-.13.16-.2.39-.2.7s.07.53.2.68c.13.16.31.24.54.24s.41-.08.54-.24c.13-.16.2-.38.2-.68s-.07-.54-.2-.7c-.13-.16-.31-.23-.54-.23s-.41.08-.54.23Z"/>
  </g>
  <g>
    <path class="cls-3" d="M425.13,117.61l-2.78,6.52h-.92l2.82-6.43h-3.86v-.78h4.74v.69Z"/>
    <path class="cls-3" d="M427.23,122.87l-1.12,2.69h-.61l.73-2.69h1Z"/>
    <path class="cls-3" d="M428.81,117.28c.43-.35.98-.52,1.66-.52.45,0,.84.08,1.17.25s.58.38.75.67.25.6.25.95c0,.41-.12.77-.36,1.07-.24.3-.54.49-.92.58v.05c.43.11.78.32,1.03.63.25.31.38.72.38,1.23,0,.38-.09.72-.26,1.03-.17.3-.43.54-.78.71-.35.17-.76.26-1.25.26-.71,0-1.29-.18-1.74-.55s-.71-.9-.76-1.58h.88c.05.4.21.73.49.98.28.25.65.38,1.12.38s.82-.12,1.06-.37.37-.56.37-.95c0-.5-.17-.86-.5-1.08-.33-.22-.84-.33-1.51-.33h-.23v-.76h.24c.61,0,1.08-.11,1.39-.3s.47-.5.47-.92c0-.35-.12-.64-.35-.85-.23-.21-.56-.32-.98-.32s-.75.11-1,.32c-.25.21-.4.5-.45.86h-.89c.05-.61.28-1.09.71-1.44Z"/>
    <path class="cls-3" d="M434.22,117.44c.27-.27.62-.41,1.05-.41s.78.13,1.05.41c.27.27.41.63.41,1.08s-.14.82-.41,1.09c-.27.27-.62.41-1.05.41s-.78-.14-1.05-.41c-.27-.27-.41-.63-.41-1.09s.14-.82.41-1.08ZM434.73,117.83c-.13.16-.2.39-.2.7s.06.54.2.7c.13.16.31.24.53.24s.41-.08.54-.25c.13-.16.2-.39.2-.69s-.07-.54-.2-.7c-.13-.16-.31-.24-.54-.24s-.4.08-.53.24ZM439.64,117.15l-4.05,6.98h-.9l4.05-6.98h.9ZM438.05,121.65c.27-.27.62-.41,1.05-.41s.78.13,1.04.41c.27.27.41.63.41,1.09s-.13.82-.41,1.09c-.27.27-.62.41-1.04.41s-.78-.13-1.05-.41c-.27-.27-.41-.63-.41-1.09s.14-.83.41-1.09ZM438.55,122.05c-.13.16-.2.39-.2.7s.07.53.2.68c.13.16.31.24.54.24s.41-.08.54-.24c.13-.16.2-.38.2-.68s-.07-.54-.2-.7c-.13-.16-.31-.23-.54-.23s-.41.08-.54.23Z"/>
  </g>
  <g>
    <path class="cls-3" d="M91.29,194.59c.48-.44.88-.89,1.21-1.37.33-.48.5-.94.5-1.4,0-.43-.1-.78-.31-1.03s-.55-.38-1.02-.38-.8.14-1.05.42c-.25.28-.39.66-.41,1.14h-.88c.03-.75.25-1.32.68-1.73.43-.41.98-.61,1.65-.61s1.23.19,1.63.57.6.9.6,1.57c0,.55-.17,1.09-.49,1.61-.33.52-.71.98-1.12,1.38-.42.4-.96.86-1.61,1.38h3.44v.76h-4.81v-.65c.85-.68,1.51-1.24,1.99-1.67Z"/>
    <path class="cls-3" d="M97.04,194.59c.48-.44.88-.89,1.21-1.37.33-.48.5-.94.5-1.4,0-.43-.1-.78-.31-1.03s-.55-.38-1.02-.38-.8.14-1.05.42c-.25.28-.39.66-.41,1.14h-.88c.03-.75.25-1.32.68-1.73.43-.41.98-.61,1.65-.61s1.23.19,1.63.57.6.9.6,1.57c0,.55-.17,1.09-.49,1.61-.33.52-.71.98-1.12,1.38-.42.4-.96.86-1.61,1.38h3.44v.76h-4.81v-.65c.85-.68,1.51-1.24,1.99-1.67Z"/>
    <path class="cls-3" d="M102,195.74l-1.12,2.69h-.61l.73-2.69h1Z"/>
    <path class="cls-3" d="M102.67,195.39v-.69l3.51-4.86h1.09v4.76h1v.79h-1v1.61h-.9v-1.61h-3.7ZM106.41,190.79l-2.69,3.81h2.69v-3.81Z"/>
    <path class="cls-3" d="M109.39,190.31c.27-.27.62-.41,1.05-.41s.78.13,1.05.41c.27.27.41.63.41,1.08s-.14.82-.41,1.09c-.27.27-.62.41-1.05.41s-.78-.14-1.05-.41c-.27-.27-.41-.63-.41-1.09s.14-.82.41-1.08ZM109.91,190.7c-.13.16-.2.39-.2.7s.06.54.2.7c.13.16.31.24.53.24s.41-.08.54-.25c.13-.16.2-.39.2-.69s-.07-.54-.2-.7-.31-.24-.54-.24-.4.08-.53.24ZM114.82,190.02l-4.05,6.98h-.9l4.05-6.98h.9ZM113.22,194.52c.27-.27.62-.41,1.05-.41s.77.13,1.04.41c.27.27.41.63.41,1.09s-.14.82-.41,1.09-.62.41-1.04.41-.78-.13-1.05-.41c-.27-.27-.41-.63-.41-1.09s.14-.83.41-1.09ZM113.72,194.92c-.13.16-.2.39-.2.7s.07.53.2.68c.13.16.31.24.54.24s.41-.08.54-.24c.13-.16.2-.38.2-.68s-.07-.54-.2-.7c-.13-.16-.31-.23-.54-.23s-.41.08-.54.23Z"/>
  </g>
  <g>
    <path class="cls-3" d="M268.89,192.66c-.59,0-1.04.23-1.33.69-.29.46-.44,1.21-.43,2.25.15-.35.41-.62.77-.82.36-.2.75-.29,1.19-.29.69,0,1.23.21,1.65.64.41.43.62,1.02.62,1.77,0,.45-.09.86-.27,1.22-.18.36-.44.65-.8.86-.36.21-.79.32-1.29.32-.69,0-1.22-.15-1.61-.46-.39-.31-.66-.73-.81-1.27s-.23-1.21-.23-2c0-2.45.85-3.67,2.56-3.67.65,0,1.17.18,1.54.53.37.35.59.8.66,1.34h-.84c-.15-.74-.6-1.11-1.37-1.11ZM268.09,195.44c-.25.12-.46.29-.61.53-.16.24-.24.53-.24.87,0,.51.15.92.44,1.24s.71.47,1.26.47c.47,0,.84-.14,1.11-.43.28-.29.42-.68.42-1.17,0-.52-.13-.93-.4-1.23-.27-.3-.66-.44-1.17-.44-.29,0-.56.06-.81.17Z"/>
    <path class="cls-3" d="M277.03,192.76l-2.78,6.52h-.92l2.82-6.43h-3.86v-.78h4.74v.69Z"/>
    <path class="cls-3" d="M279.13,198.02l-1.12,2.69h-.61l.73-2.69h1Z"/>
    <path class="cls-3" d="M281.9,196.88c.48-.44.88-.89,1.21-1.37.33-.48.5-.94.5-1.4,0-.43-.11-.78-.32-1.03s-.55-.38-1.01-.38-.8.14-1.05.42c-.25.28-.39.66-.41,1.14h-.88c.03-.75.25-1.32.68-1.73s.98-.61,1.65-.61,1.23.19,1.63.57.6.9.6,1.57c0,.55-.17,1.09-.49,1.61-.33.52-.71.98-1.12,1.38-.42.4-.96.86-1.61,1.38h3.44v.76h-4.81v-.65c.85-.68,1.51-1.24,1.99-1.67Z"/>
    <path class="cls-3" d="M285.98,192.6c.27-.27.62-.41,1.05-.41s.78.13,1.05.41c.27.27.41.63.41,1.08s-.14.82-.41,1.09c-.27.27-.62.41-1.05.41s-.78-.14-1.05-.41c-.27-.27-.41-.63-.41-1.09s.14-.82.41-1.08ZM286.5,192.99c-.13.16-.2.39-.2.7s.07.54.2.7c.13.16.31.24.54.24s.41-.08.54-.25c.13-.16.2-.39.2-.69s-.07-.54-.2-.7c-.13-.16-.31-.24-.54-.24s-.41.08-.54.24ZM291.41,192.3l-4.05,6.98h-.9l4.05-6.98h.9ZM289.81,196.81c.27-.27.62-.41,1.05-.41s.77.13,1.04.41.41.63.41,1.09-.14.82-.41,1.09c-.27.27-.62.41-1.04.41s-.78-.13-1.05-.41c-.27-.27-.41-.63-.41-1.09s.14-.83.41-1.09ZM290.31,197.21c-.13.16-.2.39-.2.7s.07.53.2.68c.13.16.31.24.54.24s.41-.08.54-.24c.13-.16.2-.38.2-.68s-.07-.54-.2-.7c-.13-.16-.31-.23-.54-.23s-.41.08-.54.23Z"/>
  </g>
  <g>
    <path class="cls-3" d="M412.77,191.94v-.83h1.88v7.23h-.92v-6.4h-.96Z"/>
    <path class="cls-3" d="M416.77,191.96c.37-.64,1.03-.96,1.96-.96s1.58.32,1.95.96c.37.64.56,1.54.56,2.68s-.19,2.07-.56,2.72c-.37.65-1.02.97-1.95.97s-1.59-.32-1.96-.97c-.37-.65-.56-1.55-.56-2.72s.19-2.04.56-2.68ZM420.23,193.17c-.08-.4-.23-.73-.47-.97-.24-.25-.58-.37-1.02-.37s-.8.12-1.04.37c-.24.25-.39.57-.47.97-.08.4-.11.9-.11,1.47s.04,1.1.11,1.51c.08.41.23.73.47.98.24.25.58.37,1.04.37s.79-.12,1.02-.37c.24-.25.39-.57.47-.98.08-.41.12-.91.12-1.51s-.04-1.07-.12-1.47Z"/>
    <path class="cls-3" d="M423.58,197.08l-1.12,2.69h-.61l.73-2.69h1Z"/>
    <path class="cls-3" d="M424.25,196.73v-.69l3.51-4.86h1.09v4.76h1v.79h-1v1.61h-.9v-1.61h-3.7ZM427.99,192.13l-2.69,3.81h2.69v-3.81Z"/>
    <path class="cls-3" d="M430.97,191.65c.27-.27.62-.41,1.05-.41s.78.13,1.05.41c.27.27.41.63.41,1.08s-.14.82-.41,1.09c-.27.27-.62.41-1.05.41s-.78-.14-1.05-.41c-.27-.27-.41-.63-.41-1.09s.14-.82.41-1.08ZM431.49,192.04c-.13.16-.2.39-.2.7s.06.54.2.7c.13.16.31.24.53.24s.41-.08.54-.25c.13-.16.2-.39.2-.69s-.07-.54-.2-.7c-.13-.16-.31-.24-.54-.24s-.4.08-.53.24ZM436.4,191.36l-4.05,6.98h-.9l4.05-6.98h.9ZM434.8,195.86c.27-.27.62-.41,1.05-.41s.78.13,1.04.41c.27.27.41.63.41,1.09s-.13.82-.41,1.09c-.27.27-.62.41-1.04.41s-.78-.13-1.05-.41c-.27-.27-.41-.63-.41-1.09s.14-.83.41-1.09ZM435.3,196.26c-.13.16-.2.39-.2.7s.07.53.2.68c.13.16.31.24.54.24s.41-.08.54-.24c.13-.16.2-.38.2-.68s-.07-.54-.2-.7c-.13-.16-.31-.23-.54-.23s-.41.08-.54.23Z"/>
  </g>
  <g>
    <path d="M32.22,46.74h-3.51v2.28c.15-.21.38-.39.68-.52.3-.14.62-.21.97-.21.55,0,1,.12,1.35.35.35.23.59.53.74.89.15.36.23.75.23,1.15,0,.48-.09.91-.27,1.29-.18.38-.46.68-.82.9-.37.22-.83.33-1.38.33-.7,0-1.27-.18-1.7-.54-.43-.36-.7-.84-.79-1.44h.89c.09.38.27.68.55.89.28.21.63.32,1.06.32.53,0,.92-.16,1.19-.48.27-.32.4-.73.4-1.25s-.13-.92-.4-1.21c-.27-.28-.66-.42-1.18-.42-.35,0-.66.08-.93.25s-.46.4-.57.69h-.86v-4.08h4.35v.8Z"/>
    <path d="M34.35,48.78c-.2-.28-.3-.62-.3-1.02,0-.36.09-.69.27-.98.18-.29.45-.52.81-.69.36-.17.79-.25,1.29-.25s.94.08,1.29.25c.36.17.63.4.81.69.18.29.27.62.27.98,0,.39-.1.73-.31,1.02-.21.29-.49.5-.85.65.41.13.74.35.98.66.24.32.37.7.37,1.15s-.11.81-.32,1.14-.52.57-.9.75c-.39.18-.84.27-1.35.27s-.95-.09-1.33-.27c-.38-.18-.68-.43-.9-.75s-.32-.7-.32-1.14.12-.83.36-1.15c.24-.32.57-.54.98-.66-.37-.15-.66-.36-.86-.64ZM35.21,50.16c-.31.23-.47.58-.47,1.04,0,.43.15.77.45,1.03.3.26.71.39,1.23.39s.92-.13,1.22-.39c.3-.26.45-.6.45-1.03s-.15-.79-.46-1.02-.71-.35-1.21-.35-.9.11-1.21.34ZM37.52,46.93c-.27-.22-.63-.33-1.1-.33s-.82.11-1.09.33-.4.54-.4.95c0,.37.14.67.42.9.28.23.63.34,1.07.34s.81-.11,1.08-.34c.28-.23.42-.53.42-.91,0-.41-.13-.72-.4-.94Z"/>
    <path d="M44.15,49.13v.77h-3.99v-.77h3.99Z"/>
    <path d="M50.16,46.66l-2.78,6.52h-.92l2.82-6.43h-3.86v-.78h4.74v.69Z"/>
    <path d="M53.83,46.56c-.59,0-1.04.23-1.33.69-.29.46-.44,1.21-.43,2.25.15-.35.41-.62.77-.81.36-.2.75-.29,1.19-.29.69,0,1.23.21,1.65.64s.62,1.02.62,1.77c0,.45-.09.86-.27,1.22-.18.36-.44.65-.8.86-.36.21-.79.32-1.29.32-.69,0-1.22-.15-1.61-.46s-.66-.73-.81-1.27-.23-1.21-.23-2c0-2.45.85-3.67,2.56-3.67.65,0,1.17.18,1.54.53.37.35.59.8.66,1.34h-.84c-.15-.74-.6-1.11-1.37-1.11ZM53.03,49.33c-.25.12-.46.29-.61.53-.16.24-.24.52-.24.86,0,.51.15.92.44,1.24.29.32.71.47,1.26.47.47,0,.84-.14,1.11-.43.28-.29.42-.68.42-1.18,0-.52-.13-.93-.4-1.23-.27-.3-.66-.44-1.17-.44-.29,0-.56.06-.81.17Z"/>
  </g>
  <g>
    <path d="M28.55,116.88c.43-.35.98-.52,1.66-.52.45,0,.84.08,1.17.25.33.16.58.38.75.67s.25.6.25.95c0,.41-.12.77-.35,1.07-.24.3-.54.49-.92.58v.05c.43.11.78.32,1.03.63s.38.72.38,1.23c0,.38-.09.72-.26,1.03s-.43.54-.78.71c-.35.17-.76.26-1.25.26-.71,0-1.29-.18-1.74-.55-.45-.37-.71-.89-.76-1.58h.88c.05.4.21.73.49.98.28.25.65.38,1.12.38s.82-.12,1.06-.37.37-.56.37-.94c0-.5-.17-.86-.5-1.08-.33-.22-.84-.33-1.51-.33h-.23v-.76h.24c.61,0,1.08-.11,1.39-.3.31-.2.47-.5.47-.92,0-.35-.12-.64-.35-.85-.23-.21-.56-.32-.98-.32s-.75.11-1,.32c-.25.21-.4.5-.45.86h-.89c.05-.61.28-1.09.71-1.44Z"/>
    <path d="M35.38,122.67c.24.21.57.31.99.31.55,0,.96-.22,1.22-.65.26-.43.39-1.16.38-2.19-.14.3-.37.54-.7.71s-.69.25-1.09.25c-.45,0-.84-.09-1.19-.27-.35-.18-.62-.45-.83-.81-.2-.35-.3-.78-.3-1.28,0-.71.21-1.29.62-1.72.41-.44,1-.66,1.76-.66.93,0,1.59.3,1.97.91.38.61.56,1.51.56,2.71,0,.84-.08,1.53-.23,2.08s-.4.96-.76,1.25c-.36.29-.84.43-1.46.43-.68,0-1.21-.18-1.59-.55-.38-.37-.6-.83-.65-1.4h.84c.07.38.22.67.46.88ZM37.43,119.92c.29-.28.43-.65.43-1.12,0-.5-.14-.9-.42-1.21-.28-.31-.67-.46-1.18-.46-.47,0-.84.15-1.11.44-.28.29-.42.68-.42,1.16s.14.88.41,1.17c.27.29.67.44,1.19.44.45,0,.81-.14,1.1-.42Z"/>
    <path d="M44,119.68v.77h-3.99v-.77h3.99Z"/>
    <path d="M50.17,117.29h-3.51v2.28c.15-.21.38-.39.68-.52.3-.14.62-.21.97-.21.55,0,1,.12,1.35.34.35.23.59.53.74.89.15.36.23.75.23,1.15,0,.48-.09.91-.27,1.29-.18.38-.46.68-.82.9-.37.22-.83.33-1.38.33-.7,0-1.27-.18-1.7-.54-.43-.36-.7-.84-.79-1.44h.89c.09.38.27.68.55.89.28.21.63.32,1.06.32.53,0,.92-.16,1.19-.47s.4-.74.4-1.25-.13-.92-.4-1.21-.66-.42-1.18-.42c-.35,0-.66.08-.93.25s-.46.4-.57.69h-.86v-4.08h4.35v.8Z"/>
    <path d="M56.29,117.21l-2.78,6.52h-.92l2.82-6.43h-3.86v-.78h4.74v.69Z"/>
  </g>
  <g>
    <path d="M28.88,190.6v-.83h1.88v7.23h-.92v-6.4h-.96Z"/>
    <path d="M33.96,195.94c.24.21.57.31.99.31.55,0,.96-.22,1.22-.65.26-.43.39-1.16.38-2.19-.14.3-.37.53-.7.71-.33.17-.69.25-1.09.25-.45,0-.84-.09-1.19-.28s-.62-.45-.83-.8c-.2-.35-.3-.78-.3-1.28,0-.71.21-1.29.62-1.72.41-.44,1-.66,1.76-.66.93,0,1.59.3,1.97.91.38.61.56,1.51.56,2.71,0,.84-.08,1.53-.23,2.08s-.4.96-.76,1.25c-.36.29-.84.43-1.46.43-.68,0-1.21-.18-1.59-.55-.38-.37-.6-.83-.65-1.4h.84c.07.38.22.67.46.88ZM36,193.19c.29-.28.43-.65.43-1.12,0-.5-.14-.9-.42-1.21-.28-.31-.67-.46-1.18-.46-.47,0-.84.15-1.11.44-.28.29-.42.68-.42,1.16s.14.88.41,1.17c.27.29.67.44,1.19.44.45,0,.81-.14,1.1-.42Z"/>
    <path d="M42.57,192.95v.77h-3.99v-.77h3.99Z"/>
    <path d="M44.82,190.15c.43-.35.98-.52,1.66-.52.45,0,.84.08,1.17.25s.58.38.75.67c.17.28.25.6.25.95,0,.41-.12.77-.35,1.07s-.54.49-.92.58v.05c.43.11.78.32,1.03.63.25.31.38.72.38,1.23,0,.38-.09.72-.26,1.03-.17.3-.43.54-.78.71-.35.17-.76.26-1.25.26-.71,0-1.29-.18-1.74-.55-.45-.37-.71-.9-.76-1.58h.88c.05.4.21.73.49.98.28.25.65.38,1.12.38s.82-.12,1.06-.36.37-.56.37-.95c0-.5-.17-.86-.5-1.08-.33-.22-.84-.33-1.51-.33h-.23v-.76h.24c.61,0,1.08-.11,1.39-.3.31-.2.47-.5.47-.92,0-.35-.12-.64-.35-.85-.23-.21-.56-.32-.98-.32s-.75.11-1,.32c-.25.21-.4.5-.45.86h-.89c.05-.61.28-1.09.71-1.44Z"/>
    <path d="M50.48,192.6c-.2-.28-.3-.62-.3-1.02,0-.36.09-.69.27-.98.18-.29.45-.52.81-.69.36-.17.79-.25,1.29-.25s.94.08,1.29.25c.36.17.63.4.81.69.18.29.27.62.27.98,0,.39-.1.72-.31,1.01-.21.29-.49.5-.85.65.41.13.74.35.98.66.24.32.37.7.37,1.15s-.11.81-.32,1.13-.52.57-.9.75c-.39.18-.84.27-1.35.27s-.95-.09-1.33-.27-.68-.43-.9-.75-.32-.7-.32-1.13.12-.83.36-1.15c.24-.32.57-.54.98-.66-.37-.15-.66-.36-.86-.64ZM51.34,193.99c-.31.23-.47.58-.47,1.04,0,.43.15.77.45,1.03.3.26.71.39,1.23.39s.92-.13,1.22-.39c.3-.26.45-.6.45-1.03s-.15-.79-.46-1.02c-.31-.24-.71-.36-1.21-.36s-.9.12-1.21.34ZM53.65,190.75c-.27-.22-.63-.33-1.1-.33s-.82.11-1.09.33c-.27.22-.4.54-.4.95,0,.37.14.67.42.9.28.23.63.34,1.07.34s.81-.11,1.08-.34c.28-.23.42-.53.42-.91,0-.41-.13-.72-.4-.94Z"/>
  </g>
  <g>
    <path class="cls-3" d="M286.8,118.44c-.55,0-.97.21-1.24.64-.27.43-.41,1.13-.4,2.11.14-.32.38-.58.72-.76.33-.18.71-.28,1.12-.28.64,0,1.15.2,1.54.6.38.4.57.95.57,1.65,0,.42-.08.8-.25,1.14-.17.34-.41.6-.75.8-.33.2-.74.3-1.21.3-.64,0-1.14-.14-1.5-.43-.36-.29-.61-.68-.76-1.19-.14-.51-.22-1.13-.22-1.87,0-2.29.8-3.43,2.39-3.43.61,0,1.09.17,1.44.5s.55.75.62,1.25h-.79c-.14-.69-.56-1.04-1.28-1.04ZM286.05,121.04c-.24.11-.43.27-.57.5-.15.22-.22.49-.22.81,0,.47.14.86.41,1.15.27.3.67.44,1.18.44.44,0,.78-.14,1.04-.41.26-.27.39-.64.39-1.1,0-.49-.12-.87-.37-1.14-.25-.28-.61-.42-1.09-.42-.27,0-.52.05-.76.16Z"/>
    <path class="cls-3" d="M292.01,122.38c.45-.41.83-.84,1.14-1.28.31-.45.46-.88.46-1.31,0-.41-.1-.72-.29-.96s-.51-.35-.95-.35-.75.13-.99.4c-.23.26-.36.62-.38,1.06h-.82c.02-.7.24-1.24.64-1.62.4-.38.91-.57,1.54-.57s1.15.18,1.53.53c.38.36.57.85.57,1.47,0,.52-.15,1.02-.46,1.51-.31.49-.66.92-1.05,1.29-.39.37-.89.8-1.51,1.29h3.22v.71h-4.5v-.61c.79-.64,1.41-1.16,1.86-1.57Z"/>
    <path class="cls-3" d="M296.65,123.45l-1.05,2.51h-.57l.68-2.51h.93Z"/>
    <path class="cls-3" d="M298,118.67c.35-.6.96-.9,1.83-.9s1.47.3,1.82.9c.35.6.52,1.44.52,2.51s-.17,1.94-.52,2.54c-.35.6-.96.91-1.82.91s-1.48-.3-1.83-.91c-.35-.6-.52-1.45-.52-2.54s.17-1.91.52-2.51ZM301.23,119.8c-.07-.38-.22-.68-.44-.91s-.54-.35-.96-.35-.75.11-.97.35c-.22.23-.37.53-.44.91-.07.38-.11.84-.11,1.38s.04,1.03.11,1.41c.07.38.22.69.44.92.22.23.54.35.97.35s.74-.11.96-.35c.22-.23.37-.54.44-.92.07-.38.11-.85.11-1.41s-.04-1-.11-1.38Z"/>
    <path class="cls-3" d="M303.54,118.38c.26-.25.58-.38.98-.38s.73.13.98.38c.26.25.38.59.38,1.01s-.13.77-.38,1.02-.58.38-.98.38-.73-.13-.98-.38-.38-.59-.38-1.02.13-.76.38-1.01ZM304.03,118.75c-.12.15-.18.36-.18.65s.06.5.18.65c.12.15.29.22.5.22s.38-.08.51-.23c.12-.15.19-.37.19-.65s-.06-.5-.19-.65c-.12-.15-.29-.22-.51-.22s-.38.07-.5.22ZM308.62,118.11l-3.79,6.52h-.84l3.79-6.52h.84ZM307.12,122.32c.26-.25.58-.38.98-.38s.72.13.98.38.38.59.38,1.02-.13.76-.38,1.02c-.25.26-.58.38-.98.38s-.73-.13-.98-.38-.38-.59-.38-1.02.13-.77.38-1.02ZM307.59,122.69c-.12.15-.19.36-.19.65s.06.49.19.64c.12.15.29.22.5.22s.38-.07.51-.22c.12-.15.19-.36.19-.64s-.06-.5-.19-.65c-.12-.15-.29-.22-.51-.22s-.38.07-.5.22Z"/>
  </g>
  <g>
    <path class="cls-3" d="M88.31,49.62c.47-.42.86-.87,1.18-1.33.32-.46.48-.92.48-1.36,0-.42-.1-.75-.31-.99-.2-.24-.53-.36-.98-.36s-.78.14-1.02.41c-.24.27-.37.64-.39,1.1h-.85c.03-.72.25-1.28.66-1.68.41-.39.95-.59,1.6-.59s1.19.18,1.58.55c.39.37.59.88.59,1.52,0,.54-.16,1.06-.48,1.57-.32.51-.68.95-1.09,1.34s-.93.83-1.56,1.34h3.33v.74h-4.66v-.63c.82-.66,1.46-1.2,1.93-1.62Z"/>
    <path class="cls-3" d="M92.6,45.77c.36-.62,1-.94,1.9-.94s1.53.31,1.89.94.54,1.49.54,2.6-.18,2.01-.54,2.64c-.36.63-.99.94-1.89.94s-1.54-.31-1.9-.94c-.36-.63-.54-1.51-.54-2.64s.18-1.98.54-2.6ZM95.95,46.95c-.07-.39-.23-.71-.46-.94-.23-.24-.56-.36-.99-.36s-.77.12-1,.36c-.23.24-.38.55-.46.94-.07.39-.11.87-.11,1.43s.04,1.07.11,1.46c.07.39.23.71.46.95s.56.36,1,.36.76-.12.99-.36c.23-.24.38-.56.46-.95.07-.39.11-.88.11-1.46s-.04-1.04-.11-1.43Z"/>
    <path class="cls-3" d="M99.2,50.73l-1.09,2.61h-.59l.71-2.61h.97Z"/>
    <path class="cls-3" d="M100.61,45.77c.36-.62,1-.94,1.9-.94s1.53.31,1.89.94.54,1.49.54,2.6-.18,2.01-.54,2.64c-.36.63-.99.94-1.89.94s-1.54-.31-1.9-.94c-.36-.63-.54-1.51-.54-2.64s.18-1.98.54-2.6ZM103.96,46.95c-.07-.39-.23-.71-.46-.94-.23-.24-.56-.36-.99-.36s-.77.12-1,.36c-.23.24-.38.55-.46.94-.07.39-.11.87-.11,1.43s.04,1.07.11,1.46c.07.39.23.71.46.95s.56.36,1,.36.76-.12.99-.36c.23-.24.38-.56.46-.95.07-.39.11-.88.11-1.46s-.04-1.04-.11-1.43Z"/>
    <path class="cls-3" d="M106.36,45.47c.26-.26.6-.39,1.02-.39s.75.13,1.02.39c.26.26.4.61.4,1.05s-.13.8-.4,1.06c-.27.26-.6.39-1.02.39s-.75-.13-1.02-.39c-.27-.26-.4-.62-.4-1.06s.13-.79.4-1.05ZM106.86,45.85c-.13.15-.19.38-.19.67s.06.52.19.68c.13.15.3.23.52.23s.39-.08.52-.24c.13-.16.19-.38.19-.67s-.06-.52-.19-.67c-.13-.15-.3-.23-.52-.23s-.39.08-.52.23ZM111.62,45.19l-3.93,6.77h-.87l3.93-6.77h.87ZM110.07,49.55c.27-.26.6-.39,1.02-.39s.75.13,1.01.39.39.62.39,1.06-.13.79-.39,1.06c-.26.27-.6.4-1.01.4s-.75-.13-1.02-.39c-.27-.26-.4-.62-.4-1.06s.13-.8.4-1.06ZM110.55,49.94c-.13.15-.19.38-.19.67s.06.51.19.66.3.23.52.23.39-.08.52-.23.19-.37.19-.66-.06-.52-.19-.67c-.13-.15-.3-.23-.52-.23s-.39.08-.52.23Z"/>
  </g>
  <g>
    <path d="M7.1,129.39v2.68l1.36.49v.85l-6.1-2.22v-.92l6.1-2.21v.85l-1.36.49ZM6.45,129.61l-3.1,1.11,3.1,1.11v-2.22ZM1.6,130.04c.17.18.25.4.25.67s-.08.49-.26.67c-.17.18-.39.27-.67.27s-.5-.09-.67-.27c-.17-.18-.26-.4-.26-.67s.08-.49.25-.67c.17-.18.39-.27.67-.27s.51.09.67.27ZM.56,130.38c-.09.09-.14.2-.14.34s.05.25.14.34c.09.09.21.14.36.14s.27-.05.36-.14c.09-.09.14-.2.14-.34s-.05-.25-.14-.34-.21-.14-.36-.14-.27.05-.36.14Z"/>
    <path d="M7.82,126.28v-2.15h.65v2.95H2.33v-.8h5.49Z"/>
    <path d="M2.71,119.63c.25-.49.61-.87,1.07-1.13.46-.26,1.01-.39,1.64-.39s1.17.13,1.63.39c.46.26.81.64,1.06,1.13s.37,1.07.37,1.74v1.91H2.33v-1.91c0-.67.12-1.25.37-1.74ZM7.18,119.55c-.42-.42-1.01-.63-1.77-.63s-1.36.21-1.79.63c-.43.42-.64,1.02-.64,1.81v1.11h4.82v-1.11c0-.79-.21-1.4-.63-1.81Z"/>
    <path d="M2.98,116.25h2.05v-2.24h.66v2.24h2.11v-2.5h.66v3.3H2.32v-3.3h.66v2.5Z"/>
    <path d="M8.47,109.3l-2.51,1.46v.97h2.51v.8H2.33v-1.98c0-.46.08-.86.24-1.18s.37-.56.64-.72c.27-.16.58-.24.92-.24.42,0,.8.12,1.12.37s.54.61.64,1.1l2.57-1.54v.96ZM5.32,111.73v-1.18c0-.43-.11-.76-.32-.98-.21-.22-.5-.33-.86-.33s-.65.11-.84.32c-.2.21-.3.54-.3.98v1.18h2.32Z"/>
  </g>
  <g>
    <path d="M264.88,1.34v6.23h-.82V2.93l-2.07,4.64h-.58l-2.08-4.65v4.65h-.82V1.34h.88l2.3,5.15,2.3-5.15h.87Z"/>
    <path d="M270.74,5.41h-3.94c.03.49.2.87.5,1.14s.67.41,1.1.41c.35,0,.65-.08.89-.25.24-.17.4-.39.5-.66h.88c-.13.47-.4.86-.79,1.16-.4.3-.89.45-1.48.45-.47,0-.89-.1-1.26-.31s-.66-.51-.87-.9c-.21-.39-.32-.84-.32-1.35s.1-.96.31-1.34c.2-.38.49-.68.86-.89s.79-.31,1.27-.31.88.1,1.24.31c.36.2.64.48.83.84.2.36.29.76.29,1.21,0,.16,0,.32-.03.49ZM269.72,3.94c-.14-.23-.33-.4-.56-.51-.24-.12-.5-.18-.79-.18-.41,0-.77.13-1.06.4s-.46.63-.5,1.1h3.11c0-.31-.07-.58-.21-.81Z"/>
    <path d="M271.85,3.76c.2-.38.48-.68.84-.89.36-.21.76-.31,1.2-.31.38,0,.74.09,1.07.27.33.18.58.41.76.7V.91h.83v6.66h-.83v-.93c-.16.29-.4.54-.72.72-.32.19-.69.28-1.12.28s-.83-.11-1.19-.32c-.36-.22-.64-.52-.84-.91-.2-.39-.31-.83-.31-1.33s.1-.95.31-1.33ZM275.49,4.12c-.15-.28-.35-.49-.61-.63s-.54-.22-.84-.22-.58.07-.84.22-.45.35-.6.63c-.15.28-.23.6-.23.97s.08.71.23.99c.15.28.35.49.6.64s.53.22.84.22.59-.07.84-.22.46-.36.61-.64.23-.6.23-.98-.08-.7-.23-.97Z"/>
    <path d="M282.41,5.41h-3.94c.03.49.2.87.5,1.14s.67.41,1.1.41c.35,0,.65-.08.89-.25.24-.17.4-.39.5-.66h.88c-.13.47-.4.86-.79,1.16-.4.3-.89.45-1.48.45-.47,0-.89-.1-1.26-.31s-.66-.51-.87-.9c-.21-.39-.32-.84-.32-1.35s.1-.96.31-1.34c.2-.38.49-.68.86-.89s.79-.31,1.27-.31.88.1,1.24.31c.36.2.64.48.83.84.2.36.29.76.29,1.21,0,.16,0,.32-.03.49ZM281.38,3.94c-.14-.23-.33-.4-.56-.51-.24-.12-.5-.18-.79-.18-.41,0-.77.13-1.06.4s-.46.63-.5,1.1h3.11c0-.31-.07-.58-.21-.81Z"/>
    <path d="M284.33.91v6.66h-.82V.91h.82Z"/>
  </g>
  <g>
    <path d="M182.66,6.69h2.2v.67h-3.01V1.08h.82v5.61Z"/>
    <path d="M185.73,3.54c.2-.38.48-.68.84-.89.36-.21.75-.31,1.19-.31s.81.09,1.12.28c.32.19.56.42.71.7v-.9h.83v4.93h-.83v-.92c-.16.29-.4.53-.72.72-.32.19-.7.28-1.12.28s-.83-.11-1.19-.32c-.35-.22-.63-.52-.84-.91-.2-.39-.31-.83-.31-1.33s.1-.95.31-1.33ZM189.37,3.91c-.15-.28-.35-.49-.61-.63s-.54-.22-.84-.22-.58.07-.84.22-.45.35-.6.63c-.15.28-.23.6-.23.97s.08.71.23.99c.15.28.35.49.6.64s.53.22.84.22.59-.07.84-.22.46-.36.61-.64.23-.6.23-.98-.08-.7-.23-.97ZM188.77,1.63c-.18.17-.41.26-.69.26s-.5-.09-.68-.26c-.19-.17-.28-.4-.28-.68s.09-.51.28-.68c.19-.17.41-.26.68-.26s.51.09.69.26c.18.17.27.4.27.69s-.09.52-.27.69ZM188.43.57c-.09-.09-.21-.14-.35-.14s-.25.05-.35.14c-.09.09-.14.21-.14.36s.05.27.14.37c.09.1.21.14.35.14s.25-.05.35-.14c.09-.1.14-.22.14-.37s-.05-.27-.14-.36Z"/>
    <path d="M194.96,2.62c.32.19.56.42.72.7v-.9h.83v5.04c0,.45-.1.85-.29,1.2-.19.35-.47.63-.82.82-.36.2-.77.3-1.25.3-.65,0-1.19-.15-1.62-.46-.43-.31-.69-.72-.76-1.25h.81c.09.3.28.54.56.72.28.18.62.27,1.02.27.45,0,.82-.14,1.1-.42.28-.28.43-.68.43-1.19v-1.03c-.16.29-.4.53-.72.72-.32.19-.69.29-1.12.29s-.83-.11-1.19-.32c-.36-.22-.64-.52-.84-.91-.2-.39-.31-.83-.31-1.33s.1-.95.31-1.33c.2-.38.48-.68.84-.89.36-.21.75-.31,1.19-.31s.8.09,1.12.28ZM195.46,3.91c-.15-.28-.35-.49-.61-.63s-.54-.22-.84-.22-.58.07-.84.22-.45.35-.6.63c-.15.28-.23.6-.23.97s.08.71.23.99c.15.28.35.49.6.64s.53.22.84.22.59-.07.84-.22.46-.36.61-.64.23-.6.23-.98-.08-.7-.23-.97Z"/>
    <path d="M198.89,3.1v2.91c0,.24.05.41.15.51.1.1.28.15.53.15h.6v.69h-.74c-.46,0-.8-.1-1.03-.31-.23-.21-.34-.56-.34-1.04v-2.91h-.64v-.68h.64v-1.24h.82v1.24h1.29v.68h-1.29Z"/>
  </g>
  <g>
    <path d="M342.6,1.05v6.27h-.82v-2.84h-3.2v2.84h-.82V1.05h.82v2.75h3.2V1.05h.82Z"/>
    <path d="M344.89,7.09c-.38-.21-.67-.51-.88-.9-.21-.39-.32-.84-.32-1.35s.11-.95.33-1.34c.22-.39.52-.68.9-.89s.8-.31,1.27-.31.89.1,1.27.31.68.5.9.89c.22.38.33.83.33,1.34s-.11.96-.34,1.35c-.22.39-.53.69-.91.9s-.81.31-1.28.31-.88-.1-1.25-.31ZM346.97,6.48c.26-.14.47-.34.63-.62.16-.28.24-.61.24-1.01s-.08-.73-.23-1.01-.36-.48-.61-.62c-.25-.13-.53-.2-.82-.2s-.57.07-.82.2c-.25.14-.45.34-.6.62-.15.28-.23.61-.23,1.01s.07.74.22,1.02c.15.28.34.48.59.62.25.13.52.2.81.2s.57-.07.83-.21ZM345.12,1.53c-.09-.09-.14-.2-.14-.33s.05-.24.14-.34c.09-.09.21-.14.34-.14s.24.05.33.14c.09.09.14.21.14.34s-.05.24-.14.33c-.09.09-.2.13-.33.13s-.25-.04-.34-.13ZM346.58,1.53c-.09-.09-.13-.2-.13-.33s.04-.24.13-.34c.09-.09.2-.14.33-.14s.24.05.34.14c.09.09.14.21.14.34s-.05.24-.14.33c-.09.09-.21.13-.34.13s-.24-.04-.33-.13Z"/>
    <path d="M352.91,2.59c.32.19.56.42.72.7v-.9h.83v5.04c0,.45-.1.85-.29,1.2-.19.35-.47.63-.82.82-.36.2-.77.3-1.25.3-.65,0-1.19-.15-1.62-.46-.43-.31-.69-.72-.76-1.25h.81c.09.3.28.54.56.72.28.18.62.27,1.02.27.45,0,.82-.14,1.1-.42.28-.28.43-.68.43-1.19v-1.03c-.16.29-.4.53-.72.72-.32.19-.69.29-1.12.29s-.83-.11-1.19-.32c-.36-.22-.64-.52-.84-.91-.2-.39-.31-.83-.31-1.33s.1-.95.31-1.33c.2-.38.48-.68.84-.89.36-.21.75-.31,1.19-.31s.8.09,1.12.28ZM353.4,3.87c-.15-.28-.35-.49-.61-.63s-.54-.22-.84-.22-.58.07-.84.22-.45.35-.6.63c-.15.28-.23.6-.23.97s.08.71.23.99c.15.28.35.49.6.64s.53.22.84.22.59-.07.84-.22.46-.36.61-.64.23-.6.23-.98-.08-.7-.23-.97Z"/>
    <path d="M356.84,3.06v2.91c0,.24.05.41.15.51.1.1.28.15.53.15h.6v.69h-.74c-.46,0-.8-.1-1.03-.31-.23-.21-.34-.56-.34-1.04v-2.91h-.64v-.68h.64v-1.24h.82v1.24h1.29v.68h-1.29Z"/>
  </g>
</svg>